<svg xmlns="http://www.w3.org/2000/svg" xmlns:xlink="http://www.w3.org/1999/xlink" width="60" zoomAndPan="magnify" viewBox="0 0 45 44.999999" height="60" preserveAspectRatio="xMidYMid meet" version="1.0"><defs><clipPath id="id1"><path d="M 6.722656 2.816406 L 27.101562 2.816406 L 27.101562 42.550781 L 6.722656 42.550781 Z M 6.722656 2.816406 " clip-rule="nonzero"/></clipPath><clipPath id="id2"><path d="M 17.667969 13 L 38.222656 13 L 38.222656 34.335938 L 17.667969 34.335938 Z M 17.667969 13 " clip-rule="nonzero"/></clipPath></defs><path fill="#ffffff" d="M 31.257812 1.351562 L 43.648438 13.742188 L 43.648438 31.265625 L 31.257812 43.648438 L 13.742188 43.648438 L 1.351562 31.257812 L 1.351562 13.742188 L 13.742188 1.351562 L 31.257812 1.351562 M 31.824219 0 L 13.175781 0 L 0 13.175781 L 0 31.816406 L 13.175781 45 L 31.816406 45 L 45 31.824219 L 45 13.175781 Z M 31.824219 0 " fill-opacity="1" fill-rule="nonzero"/><path fill="#ffffff" d="M 31.257812 1.351562 L 43.648438 13.742188 L 43.648438 31.265625 L 31.257812 43.648438 L 13.742188 43.648438 L 1.351562 31.257812 L 1.351562 13.742188 L 13.742188 1.351562 L 31.257812 1.351562 M 31.824219 0 L 13.175781 0 L 0 13.175781 L 0 31.816406 L 13.175781 45 L 31.816406 45 L 45 31.824219 L 45 13.175781 Z M 31.824219 0 " fill-opacity="1" fill-rule="nonzero"/><g clip-path="url(#id1)"><path fill="#ffffff" d="M 24.863281 38.261719 C 24.128906 37.40625 23.445312 36.863281 23.003906 36.554688 C 21.429688 35.464844 19.359375 35.5625 17.171875 35.660156 C 16.453125 35.695312 15.707031 35.730469 14.976562 35.71875 C 13.390625 35.699219 11.417969 35.675781 10.574219 35.394531 C 10.292969 35.289062 9.726562 35.058594 10.117188 33.382812 C 10.292969 32.621094 10.511719 31.667969 10.203125 30.707031 C 10.203125 30.699219 10.199219 30.691406 10.195312 30.679688 C 10.003906 30.109375 9.664062 29.652344 9.390625 29.285156 C 9.328125 29.203125 9.34375 29.066406 9.425781 29 C 9.800781 28.671875 10.230469 28.441406 10.707031 28.3125 C 11.011719 28.230469 11.234375 27.984375 11.289062 27.667969 C 11.34375 27.355469 11.21875 27.042969 10.960938 26.859375 C 10.183594 26.308594 9.714844 25.753906 9.675781 25.355469 C 9.679688 25.351562 9.683594 25.351562 9.683594 25.347656 C 10.027344 25.105469 10.503906 24.707031 10.855469 24.1875 C 11.332031 23.472656 11.449219 22.699219 11.191406 21.953125 C 10.925781 21.179688 10.265625 20.675781 9.429688 20.042969 C 9.1875 19.863281 8.941406 19.675781 8.679688 19.464844 C 7.820312 18.769531 7.710938 18.386719 7.71875 18.21875 C 7.742188 17.84375 8.390625 17.402344 9 17.019531 L 9.058594 16.984375 C 9.613281 16.632812 11.304688 15.566406 12.894531 14.210938 C 13.804688 13.429688 14.527344 12.683594 15.042969 11.988281 C 15.710938 11.085938 16.046875 10.246094 16.042969 9.492188 C 16.089844 9.117188 16.117188 8.707031 16.144531 8.238281 C 16.230469 6.875 16.335938 5.183594 17.074219 3.605469 C 17.09375 3.574219 17.109375 3.539062 17.125 3.503906 C 17.226562 3.246094 17.101562 2.953125 16.84375 2.851562 C 16.601562 2.753906 16.320312 2.863281 16.203125 3.105469 C 15.355469 4.878906 15.238281 6.785156 15.152344 8.171875 C 15.121094 8.632812 15.097656 9.03125 15.050781 9.378906 C 15.050781 9.394531 15.050781 9.410156 15.046875 9.425781 L 15.046875 9.433594 C 15.046875 9.449219 15.046875 9.472656 15.046875 9.5 C 15.050781 10.03125 14.78125 10.664062 14.246094 11.382812 C 13.777344 12.015625 13.105469 12.710938 12.25 13.441406 C 10.71875 14.75 9.070312 15.785156 8.53125 16.128906 L 8.472656 16.164062 C 7.578125 16.726562 6.773438 17.304688 6.722656 18.160156 C 6.6875 18.820312 7.109375 19.484375 8.058594 20.25 C 8.332031 20.46875 8.597656 20.671875 8.832031 20.847656 C 9.558594 21.402344 10.082031 21.800781 10.253906 22.285156 C 10.597656 23.28125 9.683594 24.117188 9.109375 24.523438 C 9.105469 24.53125 9.097656 24.535156 9.089844 24.539062 C 8.976562 24.613281 8.675781 24.8125 8.675781 25.273438 C 8.667969 25.742188 8.875 26.226562 9.296875 26.71875 C 9.507812 26.964844 9.769531 27.210938 10.082031 27.457031 C 9.605469 27.632812 9.167969 27.894531 8.777344 28.234375 C 8.546875 28.433594 8.398438 28.714844 8.363281 29.023438 C 8.328125 29.335938 8.410156 29.644531 8.59375 29.890625 C 8.847656 30.234375 9.109375 30.589844 9.253906 31.007812 L 9.253906 31.011719 C 9.253906 31.011719 9.253906 31.015625 9.253906 31.015625 C 9.480469 31.710938 9.308594 32.445312 9.144531 33.15625 C 8.964844 33.925781 8.9375 34.542969 9.0625 35.039062 C 9.21875 35.664062 9.625 36.113281 10.234375 36.339844 C 10.238281 36.34375 10.246094 36.34375 10.25 36.347656 C 11.238281 36.679688 13.132812 36.703125 14.964844 36.726562 C 15.722656 36.738281 16.484375 36.703125 17.21875 36.667969 C 19.234375 36.574219 21.140625 36.488281 22.441406 37.386719 C 23.144531 37.875 24.910156 39.320312 26.132812 42.238281 C 26.199219 42.402344 26.351562 42.519531 26.523438 42.542969 C 26.546875 42.546875 26.570312 42.550781 26.59375 42.550781 C 26.746094 42.550781 26.890625 42.480469 26.988281 42.363281 C 27.128906 42.1875 27.132812 41.941406 27.011719 41.761719 C 26.453125 40.441406 25.730469 39.265625 24.863281 38.261719 " fill-opacity="1" fill-rule="nonzero"/></g><path fill="#ffffff" d="M 12.957031 16.660156 C 12.511719 16.660156 12.144531 17.03125 12.144531 17.480469 C 12.144531 17.933594 12.511719 18.300781 12.957031 18.300781 C 13.40625 18.300781 13.769531 17.933594 13.769531 17.480469 C 13.769531 17.03125 13.40625 16.660156 12.957031 16.660156 " fill-opacity="1" fill-rule="nonzero"/><path fill="#ffffff" d="M 16.238281 21.785156 C 16.238281 21.175781 15.75 20.679688 15.144531 20.679688 C 14.542969 20.679688 14.054688 21.175781 14.054688 21.785156 C 14.054688 22.394531 14.542969 22.890625 15.144531 22.890625 C 15.75 22.890625 16.238281 22.394531 16.238281 21.785156 " fill-opacity="1" fill-rule="nonzero"/><path fill="#ffffff" d="M 14.34375 27.300781 C 14.8125 27.300781 15.191406 26.917969 15.191406 26.441406 C 15.191406 25.96875 14.8125 25.582031 14.34375 25.582031 C 13.875 25.582031 13.492188 25.96875 13.492188 26.441406 C 13.492188 26.917969 13.875 27.300781 14.34375 27.300781 " fill-opacity="1" fill-rule="nonzero"/><path fill="#ffffff" d="M 21.3125 29.992188 C 21.3125 29.40625 20.839844 28.929688 20.261719 28.929688 C 19.683594 28.929688 19.210938 29.40625 19.210938 29.992188 C 19.210938 30.578125 19.683594 31.054688 20.261719 31.054688 C 20.839844 31.054688 21.3125 30.578125 21.3125 29.992188 " fill-opacity="1" fill-rule="nonzero"/><path fill="#ffffff" d="M 23.550781 21.796875 C 23.242188 21.796875 22.992188 22.050781 22.992188 22.359375 C 22.992188 22.671875 23.242188 22.925781 23.550781 22.925781 C 23.859375 22.925781 24.109375 22.671875 24.109375 22.359375 C 24.109375 22.050781 23.859375 21.796875 23.550781 21.796875 " fill-opacity="1" fill-rule="nonzero"/><path fill="#ffffff" d="M 22.308594 19.300781 C 21.914062 19.300781 21.59375 19.625 21.59375 20.023438 C 21.59375 20.421875 21.914062 20.746094 22.308594 20.746094 C 22.703125 20.746094 23.023438 20.421875 23.023438 20.023438 C 23.023438 19.625 22.703125 19.300781 22.308594 19.300781 " fill-opacity="1" fill-rule="nonzero"/><path fill="#ffffff" d="M 23.375 17.828125 C 23.746094 17.828125 24.050781 17.523438 24.050781 17.144531 C 24.050781 16.765625 23.746094 16.460938 23.375 16.460938 C 23 16.460938 22.695312 16.765625 22.695312 17.144531 C 22.695312 17.523438 23 17.828125 23.375 17.828125 " fill-opacity="1" fill-rule="nonzero"/><path fill="#ffffff" d="M 15.144531 31.996094 C 15.515625 31.996094 15.820312 31.691406 15.820312 31.316406 C 15.820312 30.9375 15.515625 30.632812 15.144531 30.632812 C 14.773438 30.632812 14.472656 30.9375 14.472656 31.316406 C 14.472656 31.691406 14.773438 31.996094 15.144531 31.996094 " fill-opacity="1" fill-rule="nonzero"/><path fill="#ffffff" d="M 16.359375 15.957031 C 16.359375 16.265625 16.605469 16.515625 16.910156 16.515625 C 17.214844 16.515625 17.460938 16.265625 17.460938 15.957031 C 17.460938 15.648438 17.214844 15.402344 16.910156 15.402344 C 16.605469 15.402344 16.359375 15.648438 16.359375 15.957031 " fill-opacity="1" fill-rule="nonzero"/><path fill="#ffffff" d="M 25.214844 32.339844 C 25.214844 32.023438 24.960938 31.769531 24.652344 31.769531 C 24.339844 31.769531 24.089844 32.023438 24.089844 32.339844 C 24.089844 32.652344 24.339844 32.90625 24.652344 32.90625 C 24.960938 32.90625 25.214844 32.652344 25.214844 32.339844 " fill-opacity="1" fill-rule="nonzero"/><path fill="#ffffff" d="M 27.734375 21.792969 C 27.421875 21.792969 27.171875 22.046875 27.171875 22.359375 C 27.171875 22.675781 27.421875 22.929688 27.734375 22.929688 C 28.042969 22.929688 28.296875 22.675781 28.296875 22.359375 C 28.296875 22.046875 28.042969 21.792969 27.734375 21.792969 " fill-opacity="1" fill-rule="nonzero"/><g clip-path="url(#id2)"><path fill="#ffffff" d="M 36.890625 33.015625 C 36.484375 33.40625 35.839844 33.414062 35.425781 33.03125 L 31.132812 29.0625 C 30.910156 28.855469 30.785156 28.574219 30.78125 28.269531 C 30.78125 27.964844 30.898438 27.683594 31.117188 27.472656 L 31.382812 27.21875 L 31.644531 26.96875 C 31.847656 26.773438 32.105469 26.667969 32.382812 26.667969 C 32.402344 26.667969 32.421875 26.667969 32.441406 26.671875 C 32.738281 26.6875 33.007812 26.820312 33.203125 27.050781 L 36.96875 31.523438 C 37.339844 31.964844 37.304688 32.621094 36.890625 33.015625 Z M 29.15625 24.847656 C 26.671875 27.230469 22.730469 27.125 20.371094 24.613281 C 19.230469 23.394531 18.625 21.800781 18.671875 20.125 C 18.714844 18.445312 19.402344 16.886719 20.605469 15.730469 C 21.804688 14.582031 23.34375 14.011719 24.878906 14.011719 C 26.527344 14.011719 28.167969 14.667969 29.390625 15.96875 C 31.746094 18.480469 31.640625 22.464844 29.15625 24.847656 Z M 37.726562 30.871094 L 33.960938 26.398438 C 33.589844 25.957031 33.066406 25.695312 32.496094 25.664062 C 31.964844 25.636719 31.460938 25.804688 31.058594 26.144531 L 30.191406 25.21875 C 30.734375 24.625 31.167969 23.953125 31.488281 23.210938 C 31.859375 22.347656 32.0625 21.429688 32.089844 20.484375 C 32.113281 19.535156 31.960938 18.609375 31.632812 17.726562 C 31.292969 16.8125 30.78125 15.988281 30.113281 15.273438 C 29.441406 14.558594 28.65625 14 27.769531 13.609375 C 26.914062 13.230469 26.007812 13.027344 25.070312 13.003906 C 24.136719 12.976562 23.21875 13.132812 22.347656 13.464844 C 21.441406 13.808594 20.625 14.324219 19.921875 15 C 19.214844 15.675781 18.660156 16.472656 18.273438 17.367188 C 17.902344 18.234375 17.699219 19.148438 17.675781 20.097656 C 17.648438 21.042969 17.800781 21.96875 18.128906 22.851562 C 18.46875 23.765625 18.980469 24.589844 19.648438 25.304688 C 20.320312 26.019531 21.109375 26.578125 21.992188 26.96875 C 22.847656 27.347656 23.753906 27.550781 24.691406 27.574219 C 24.753906 27.578125 24.820312 27.578125 24.886719 27.578125 C 25.753906 27.578125 26.605469 27.421875 27.414062 27.113281 C 28.164062 26.832031 28.851562 26.425781 29.46875 25.914062 L 30.335938 26.839844 C 29.980469 27.230469 29.78125 27.746094 29.785156 28.28125 C 29.792969 28.859375 30.039062 29.414062 30.460938 29.804688 L 34.753906 33.773438 C 35.136719 34.128906 35.632812 34.324219 36.152344 34.324219 C 36.15625 34.324219 36.164062 34.324219 36.167969 34.324219 C 36.695312 34.316406 37.195312 34.113281 37.574219 33.75 C 37.578125 33.75 37.578125 33.75 37.578125 33.75 C 38.375 32.980469 38.441406 31.71875 37.726562 30.871094 " fill-opacity="1" fill-rule="nonzero"/></g></svg>