<svg xmlns="http://www.w3.org/2000/svg" xmlns:xlink="http://www.w3.org/1999/xlink" width="60" zoomAndPan="magnify" viewBox="0 0 45 44.999999" height="60" preserveAspectRatio="xMidYMid meet" version="1.0"><defs><clipPath id="id1"><path d="M 1.8125 8.816406 L 43.046875 8.816406 L 43.046875 35.816406 L 1.8125 35.816406 Z M 1.8125 8.816406 " clip-rule="nonzero"/></clipPath></defs><path fill="#ffffff" d="M 31.257812 1.351562 L 43.648438 13.742188 L 43.648438 31.265625 L 31.257812 43.648438 L 13.742188 43.648438 L 1.351562 31.257812 L 1.351562 13.742188 L 13.742188 1.351562 L 31.257812 1.351562 M 31.824219 0 L 13.175781 0 L 0 13.175781 L 0 31.816406 L 13.175781 45 L 31.816406 45 L 45 31.824219 L 45 13.175781 Z M 31.824219 0 " fill-opacity="1" fill-rule="nonzero"/><path fill="#ffffff" d="M 31.257812 1.351562 L 43.648438 13.742188 L 43.648438 31.265625 L 31.257812 43.648438 L 13.742188 43.648438 L 1.351562 31.257812 L 1.351562 13.742188 L 13.742188 1.351562 L 31.257812 1.351562 M 31.824219 0 L 13.175781 0 L 0 13.175781 L 0 31.816406 L 13.175781 45 L 31.816406 45 L 45 31.824219 L 45 13.175781 Z M 31.824219 0 " fill-opacity="1" fill-rule="nonzero"/><g clip-path="url(#id1)"><path fill="#ffffff" d="M 20.441406 15.492188 C 19.152344 13.195312 17.042969 11.632812 14.675781 10.96875 C 13.460938 10.628906 12.175781 10.53125 10.902344 10.6875 C 9.671875 10.835938 8.449219 11.230469 7.304688 11.875 C 7.183594 11.945312 7.054688 12.023438 6.925781 12.105469 C 6.796875 12.183594 6.671875 12.265625 6.554688 12.34375 C 4.269531 13.890625 3.015625 15.46875 2.378906 16.957031 C 1.34375 19.398438 1.953125 21.613281 2.421875 23.113281 C 2.445312 23.191406 2.519531 23.382812 2.613281 23.625 C 2.855469 24.226562 3.246094 25.171875 3.417969 25.601562 C 3.464844 25.71875 3.507812 25.980469 3.558594 26.339844 C 3.671875 27.140625 3.804688 28.378906 3.996094 29.488281 C 4.066406 29.917969 4.136719 30.570312 4.363281 31.011719 C 4.496094 31.269531 4.679688 31.457031 4.929688 31.523438 C 5.125 31.574219 5.277344 31.566406 5.464844 31.503906 C 5.621094 31.445312 5.808594 31.339844 6.085938 31.179688 C 6.25 31.085938 6.367188 31.007812 6.460938 30.957031 C 6.523438 30.925781 6.5625 30.898438 6.605469 30.917969 C 6.691406 30.960938 6.78125 31.085938 6.9375 31.304688 C 7.195312 31.660156 7.605469 32.25 8.351562 33.167969 C 9.394531 34.4375 10 35.070312 10.566406 35.214844 C 10.867188 35.289062 11.164062 35.234375 11.507812 35.058594 C 11.945312 34.835938 12.464844 34.40625 13.207031 33.8125 C 13.359375 33.6875 13.484375 33.628906 13.601562 33.632812 C 13.730469 33.636719 13.839844 33.722656 13.960938 33.859375 C 14.28125 34.21875 14.648438 34.925781 15.351562 35.785156 C 15.378906 35.820312 15.425781 35.824219 15.460938 35.796875 C 15.492188 35.769531 15.5 35.722656 15.472656 35.6875 C 14.777344 34.816406 14.417969 34.105469 14.101562 33.738281 C 13.9375 33.554688 13.78125 33.453125 13.609375 33.445312 C 13.457031 33.4375 13.289062 33.503906 13.082031 33.664062 C 12.351562 34.234375 11.839844 34.652344 11.410156 34.867188 C 11.121094 35.011719 10.875 35.0625 10.621094 34.996094 C 10.085938 34.855469 9.53125 34.230469 8.554688 33.007812 C 7.621094 31.839844 7.230469 31.203125 6.992188 30.902344 C 6.890625 30.773438 6.808594 30.699219 6.734375 30.664062 C 6.628906 30.609375 6.527344 30.613281 6.398438 30.667969 C 6.292969 30.710938 6.152344 30.804688 5.9375 30.925781 C 5.683594 31.070312 5.511719 31.167969 5.363281 31.21875 C 5.242188 31.261719 5.140625 31.261719 5.011719 31.226562 C 4.785156 31.167969 4.660156 30.949219 4.566406 30.6875 C 4.421875 30.289062 4.375 29.785156 4.320312 29.433594 C 4.140625 28.328125 4.019531 27.089844 3.914062 26.289062 C 3.863281 25.890625 3.808594 25.597656 3.757812 25.46875 C 3.613281 25.09375 3.300781 24.328125 3.070312 23.734375 C 2.929688 23.386719 2.820312 23.101562 2.792969 23.003906 C 2.355469 21.566406 1.773438 19.449219 2.777344 17.125 C 3.394531 15.695312 4.605469 14.1875 6.804688 12.707031 L 7.523438 12.25 C 8.613281 11.621094 9.777344 11.234375 10.953125 11.074219 C 12.179688 10.90625 13.414062 10.980469 14.589844 11.277344 C 16.925781 11.863281 19.039062 13.320312 20.375 15.53125 C 20.386719 15.546875 20.410156 15.554688 20.429688 15.542969 C 20.445312 15.535156 20.453125 15.507812 20.441406 15.492188 Z M 22.394531 22.628906 C 22.074219 21.980469 21.832031 21.292969 21.667969 20.574219 C 21.511719 19.878906 21.429688 19.160156 21.4375 18.417969 C 21.460938 15.851562 22.53125 13.542969 24.238281 11.871094 C 25.9375 10.207031 28.269531 9.175781 30.847656 9.183594 C 30.984375 9.183594 31.128906 9.1875 31.273438 9.191406 C 31.421875 9.199219 31.566406 9.210938 31.703125 9.21875 C 34.367188 9.410156 36.183594 10.117188 37.441406 11.054688 C 39.492188 12.582031 40.058594 14.710938 40.40625 16.175781 C 40.429688 16.277344 40.476562 16.578125 40.535156 16.953125 C 40.628906 17.578125 40.75 18.398438 40.808594 18.796875 C 40.832031 18.929688 40.933594 19.207031 41.085938 19.578125 C 41.398438 20.324219 41.917969 21.457031 42.320312 22.503906 C 42.449219 22.835938 42.660156 23.296875 42.738281 23.714844 C 42.789062 23.992188 42.785156 24.25 42.621094 24.417969 C 42.523438 24.511719 42.433594 24.5625 42.300781 24.585938 C 42.148438 24.617188 41.949219 24.617188 41.652344 24.617188 C 41.40625 24.617188 41.238281 24.605469 41.125 24.621094 C 40.988281 24.636719 40.902344 24.683594 40.839844 24.773438 C 40.796875 24.84375 40.761719 24.945312 40.738281 25.105469 C 40.683594 25.484375 40.664062 26.230469 40.441406 27.699219 C 40.210938 29.242188 40.046875 30.058594 39.652344 30.445312 C 39.464844 30.628906 39.226562 30.707031 38.90625 30.722656 C 38.421875 30.746094 37.769531 30.640625 36.847656 30.503906 C 36.585938 30.464844 36.40625 30.496094 36.277344 30.578125 C 36.128906 30.671875 36.042969 30.835938 35.996094 31.078125 C 35.90625 31.550781 35.953125 32.347656 35.785156 33.445312 C 35.78125 33.496094 35.8125 33.542969 35.863281 33.550781 C 35.914062 33.558594 35.960938 33.523438 35.96875 33.472656 C 36.140625 32.378906 36.097656 31.585938 36.195312 31.117188 C 36.230469 30.941406 36.28125 30.8125 36.386719 30.746094 C 36.484375 30.6875 36.621094 30.675781 36.816406 30.707031 C 37.753906 30.851562 38.425781 30.964844 38.917969 30.941406 C 39.304688 30.925781 39.585938 30.824219 39.8125 30.605469 C 40.230469 30.203125 40.433594 29.355469 40.6875 27.738281 C 40.871094 26.570312 40.921875 25.859375 40.964844 25.425781 C 40.992188 25.152344 41.007812 25 41.0625 24.921875 C 41.089844 24.878906 41.140625 24.878906 41.214844 24.878906 C 41.324219 24.875 41.464844 24.882812 41.652344 24.882812 C 41.972656 24.886719 42.1875 24.882812 42.351562 24.851562 C 42.542969 24.816406 42.675781 24.75 42.816406 24.609375 C 42.996094 24.433594 43.058594 24.179688 43.042969 23.898438 C 43.015625 23.40625 42.746094 22.808594 42.589844 22.402344 C 42.191406 21.351562 41.679688 20.210938 41.371094 19.460938 C 41.234375 19.125 41.136719 18.871094 41.121094 18.75 C 41.058594 18.351562 40.945312 17.53125 40.855469 16.90625 C 40.796875 16.519531 40.75 16.207031 40.722656 16.101562 C 40.371094 14.578125 39.78125 12.367188 37.65625 10.777344 C 36.359375 9.800781 34.484375 9.058594 31.730469 8.851562 C 31.589844 8.84375 31.441406 8.832031 31.292969 8.824219 C 31.140625 8.820312 30.988281 8.816406 30.847656 8.816406 C 28.171875 8.820312 25.75 9.898438 24.003906 11.640625 C 22.269531 13.378906 21.210938 15.78125 21.234375 18.417969 C 21.242188 19.171875 21.335938 19.90625 21.515625 20.609375 C 21.695312 21.335938 21.964844 22.027344 22.304688 22.671875 C 22.316406 22.699219 22.347656 22.707031 22.371094 22.695312 C 22.398438 22.683594 22.40625 22.652344 22.394531 22.628906 Z M 25.734375 29.859375 C 25.832031 29.609375 25.929688 29.339844 25.996094 29.050781 C 26.058594 28.773438 26.09375 28.484375 26.085938 28.195312 C 26.082031 28 26.058594 27.804688 26.007812 27.613281 C 25.960938 27.425781 25.886719 27.242188 25.789062 27.0625 C 25.648438 26.824219 25.320312 26.402344 24.953125 25.964844 C 24.359375 25.257812 23.671875 24.507812 23.605469 24.4375 C 23.523438 24.347656 23.449219 24.257812 23.371094 24.167969 C 23.296875 24.078125 23.222656 23.988281 23.148438 23.894531 C 23.140625 23.878906 23.121094 23.875 23.105469 23.886719 C 23.089844 23.898438 23.085938 23.917969 23.097656 23.929688 C 23.164062 24.027344 23.234375 24.125 23.304688 24.222656 C 23.375 24.316406 23.445312 24.410156 23.519531 24.503906 C 23.589844 24.59375 24.390625 25.574219 24.976562 26.375 C 25.226562 26.710938 25.4375 27.011719 25.535156 27.199219 C 25.617188 27.355469 25.675781 27.519531 25.722656 27.6875 C 25.765625 27.859375 25.792969 28.03125 25.808594 28.207031 C 25.832031 28.480469 25.824219 28.753906 25.796875 29.019531 C 25.769531 29.308594 25.726562 29.585938 25.675781 29.839844 C 25.671875 29.859375 25.679688 29.875 25.695312 29.878906 C 25.714844 29.882812 25.730469 29.875 25.734375 29.859375 Z M 13.488281 23.109375 C 13.410156 23.125 13.332031 23.136719 13.257812 23.144531 C 12.957031 23.171875 12.671875 23.128906 12.464844 22.992188 C 12.445312 22.980469 12.421875 22.964844 12.398438 22.949219 C 12.277344 23.324219 12.070312 23.671875 11.71875 23.960938 C 11.675781 23.996094 11.578125 24.074219 11.445312 24.148438 C 11.527344 24.210938 11.601562 24.273438 11.660156 24.328125 C 11.820312 24.480469 11.90625 24.613281 11.945312 24.730469 C 12.019531 24.960938 11.921875 25.128906 11.75 25.222656 C 11.585938 25.308594 11.34375 25.324219 11.128906 25.246094 C 11.003906 25.203125 10.875 25.132812 10.746094 25.050781 C 10.46875 25.539062 9.988281 25.910156 9.238281 26.0625 C 8.773438 26.15625 8.429688 26.140625 8.128906 26.003906 C 7.917969 25.910156 7.726562 25.757812 7.527344 25.539062 C 7.222656 25.703125 6.917969 25.828125 6.640625 25.902344 C 6.054688 26.054688 5.578125 25.960938 5.394531 25.539062 C 5.34375 25.425781 5.316406 25.210938 5.324219 24.941406 C 5.332031 24.578125 5.398438 24.101562 5.519531 23.621094 C 5.386719 23.328125 5.316406 22.960938 5.3125 22.601562 L 5.3125 22.570312 C 5.269531 22.578125 5.226562 22.582031 5.183594 22.585938 C 4.5625 22.636719 4.144531 22.457031 4.042969 21.945312 C 4.007812 21.75 3.902344 21.066406 4.003906 20.648438 C 4.042969 20.480469 4.117188 20.355469 4.226562 20.292969 C 4.339844 20.230469 4.492188 20.222656 4.699219 20.332031 C 5.285156 20.648438 5.808594 20.824219 6.28125 20.90625 C 6.386719 20.832031 6.472656 20.765625 6.546875 20.699219 C 6.179688 20.523438 5.816406 20.335938 5.5 20.125 C 4.953125 19.757812 4.535156 19.316406 4.417969 18.757812 C 4.339844 18.386719 4.394531 17.957031 4.644531 17.457031 C 4.765625 17.214844 4.949219 16.890625 5.183594 16.644531 C 5.347656 16.46875 5.535156 16.328125 5.742188 16.269531 C 6.023438 16.191406 6.347656 16.277344 6.671875 16.453125 C 6.871094 16.265625 7.105469 16.128906 7.230469 16.058594 C 7.585938 15.855469 7.859375 15.832031 8.082031 15.914062 C 8.289062 15.988281 8.449219 16.15625 8.585938 16.375 L 8.625 16.15625 C 8.628906 16.117188 8.636719 16.074219 8.644531 16.035156 L 8.65625 15.960938 C 8.320312 15.765625 8.019531 15.617188 7.808594 15.476562 C 7.527344 15.292969 7.398438 15.105469 7.476562 14.867188 C 7.542969 14.660156 7.703125 14.523438 7.929688 14.441406 C 8.132812 14.367188 8.398438 14.339844 8.699219 14.351562 C 8.792969 14.355469 8.890625 14.359375 8.992188 14.371094 C 9 14.335938 9.011719 14.296875 9.019531 14.261719 C 9.164062 13.757812 9.339844 13.414062 9.527344 13.191406 C 9.730469 12.953125 9.957031 12.859375 10.179688 12.863281 C 10.578125 12.867188 10.992188 13.203125 11.316406 13.667969 C 11.378906 13.757812 11.4375 13.851562 11.488281 13.945312 C 11.597656 13.722656 11.726562 13.53125 11.863281 13.394531 C 12.132812 13.125 12.433594 13.0625 12.683594 13.28125 C 12.941406 13.507812 13.1875 13.671875 13.417969 13.800781 C 13.539062 13.496094 13.902344 13.398438 14.382812 13.457031 C 15.226562 13.558594 16.453125 14.121094 17.199219 14.589844 C 17.53125 14.800781 17.765625 14.996094 17.839844 15.125 C 17.898438 15.226562 17.914062 15.347656 17.882812 15.484375 C 17.84375 15.660156 17.730469 15.867188 17.554688 16.082031 C 17.457031 16.203125 17.335938 16.328125 17.203125 16.453125 C 17.542969 16.75 17.910156 17.203125 17.9375 17.644531 C 17.964844 18.085938 17.890625 18.367188 17.761719 18.546875 C 17.683594 18.65625 17.585938 18.730469 17.476562 18.785156 C 17.640625 19.019531 17.765625 19.246094 17.839844 19.460938 C 18 19.914062 17.929688 20.316406 17.519531 20.644531 C 17.25 20.859375 16.996094 20.972656 16.757812 21.011719 C 16.734375 21.015625 16.714844 21.019531 16.691406 21.019531 C 16.503906 21.300781 16.253906 21.554688 15.980469 21.769531 C 16.058594 22.105469 15.976562 22.390625 15.828125 22.59375 C 15.664062 22.816406 15.347656 23.125 14.882812 23.210938 C 14.683594 23.25 14.453125 23.246094 14.199219 23.179688 C 14.722656 23.585938 15.242188 24.402344 16.199219 24.835938 C 17.273438 25.324219 18.316406 25.300781 19.300781 25.007812 C 20.007812 24.796875 20.683594 24.445312 21.328125 24.042969 C 21.761719 23.773438 22.179688 23.480469 22.582031 23.1875 C 23.257812 22.699219 23.882812 22.210938 24.445312 21.839844 C 24.980469 21.484375 25.464844 21.234375 25.878906 21.179688 C 25.890625 21.179688 25.898438 21.179688 25.90625 21.179688 C 26.445312 21.117188 26.753906 21.425781 27.042969 21.8125 C 27.324219 22.1875 27.582031 22.640625 28.109375 22.773438 C 28.363281 22.835938 28.675781 22.753906 28.96875 22.636719 C 29.429688 22.445312 29.769531 22.210938 29.953125 22.058594 C 29.953125 22.058594 29.953125 22.058594 29.960938 22.050781 C 30.089844 22.042969 30.222656 22.035156 30.355469 22.019531 C 30.207031 22.171875 30.113281 22.25 30.113281 22.25 C 30.003906 22.339844 29.558594 22.660156 29.0625 22.863281 C 28.71875 23.007812 28.351562 23.089844 28.050781 23.015625 C 27.460938 22.867188 27.15625 22.378906 26.839844 21.960938 C 26.574219 21.605469 26.300781 21.3125 25.742188 21.464844 C 25.738281 21.464844 25.730469 21.46875 25.722656 21.46875 C 25.390625 21.570312 25.019531 21.792969 24.609375 22.078125 C 24.058594 22.460938 23.449219 22.960938 22.78125 23.457031 C 22.378906 23.757812 21.953125 24.058594 21.515625 24.332031 C 20.84375 24.75 20.132812 25.105469 19.394531 25.3125 C 18.335938 25.613281 17.226562 25.617188 16.085938 25.074219 C 15.089844 24.601562 14.570312 23.726562 14.027344 23.3125 C 13.855469 23.183594 13.683594 23.101562 13.488281 23.109375 Z M 9.824219 24.238281 C 9.714844 24.378906 9.625 24.484375 9.546875 24.5625 C 9.378906 24.71875 9.246094 24.757812 9.140625 24.734375 C 9.070312 24.71875 9.007812 24.675781 8.945312 24.609375 C 8.929688 24.59375 8.914062 24.574219 8.898438 24.554688 C 8.546875 24.886719 8.128906 25.195312 7.707031 25.4375 C 7.875 25.617188 8.035156 25.742188 8.210938 25.824219 C 8.480469 25.945312 8.785156 25.949219 9.195312 25.867188 C 9.890625 25.726562 10.324219 25.386719 10.578125 24.929688 C 10.328125 24.742188 10.074219 24.5 9.824219 24.238281 Z M 7.347656 23.226562 C 7.203125 23.4375 7.042969 23.675781 6.875 23.859375 C 6.585938 24.179688 6.257812 24.347656 5.90625 24.109375 C 5.816406 24.050781 5.738281 23.96875 5.667969 23.871094 C 5.578125 24.265625 5.53125 24.644531 5.523438 24.945312 C 5.519531 25.179688 5.535156 25.363281 5.578125 25.460938 C 5.726562 25.800781 6.117188 25.832031 6.589844 25.707031 C 6.84375 25.640625 7.117188 25.53125 7.394531 25.386719 C 7.351562 25.332031 7.308594 25.28125 7.265625 25.222656 C 7.097656 25 7.035156 24.777344 6.980469 24.515625 C 6.914062 24.183594 7.070312 23.882812 7.289062 23.640625 C 7.414062 23.503906 7.535156 23.402344 7.65625 23.332031 C 7.5625 23.292969 7.460938 23.257812 7.347656 23.226562 Z M 7.886719 23.449219 C 7.738281 23.5 7.589844 23.605469 7.441406 23.769531 C 7.261719 23.96875 7.121094 24.207031 7.179688 24.476562 C 7.226562 24.707031 7.277344 24.90625 7.425781 25.101562 C 7.476562 25.167969 7.523438 25.230469 7.574219 25.285156 C 8 25.042969 8.425781 24.730469 8.78125 24.390625 C 8.757812 24.359375 8.734375 24.324219 8.710938 24.289062 C 8.542969 24.027344 8.3125 23.691406 7.886719 23.449219 Z M 11.246094 24.25 C 11.171875 24.285156 11.09375 24.3125 11.007812 24.339844 C 10.96875 24.527344 10.910156 24.703125 10.835938 24.871094 C 10.957031 24.953125 11.078125 25.015625 11.199219 25.058594 C 11.355469 25.117188 11.53125 25.109375 11.652344 25.046875 C 11.707031 25.015625 11.75 24.972656 11.765625 24.914062 C 11.777344 24.847656 11.757812 24.769531 11.695312 24.675781 C 11.617188 24.550781 11.472656 24.410156 11.246094 24.25 Z M 10.21875 24.355469 C 10.367188 24.5 10.519531 24.636719 10.667969 24.75 C 10.71875 24.632812 10.757812 24.511719 10.789062 24.386719 C 10.613281 24.410156 10.421875 24.40625 10.21875 24.355469 Z M 9.425781 23.96875 C 9.316406 24.121094 9.183594 24.269531 9.039062 24.414062 C 9.046875 24.425781 9.054688 24.433594 9.058594 24.441406 C 9.101562 24.488281 9.136719 24.527344 9.183594 24.539062 C 9.207031 24.542969 9.230469 24.539062 9.261719 24.527344 C 9.304688 24.507812 9.351562 24.46875 9.40625 24.417969 C 9.480469 24.347656 9.566406 24.246094 9.667969 24.113281 C 9.585938 24.066406 9.507812 24.019531 9.425781 23.96875 Z M 8.183594 23.402344 C 8.523438 23.648438 8.726562 23.941406 8.878906 24.179688 L 8.925781 24.246094 C 9.046875 24.121094 9.160156 23.992188 9.257812 23.863281 C 9.0625 23.742188 8.867188 23.621094 8.675781 23.535156 C 8.511719 23.460938 8.347656 23.40625 8.183594 23.402344 Z M 10.234375 23.648438 C 10.136719 23.800781 10.046875 23.929688 9.964844 24.046875 C 10.019531 24.070312 10.070312 24.09375 10.125 24.113281 C 10.378906 24.210938 10.621094 24.21875 10.832031 24.175781 C 10.839844 24.121094 10.847656 24.066406 10.851562 24.007812 C 10.726562 23.9375 10.585938 23.863281 10.429688 23.789062 C 10.363281 23.757812 10.296875 23.710938 10.234375 23.648438 Z M 11.007812 22.308594 C 10.988281 22.355469 10.96875 22.402344 10.945312 22.453125 C 11.03125 22.871094 11.082031 23.292969 11.074219 23.699219 C 11.074219 23.765625 11.070312 23.832031 11.066406 23.898438 C 11.136719 23.941406 11.203125 23.984375 11.265625 24.023438 C 11.425781 23.9375 11.542969 23.847656 11.59375 23.804688 C 11.925781 23.535156 12.113281 23.207031 12.21875 22.851562 C 11.917969 22.691406 11.449219 22.46875 11.007812 22.308594 Z M 7.859375 21.738281 C 7.304688 21.976562 6.753906 22.195312 6.253906 22.351562 C 6.160156 22.492188 6.078125 22.648438 6.003906 22.816406 C 5.894531 23.066406 5.804688 23.335938 5.730469 23.605469 C 5.808594 23.75 5.902344 23.867188 6.019531 23.945312 C 6.175781 24.050781 6.320312 24.035156 6.457031 23.957031 C 6.613281 23.867188 6.761719 23.695312 6.90625 23.507812 C 6.984375 23.402344 7.0625 23.289062 7.136719 23.179688 C 6.789062 23.09375 6.65625 22.828125 6.65625 22.621094 C 6.652344 22.519531 6.6875 22.425781 6.738281 22.371094 C 6.871094 22.222656 7.136719 21.988281 8.089844 22.441406 C 8.179688 22.402344 8.253906 22.363281 8.316406 22.324219 C 8.421875 22.246094 8.480469 22.164062 8.496094 22.070312 C 8.511719 21.980469 8.492188 21.886719 8.453125 21.785156 C 8.238281 21.769531 8.039062 21.753906 7.859375 21.738281 Z M 9.84375 23.027344 C 9.84375 23.042969 9.84375 23.0625 9.839844 23.082031 C 9.816406 23.28125 9.730469 23.492188 9.601562 23.714844 C 9.648438 23.765625 9.699219 23.820312 9.75 23.875 C 9.769531 23.890625 9.785156 23.910156 9.804688 23.929688 C 9.890625 23.804688 9.988281 23.660156 10.097656 23.492188 C 10 23.367188 9.917969 23.214844 9.855469 23.050781 C 9.851562 23.042969 9.847656 23.035156 9.84375 23.027344 Z M 10.796875 22.742188 C 10.730469 22.855469 10.664062 22.976562 10.585938 23.09375 C 10.5 23.234375 10.421875 23.363281 10.34375 23.480469 C 10.398438 23.539062 10.457031 23.582031 10.515625 23.609375 C 10.644531 23.671875 10.761719 23.730469 10.871094 23.789062 C 10.871094 23.757812 10.871094 23.726562 10.871094 23.695312 C 10.878906 23.386719 10.851562 23.0625 10.796875 22.742188 Z M 8.078125 22.65625 C 7.996094 22.6875 7.902344 22.714844 7.796875 22.738281 C 7.753906 22.746094 7.714844 22.777344 7.671875 22.816406 C 7.617188 22.867188 7.5625 22.9375 7.503906 23.015625 C 7.492188 23.027344 7.480469 23.042969 7.472656 23.054688 C 7.636719 23.105469 7.78125 23.164062 7.910156 23.230469 C 7.949219 23.222656 7.988281 23.214844 8.027344 23.210938 C 8.269531 23.179688 8.515625 23.242188 8.757812 23.351562 C 8.917969 23.425781 9.082031 23.523438 9.242188 23.621094 C 8.890625 23.246094 8.5625 22.914062 8.285156 22.761719 C 8.210938 22.722656 8.144531 22.6875 8.078125 22.65625 Z M 8.679688 21.828125 C 8.703125 21.925781 8.710938 22.019531 8.695312 22.105469 C 8.664062 22.273438 8.554688 22.425781 8.316406 22.554688 C 8.335938 22.5625 8.359375 22.574219 8.378906 22.585938 C 8.691406 22.753906 9.0625 23.140625 9.457031 23.5625 C 9.558594 23.386719 9.621094 23.21875 9.640625 23.058594 C 9.652344 22.972656 9.617188 22.882812 9.5625 22.800781 C 9.472656 22.652344 9.328125 22.515625 9.234375 22.417969 C 9.054688 22.234375 8.875 22.019531 8.679688 21.828125 Z M 10.679688 22.203125 C 10.628906 22.1875 10.578125 22.175781 10.53125 22.164062 C 10.394531 22.132812 10.277344 22.113281 10.179688 22.121094 C 10.117188 22.121094 10.066406 22.128906 10.042969 22.167969 C 9.898438 22.382812 9.933594 22.699219 10.042969 22.980469 C 10.089844 23.101562 10.148438 23.214844 10.210938 23.3125 C 10.277344 23.214844 10.34375 23.105469 10.417969 22.992188 C 10.539062 22.796875 10.644531 22.609375 10.734375 22.425781 C 10.71875 22.351562 10.699219 22.277344 10.679688 22.203125 Z M 5.96875 22.433594 C 5.8125 22.476562 5.660156 22.511719 5.515625 22.539062 C 5.515625 22.558594 5.515625 22.578125 5.515625 22.597656 C 5.515625 22.839844 5.546875 23.082031 5.609375 23.300781 C 5.671875 23.105469 5.742188 22.914062 5.820312 22.734375 C 5.867188 22.632812 5.917969 22.53125 5.96875 22.433594 Z M 30.363281 22.832031 C 30.046875 22.777344 29.914062 22.738281 29.882812 22.730469 C 29.78125 22.792969 29.652344 22.855469 29.574219 22.898438 C 30.113281 23.070312 30.683594 23.160156 31.277344 23.160156 C 34.367188 23.160156 36.878906 20.675781 36.878906 17.617188 C 36.878906 14.554688 34.367188 12.070312 31.277344 12.070312 C 28.1875 12.070312 25.675781 14.554688 25.675781 17.617188 C 25.675781 19.722656 26.867188 21.554688 28.617188 22.496094 C 28.714844 22.464844 28.84375 22.414062 28.9375 22.375 C 28.753906 22.285156 28.707031 22.265625 28.476562 22.125 C 28.222656 21.96875 27.980469 21.792969 27.757812 21.597656 C 28.777344 21.882812 30.070312 21.898438 31.371094 21.589844 C 32.648438 21.285156 33.929688 20.664062 34.945312 19.671875 L 34.941406 19.671875 C 34.824219 19.730469 34.703125 19.78125 34.582031 19.832031 C 34.464844 19.882812 34.34375 19.929688 34.222656 19.972656 L 34.21875 19.972656 C 33.34375 20.65625 32.328125 21.105469 31.308594 21.347656 C 29.839844 21.699219 28.371094 21.621094 27.339844 21.191406 C 27.152344 20.992188 26.984375 20.78125 26.832031 20.554688 C 28.484375 21.113281 30.429688 21.117188 32.132812 20.460938 C 31.789062 20.496094 31.453125 20.515625 31.121094 20.511719 C 29.609375 20.867188 27.992188 20.746094 26.617188 20.210938 C 26.488281 19.984375 26.375 19.746094 26.28125 19.5 C 26.78125 19.785156 27.40625 19.957031 28.097656 20.019531 C 28.171875 20.027344 28.242188 20.03125 28.316406 20.035156 C 28 19.925781 27.703125 19.800781 27.421875 19.664062 C 26.929688 19.550781 26.496094 19.375 26.152344 19.121094 C 26.078125 18.875 26.019531 18.621094 25.984375 18.359375 L 25.988281 18.363281 C 26.15625 18.535156 26.339844 18.6875 26.527344 18.832031 C 26.679688 18.945312 26.839844 19.050781 27.003906 19.152344 C 27.234375 19.292969 27.476562 19.417969 27.722656 19.53125 C 28.011719 19.664062 28.304688 19.777344 28.605469 19.871094 C 29.003906 19.996094 29.410156 20.09375 29.824219 20.15625 C 30.550781 20.273438 31.292969 20.292969 32.023438 20.222656 C 32.355469 20.1875 32.6875 20.136719 33.015625 20.0625 C 33.328125 19.996094 33.636719 19.90625 33.941406 19.804688 C 34.457031 19.628906 34.960938 19.40625 35.433594 19.136719 C 35.683594 19 35.925781 18.847656 36.160156 18.6875 C 36.296875 18.59375 36.429688 18.496094 36.5625 18.398438 L 36.566406 18.394531 C 36.519531 18.695312 36.449219 18.992188 36.355469 19.277344 C 36.078125 19.34375 35.808594 19.386719 35.542969 19.410156 C 35.464844 19.5 35.386719 19.585938 35.304688 19.671875 C 35.613281 19.664062 35.929688 19.625 36.253906 19.554688 C 36.21875 19.644531 36.179688 19.734375 36.136719 19.824219 C 35.785156 19.871094 35.433594 19.890625 35.089844 19.882812 C 35.007812 19.96875 34.917969 20.046875 34.828125 20.125 C 35.214844 20.144531 35.605469 20.132812 36.003906 20.089844 C 35.929688 20.230469 35.84375 20.371094 35.757812 20.503906 C 35.386719 20.550781 35.023438 20.570312 34.664062 20.566406 C 34.628906 20.648438 34.59375 20.730469 34.558594 20.8125 C 34.890625 20.820312 35.226562 20.808594 35.566406 20.777344 C 35.460938 20.914062 35.351562 21.046875 35.234375 21.171875 C 34.949219 21.183594 34.667969 21.183594 34.390625 21.171875 C 34.351562 21.25 34.3125 21.328125 34.273438 21.402344 C 34.269531 21.40625 34.265625 21.410156 34.265625 21.414062 C 34.5 21.425781 34.742188 21.429688 34.984375 21.425781 C 34.863281 21.542969 34.734375 21.65625 34.601562 21.757812 C 34.417969 21.765625 34.238281 21.769531 34.058594 21.769531 C 34.003906 21.855469 33.949219 21.9375 33.894531 22.015625 C 34.007812 22.019531 34.128906 22.019531 34.246094 22.015625 C 33.875 22.261719 33.476562 22.460938 33.050781 22.609375 C 33.402344 22.292969 33.746094 21.839844 34.046875 21.28125 C 34.1875 21.023438 34.320312 20.738281 34.441406 20.441406 C 34.3125 20.535156 34.183594 20.625 34.050781 20.714844 C 33.773438 21.320312 33.445312 21.835938 33.097656 22.210938 C 32.820312 22.515625 32.535156 22.726562 32.257812 22.820312 C 32.121094 22.84375 31.976562 22.867188 31.835938 22.878906 C 32.382812 22.355469 32.804688 21.804688 33.128906 21.234375 C 32.996094 21.296875 32.863281 21.355469 32.726562 21.414062 C 32.398438 21.929688 31.972656 22.433594 31.4375 22.90625 C 31.386719 22.90625 31.332031 22.910156 31.277344 22.910156 C 31.074219 22.910156 30.875 22.898438 30.679688 22.875 C 30.886719 22.671875 31.234375 22.304688 31.59375 21.792969 C 31.539062 21.808594 31.484375 21.820312 31.429688 21.832031 C 31.359375 21.851562 31.289062 21.867188 31.21875 21.882812 C 30.828125 22.394531 30.484375 22.722656 30.363281 22.832031 Z M 15.800781 21.898438 C 15.441406 22.148438 15.058594 22.324219 14.722656 22.394531 C 14.664062 22.496094 14.570312 22.601562 14.449219 22.695312 C 14.339844 22.777344 14.210938 22.855469 14.066406 22.921875 C 14.363281 23.042969 14.625 23.058594 14.847656 23.015625 C 15.25 22.941406 15.523438 22.667969 15.664062 22.476562 C 15.773438 22.328125 15.832031 22.132812 15.800781 21.898438 Z M 7.804688 22.53125 C 7.617188 22.453125 7.464844 22.40625 7.339844 22.386719 C 7.066406 22.34375 6.953125 22.429688 6.886719 22.503906 C 6.863281 22.527344 6.855469 22.574219 6.855469 22.621094 C 6.859375 22.765625 6.960938 22.941406 7.214844 22.992188 C 7.230469 22.996094 7.246094 23 7.261719 23 C 7.3125 22.933594 7.359375 22.871094 7.40625 22.8125 C 7.523438 22.667969 7.644531 22.570312 7.75 22.542969 C 7.769531 22.539062 7.785156 22.535156 7.804688 22.53125 Z M 13.007812 21.023438 C 12.859375 21.105469 12.707031 21.1875 12.550781 21.261719 C 12.558594 21.664062 12.566406 22.097656 12.5 22.515625 C 12.488281 22.59375 12.472656 22.671875 12.453125 22.75 C 12.503906 22.78125 12.542969 22.804688 12.574219 22.824219 C 12.75 22.9375 12.988281 22.96875 13.238281 22.945312 C 13.347656 22.9375 13.457031 22.917969 13.566406 22.890625 C 12.917969 22.476562 12.695312 21.929688 12.683594 21.746094 C 12.667969 21.46875 12.804688 21.214844 13.007812 21.023438 Z M 14.199219 20.953125 C 14.0625 20.820312 13.828125 20.824219 13.597656 20.898438 C 13.230469 21.019531 12.859375 21.34375 12.886719 21.730469 C 12.894531 21.910156 13.144531 22.4375 13.824219 22.808594 C 14.015625 22.738281 14.191406 22.640625 14.324219 22.539062 C 14.371094 22.5 14.414062 22.464844 14.453125 22.425781 C 14.136719 22.4375 13.890625 22.332031 13.769531 22.097656 C 13.722656 22.007812 13.734375 21.921875 13.789062 21.832031 C 13.828125 21.769531 13.894531 21.703125 13.980469 21.632812 C 14.046875 21.582031 14.125 21.523438 14.203125 21.457031 C 14.203125 21.417969 14.199219 21.375 14.203125 21.335938 C 14.203125 21.21875 14.214844 21.105469 14.207031 21.019531 C 14.207031 20.992188 14.199219 20.960938 14.199219 20.953125 Z M 10.53125 21.679688 C 10.476562 21.691406 10.425781 21.703125 10.371094 21.714844 C 9.921875 21.800781 9.414062 21.816406 8.9375 21.804688 C 9.089844 21.964844 9.234375 22.132812 9.378906 22.28125 C 9.484375 22.382812 9.636719 22.535156 9.734375 22.695312 C 9.75 22.71875 9.761719 22.738281 9.769531 22.757812 C 9.722656 22.503906 9.746094 22.25 9.875 22.058594 C 9.917969 21.988281 9.996094 21.945312 10.101562 21.929688 C 10.222656 21.910156 10.386719 21.925781 10.578125 21.96875 C 10.589844 21.972656 10.605469 21.976562 10.621094 21.980469 C 10.59375 21.878906 10.5625 21.777344 10.53125 21.679688 Z M 12.351562 21.355469 C 12.339844 21.359375 12.328125 21.367188 12.316406 21.371094 C 11.9375 21.539062 11.5625 21.648438 11.230469 21.652344 C 11.199219 21.804688 11.148438 21.960938 11.085938 22.125 C 11.511719 22.28125 11.960938 22.492188 12.269531 22.652344 C 12.28125 22.597656 12.292969 22.539062 12.300781 22.484375 C 12.359375 22.109375 12.355469 21.722656 12.351562 21.355469 Z M 6.035156 21.0625 C 5.601562 20.964844 5.125 20.789062 4.601562 20.507812 C 4.480469 20.445312 4.394531 20.425781 4.328125 20.464844 C 4.257812 20.503906 4.222656 20.589844 4.199219 20.695312 C 4.101562 21.085938 4.207031 21.722656 4.242188 21.910156 C 4.320312 22.316406 4.671875 22.425781 5.167969 22.386719 C 5.214844 22.382812 5.269531 22.375 5.320312 22.367188 C 5.339844 22.082031 5.402344 21.8125 5.503906 21.59375 C 5.597656 21.398438 5.722656 21.242188 5.878906 21.15625 C 5.933594 21.125 5.988281 21.09375 6.035156 21.0625 Z M 6.324219 21.117188 C 6.222656 21.183594 6.109375 21.253906 5.980469 21.328125 C 5.855469 21.398438 5.761719 21.523438 5.6875 21.679688 C 5.601562 21.863281 5.546875 22.09375 5.523438 22.335938 C 5.710938 22.300781 5.914062 22.25 6.121094 22.183594 C 6.207031 22.058594 6.296875 21.949219 6.398438 21.851562 C 6.636719 21.617188 6.917969 21.480469 7.238281 21.492188 C 7.371094 21.496094 7.578125 21.515625 7.832031 21.539062 C 7.921875 21.5 8.011719 21.460938 8.101562 21.417969 C 7.914062 21.320312 7.703125 21.222656 7.476562 21.121094 C 7.128906 21.171875 6.746094 21.183594 6.324219 21.117188 Z M 14.238281 21.683594 C 14.140625 21.761719 14.050781 21.832031 13.992188 21.894531 C 13.957031 21.933594 13.929688 21.964844 13.949219 22.007812 C 14.015625 22.132812 14.136719 22.199219 14.289062 22.21875 C 14.378906 22.234375 14.472656 22.230469 14.578125 22.214844 C 14.582031 22.195312 14.582031 22.175781 14.582031 22.152344 C 14.578125 22.074219 14.523438 22 14.417969 21.933594 C 14.328125 21.875 14.273438 21.785156 14.238281 21.683594 Z M 14.957031 20.730469 C 14.867188 21.09375 14.640625 21.34375 14.414062 21.539062 L 14.417969 21.558594 C 14.429688 21.644531 14.460938 21.722656 14.527344 21.765625 C 14.699219 21.878906 14.773438 22.007812 14.78125 22.140625 C 14.785156 22.152344 14.785156 22.160156 14.785156 22.171875 C 14.824219 22.164062 14.867188 22.148438 14.90625 22.136719 C 15.179688 22.046875 15.476562 21.890625 15.75 21.695312 C 15.648438 21.40625 15.40625 21.078125 14.957031 20.730469 Z M 7.441406 21.703125 C 7.359375 21.695312 7.289062 21.691406 7.234375 21.691406 C 6.96875 21.683594 6.738281 21.800781 6.539062 21.996094 C 6.511719 22.019531 6.484375 22.046875 6.460938 22.078125 C 6.773438 21.96875 7.105469 21.839844 7.441406 21.703125 Z M 10.8125 21.597656 C 10.785156 21.609375 10.753906 21.617188 10.722656 21.628906 C 10.769531 21.761719 10.808594 21.902344 10.847656 22.042969 C 10.863281 22.050781 10.878906 22.054688 10.894531 22.058594 C 10.953125 21.914062 10.996094 21.773438 11.027344 21.640625 C 11.003906 21.636719 10.980469 21.632812 10.953125 21.628906 C 10.90625 21.617188 10.859375 21.609375 10.8125 21.597656 Z M 9.351562 21.074219 C 9.085938 21.195312 8.8125 21.320312 8.53125 21.445312 C 8.597656 21.492188 8.660156 21.542969 8.722656 21.601562 C 9.25 21.621094 9.828125 21.617188 10.332031 21.519531 C 10.359375 21.511719 10.386719 21.507812 10.417969 21.5 C 10.007812 21.390625 9.648438 21.257812 9.367188 21.085938 Z M 8.316406 21.539062 L 8.246094 21.570312 L 8.351562 21.578125 Z M 14.984375 20.273438 C 14.992188 20.355469 14.992188 20.433594 14.988281 20.503906 C 15.5 20.878906 15.78125 21.242188 15.914062 21.566406 C 16.113281 21.40625 16.296875 21.222656 16.445312 21.023438 C 16.019531 20.980469 15.625 20.730469 15.226562 20.445312 C 15.144531 20.390625 15.066406 20.332031 14.984375 20.273438 Z M 10.671875 19.101562 C 10.65625 19.167969 10.644531 19.234375 10.644531 19.300781 C 10.644531 19.441406 10.601562 19.542969 10.527344 19.609375 C 10.457031 19.675781 10.355469 19.714844 10.226562 19.726562 C 10.109375 19.734375 9.960938 19.714844 9.796875 19.675781 C 9.855469 19.761719 9.910156 19.847656 9.964844 19.933594 C 10.230469 19.867188 10.472656 19.886719 10.707031 20.050781 C 10.78125 20.101562 10.847656 20.15625 10.90625 20.214844 C 10.988281 20.191406 11.0625 20.167969 11.132812 20.148438 C 11.320312 20.101562 11.476562 20.082031 11.582031 20.101562 C 11.660156 20.117188 11.71875 20.148438 11.757812 20.191406 C 11.800781 20.238281 11.824219 20.304688 11.824219 20.386719 C 11.808594 20.835938 11.601562 21.15625 11.277344 21.371094 C 11.273438 21.398438 11.273438 21.425781 11.269531 21.453125 C 11.597656 21.441406 11.972656 21.3125 12.347656 21.136719 C 12.347656 21.082031 12.347656 21.03125 12.347656 20.976562 C 12.351562 20.65625 12.367188 20.363281 12.445312 20.128906 C 11.847656 19.878906 11.238281 19.507812 10.671875 19.101562 Z M 10.84375 20.449219 C 10.691406 20.5 10.523438 20.566406 10.34375 20.644531 C 10.441406 20.859375 10.539062 21.097656 10.628906 21.351562 C 10.6875 21.363281 10.742188 21.378906 10.800781 21.390625 C 10.902344 21.351562 10.996094 21.308594 11.085938 21.257812 C 11.097656 20.941406 11.023438 20.667969 10.84375 20.449219 Z M 10.15625 20.722656 C 9.972656 20.800781 9.777344 20.886719 9.578125 20.976562 C 9.808594 21.101562 10.085938 21.203125 10.394531 21.289062 C 10.316406 21.085938 10.238281 20.898438 10.15625 20.722656 Z M 8.886719 20.644531 C 8.660156 20.753906 8.417969 20.867188 8.148438 20.957031 C 8.238281 21.066406 8.324219 21.179688 8.398438 21.289062 C 8.660156 21.171875 8.917969 21.054688 9.164062 20.941406 C 9.054688 20.851562 8.960938 20.753906 8.886719 20.644531 Z M 14.210938 20.308594 C 14.019531 20.421875 13.796875 20.558594 13.558594 20.703125 C 13.863281 20.605469 14.167969 20.636719 14.347656 20.816406 C 14.371094 20.84375 14.390625 20.882812 14.402344 20.929688 C 14.414062 21 14.410156 21.105469 14.40625 21.222656 C 14.40625 21.242188 14.40625 21.257812 14.402344 21.277344 C 14.574219 21.105469 14.726562 20.890625 14.773438 20.597656 C 14.613281 20.496094 14.417969 20.402344 14.210938 20.308594 Z M 7.945312 21.019531 C 7.898438 21.03125 7.855469 21.042969 7.808594 21.054688 C 7.898438 21.097656 7.988281 21.136719 8.070312 21.179688 C 8.03125 21.125 7.988281 21.074219 7.945312 21.019531 Z M 11.285156 21.113281 C 11.488281 20.9375 11.613281 20.699219 11.621094 20.378906 C 11.621094 20.359375 11.621094 20.34375 11.613281 20.328125 C 11.601562 20.3125 11.582031 20.304688 11.558594 20.300781 C 11.527344 20.292969 11.492188 20.292969 11.453125 20.292969 C 11.34375 20.300781 11.207031 20.332031 11.046875 20.378906 C 11.195312 20.589844 11.277344 20.835938 11.285156 21.113281 Z M 12.632812 20.203125 C 12.566406 20.417969 12.550781 20.6875 12.550781 20.976562 C 12.550781 21 12.550781 21.019531 12.550781 21.042969 C 12.945312 20.84375 13.339844 20.601562 13.683594 20.394531 C 13.550781 20.417969 13.429688 20.417969 13.316406 20.398438 C 13.09375 20.355469 12.867188 20.289062 12.632812 20.203125 Z M 6.742188 20.789062 C 6.691406 20.839844 6.632812 20.890625 6.566406 20.941406 C 6.753906 20.960938 6.9375 20.964844 7.109375 20.953125 C 6.988281 20.902344 6.867188 20.847656 6.742188 20.789062 Z M 7.597656 18.769531 C 7.582031 18.769531 7.566406 18.773438 7.546875 18.773438 C 7.308594 18.785156 7.046875 18.738281 6.816406 18.707031 C 6.675781 18.6875 6.546875 18.671875 6.4375 18.683594 C 6.378906 18.691406 6.324219 18.703125 6.289062 18.738281 C 6.25 18.773438 6.230469 18.824219 6.226562 18.898438 C 6.210938 19.046875 6.277344 19.171875 6.367188 19.289062 C 6.472656 19.421875 6.609375 19.542969 6.730469 19.664062 C 6.894531 19.832031 7.027344 20.003906 7.042969 20.203125 C 7.050781 20.332031 7.007812 20.476562 6.882812 20.636719 C 7.09375 20.730469 7.300781 20.824219 7.5 20.910156 C 7.605469 20.894531 7.707031 20.871094 7.804688 20.847656 C 7.550781 20.53125 7.304688 20.203125 7.183594 19.894531 C 7.09375 19.65625 7.078125 19.421875 7.175781 19.207031 C 7.246094 19.054688 7.378906 18.90625 7.597656 18.769531 Z M 9.871094 20.167969 C 9.644531 20.25 9.394531 20.382812 9.117188 20.527344 C 9.101562 20.535156 9.085938 20.542969 9.066406 20.554688 C 9.144531 20.664062 9.25 20.761719 9.371094 20.847656 C 9.617188 20.738281 9.851562 20.632812 10.070312 20.539062 C 10.011719 20.417969 9.945312 20.292969 9.871094 20.167969 Z M 15.738281 19.359375 C 15.453125 19.527344 15.144531 19.722656 14.84375 19.898438 C 14.855469 19.902344 14.863281 19.910156 14.875 19.917969 C 14.898438 19.9375 14.917969 19.960938 14.933594 19.992188 C 15.070312 20.089844 15.207031 20.1875 15.34375 20.285156 C 15.746094 20.574219 16.140625 20.835938 16.578125 20.828125 C 16.644531 20.714844 16.703125 20.601562 16.746094 20.484375 C 16.792969 20.359375 16.804688 20.265625 16.78125 20.191406 C 16.757812 20.109375 16.695312 20.054688 16.617188 20.007812 C 16.515625 19.941406 16.390625 19.890625 16.257812 19.828125 C 15.996094 19.703125 15.835938 19.542969 15.742188 19.371094 Z M 17.28125 18.859375 C 17.257812 18.867188 17.234375 18.871094 17.207031 18.878906 C 16.941406 18.941406 16.632812 18.949219 16.355469 19.054688 C 16.21875 19.105469 16.070312 19.175781 15.914062 19.261719 C 15.992188 19.410156 16.125 19.542969 16.347656 19.648438 C 16.484375 19.714844 16.617188 19.769531 16.722656 19.835938 C 16.851562 19.917969 16.941406 20.011719 16.976562 20.140625 C 17.007812 20.246094 17 20.378906 16.933594 20.554688 C 16.90625 20.632812 16.867188 20.714844 16.828125 20.792969 C 17.007812 20.746094 17.195312 20.648438 17.394531 20.492188 C 17.726562 20.222656 17.777344 19.894531 17.652344 19.523438 C 17.578125 19.3125 17.449219 19.089844 17.28125 18.859375 Z M 7.957031 18.808594 C 7.628906 18.949219 7.441406 19.113281 7.359375 19.292969 C 7.261719 19.503906 7.320312 19.734375 7.441406 19.972656 C 7.574219 20.238281 7.789062 20.507812 8.003906 20.773438 L 8.015625 20.789062 C 8.296875 20.699219 8.554688 20.585938 8.789062 20.46875 C 8.726562 20.324219 8.695312 20.164062 8.699219 19.984375 C 8.703125 19.78125 8.753906 19.554688 8.859375 19.308594 C 8.5625 19.164062 8.253906 18.988281 7.957031 18.808594 Z M 6.53125 16.601562 C 6.273438 16.46875 6.019531 16.398438 5.796875 16.464844 C 5.625 16.511719 5.46875 16.632812 5.332031 16.777344 C 5.113281 17.011719 4.941406 17.316406 4.824219 17.546875 C 4.601562 17.996094 4.546875 18.382812 4.617188 18.71875 C 4.722656 19.226562 5.113281 19.625 5.613281 19.957031 C 5.941406 20.179688 6.316406 20.371094 6.695312 20.550781 C 6.804688 20.421875 6.847656 20.316406 6.839844 20.214844 C 6.832031 20.0625 6.714844 19.933594 6.585938 19.804688 C 6.460938 19.675781 6.316406 19.550781 6.207031 19.410156 C 6.085938 19.253906 6.007812 19.082031 6.023438 18.882812 C 6.035156 18.746094 6.082031 18.65625 6.152344 18.59375 C 6.21875 18.53125 6.308594 18.496094 6.417969 18.484375 C 6.539062 18.472656 6.683594 18.488281 6.84375 18.507812 C 7.0625 18.539062 7.308594 18.585938 7.539062 18.574219 C 7.558594 18.574219 7.574219 18.570312 7.59375 18.570312 C 7.367188 18.417969 7.160156 18.265625 6.980469 18.121094 C 6.660156 17.863281 6.4375 17.625 6.371094 17.46875 C 6.246094 17.167969 6.320312 16.902344 6.472656 16.679688 C 6.492188 16.652344 6.511719 16.625 6.53125 16.601562 Z M 10.691406 20.289062 C 10.660156 20.265625 10.628906 20.238281 10.59375 20.214844 C 10.425781 20.097656 10.257812 20.078125 10.070312 20.113281 C 10.136719 20.230469 10.199219 20.347656 10.257812 20.460938 C 10.410156 20.398438 10.558594 20.339844 10.691406 20.289062 Z M 9.039062 19.394531 C 8.949219 19.609375 8.902344 19.808594 8.898438 19.988281 C 8.898438 20.132812 8.921875 20.261719 8.972656 20.378906 C 8.988281 20.371094 9.007812 20.359375 9.023438 20.351562 C 9.296875 20.210938 9.539062 20.078125 9.765625 19.996094 C 9.679688 19.855469 9.585938 19.71875 9.492188 19.582031 C 9.347656 19.53125 9.195312 19.464844 9.039062 19.394531 Z M 14.707031 20.078125 C 14.6875 20.082031 14.664062 20.089844 14.640625 20.097656 C 14.613281 20.105469 14.578125 20.121094 14.542969 20.136719 C 14.507812 20.152344 14.46875 20.171875 14.425781 20.191406 C 14.554688 20.25 14.675781 20.3125 14.789062 20.375 C 14.785156 20.292969 14.777344 20.207031 14.757812 20.113281 L 14.746094 20.105469 C 14.738281 20.101562 14.730469 20.09375 14.71875 20.089844 Z M 13.195312 19.703125 C 13.144531 19.714844 13.09375 19.734375 13.042969 19.75 C 12.890625 19.808594 12.785156 19.902344 12.714844 20.019531 C 12.933594 20.101562 13.144531 20.164062 13.355469 20.203125 C 13.507812 20.230469 13.679688 20.207031 13.867188 20.148438 C 13.734375 20.082031 13.609375 20.015625 13.488281 19.9375 C 13.382812 19.867188 13.28125 19.789062 13.195312 19.703125 Z M 14.417969 19.90625 L 14.40625 19.898438 C 14.109375 19.738281 13.792969 19.632812 13.445312 19.660156 C 13.496094 19.699219 13.546875 19.734375 13.601562 19.769531 C 13.761719 19.875 13.941406 19.964844 14.121094 20.050781 C 14.21875 20.007812 14.316406 19.957031 14.417969 19.90625 Z M 29.859375 12.511719 C 30.089844 12.441406 30.300781 12.40625 30.53125 12.375 C 32.027344 14.191406 32.613281 15.855469 32.699219 17.300781 C 32.722656 17.710938 32.707031 18.105469 32.660156 18.476562 C 32.75 18.421875 32.839844 18.363281 32.929688 18.304688 C 32.960938 17.980469 32.96875 17.640625 32.949219 17.289062 C 32.863281 15.832031 32.289062 14.160156 30.824219 12.339844 C 30.894531 12.332031 31.105469 12.324219 31.21875 12.324219 C 31.34375 12.320312 31.558594 12.328125 31.664062 12.335938 C 32.132812 12.722656 32.882812 13.878906 33.339844 15.371094 C 33.558594 16.074219 33.707031 16.851562 33.730469 17.660156 C 33.8125 17.578125 33.894531 17.492188 33.96875 17.40625 C 33.925781 16.664062 33.78125 15.949219 33.582031 15.296875 C 33.175781 13.980469 32.542969 12.914062 32.0625 12.378906 C 32.359375 12.421875 32.644531 12.488281 32.925781 12.578125 C 33.015625 12.609375 33.085938 12.632812 33.175781 12.667969 C 33.265625 12.699219 33.351562 12.734375 33.4375 12.773438 C 34.195312 13.804688 34.597656 14.941406 34.746094 16.070312 C 34.8125 15.871094 34.863281 15.660156 34.894531 15.445312 C 34.71875 14.609375 34.398438 13.78125 33.898438 13 C 34.042969 13.082031 34.183594 13.167969 34.320312 13.261719 C 34.394531 13.3125 34.480469 13.378906 34.492188 13.386719 C 34.691406 13.535156 34.878906 13.699219 35.058594 13.871094 C 35.660156 16.40625 34.066406 18.183594 32.011719 19.09375 C 31.371094 19.375 30.6875 19.578125 30.007812 19.691406 C 30.28125 19.726562 30.558594 19.753906 30.84375 19.765625 C 31.273438 19.648438 31.703125 19.503906 32.113281 19.320312 C 34.164062 18.414062 35.761719 16.675781 35.382812 14.222656 C 35.625 14.511719 35.835938 14.824219 36.015625 15.160156 C 35.707031 17.105469 34.777344 18.503906 33.546875 19.40625 C 33.777344 19.335938 34.011719 19.253906 34.246094 19.15625 C 35.179688 18.289062 35.886719 17.097656 36.199219 15.546875 C 36.328125 15.847656 36.433594 16.167969 36.503906 16.496094 C 36.3125 17.222656 36.019531 17.859375 35.65625 18.421875 C 35.820312 18.3125 35.988281 18.199219 36.152344 18.078125 C 36.320312 17.761719 36.46875 17.421875 36.59375 17.058594 C 36.613281 17.242188 36.625 17.425781 36.625 17.617188 C 36.625 17.765625 36.617188 17.914062 36.605469 18.0625 C 36.585938 18.066406 36.570312 18.074219 36.554688 18.085938 C 32.464844 21.324219 27.597656 19.941406 25.941406 17.941406 C 25.933594 17.832031 25.929688 17.726562 25.929688 17.617188 C 25.929688 17.527344 25.933594 17.441406 25.9375 17.355469 C 25.96875 17.464844 26.007812 17.578125 26.050781 17.6875 C 26.074219 17.707031 26.09375 17.726562 26.113281 17.753906 C 26.25 17.917969 26.40625 18.082031 26.585938 18.238281 C 26.261719 17.667969 26.078125 17.082031 26.046875 16.511719 C 26.097656 16.289062 26.15625 16.070312 26.234375 15.859375 C 26.371094 16.621094 26.746094 17.414062 27.328125 18.152344 C 27.355469 18.054688 27.386719 17.957031 27.414062 17.855469 C 26.816406 17.050781 26.472656 16.1875 26.429688 15.386719 C 26.574219 15.078125 26.746094 14.785156 26.949219 14.511719 C 27.011719 15.289062 27.304688 16.109375 27.78125 16.886719 C 27.820312 16.792969 27.863281 16.703125 27.90625 16.613281 C 27.449219 15.820312 27.191406 14.988281 27.183594 14.210938 C 27.363281 14.003906 27.554688 13.808594 27.761719 13.628906 C 27.75 14.371094 27.941406 15.144531 28.304688 15.882812 C 28.355469 15.800781 28.40625 15.714844 28.460938 15.632812 C 28.128906 14.902344 27.964844 14.140625 28.023438 13.417969 C 28.308594 13.199219 28.613281 13.011719 28.941406 12.855469 C 28.894531 13.136719 28.90625 13.484375 28.976562 13.867188 C 29.023438 14.121094 29.097656 14.390625 29.191406 14.671875 C 29.257812 14.601562 29.320312 14.53125 29.386719 14.460938 C 29.316406 14.238281 29.261719 14.027344 29.226562 13.824219 C 29.144531 13.386719 29.140625 13.007812 29.226562 12.726562 C 29.347656 12.675781 29.472656 12.628906 29.601562 12.589844 C 31.488281 14.914062 31.929688 16.894531 31.769531 18.4375 C 31.75 18.617188 31.722656 18.789062 31.6875 18.957031 C 31.761719 18.925781 31.835938 18.894531 31.90625 18.863281 C 31.925781 18.855469 31.945312 18.847656 31.964844 18.835938 C 31.988281 18.714844 32.003906 18.589844 32.015625 18.460938 C 32.179688 16.890625 31.75 14.875 29.859375 12.511719 Z M 12.003906 17.792969 C 11.957031 17.792969 11.914062 17.796875 11.875 17.800781 C 11.738281 17.8125 11.5625 17.835938 11.367188 17.875 C 11.351562 17.902344 11.335938 17.929688 11.316406 17.953125 C 11.132812 18.253906 10.925781 18.542969 10.785156 18.816406 C 10.773438 18.847656 10.757812 18.875 10.742188 18.90625 C 11.308594 19.320312 11.921875 19.699219 12.523438 19.945312 C 12.621094 19.773438 12.761719 19.644531 12.972656 19.566406 C 13 19.554688 13.023438 19.546875 13.050781 19.539062 C 12.980469 19.441406 12.929688 19.335938 12.894531 19.222656 C 12.875 19.148438 12.859375 19.070312 12.855469 18.988281 C 12.179688 19.175781 11.726562 19.21875 11.453125 19.171875 C 11.152344 19.117188 11.039062 18.960938 11.054688 18.769531 C 11.066406 18.589844 11.21875 18.355469 11.492188 18.132812 C 11.632812 18.015625 11.804688 17.898438 12.003906 17.792969 Z M 15.523438 17.46875 C 15.265625 17.558594 15.007812 17.613281 14.761719 17.621094 C 14.992188 18.191406 15.09375 18.546875 15.109375 18.746094 C 15.121094 18.890625 15.085938 18.976562 15.039062 19.023438 C 14.984375 19.074219 14.90625 19.09375 14.804688 19.066406 C 14.707031 19.042969 14.582031 18.972656 14.4375 18.882812 C 14.289062 18.789062 14.117188 18.671875 13.949219 18.566406 C 13.859375 18.632812 13.726562 18.703125 13.53125 18.773438 C 13.363281 18.832031 13.203125 18.882812 13.054688 18.929688 C 13.054688 19.015625 13.066406 19.09375 13.089844 19.164062 C 13.125 19.285156 13.183594 19.390625 13.261719 19.484375 C 13.71875 19.394531 14.125 19.519531 14.503906 19.722656 C 14.542969 19.746094 14.585938 19.769531 14.625 19.792969 C 14.972656 19.597656 15.332031 19.367188 15.664062 19.175781 C 15.605469 18.972656 15.613281 18.753906 15.636719 18.53125 C 15.660156 18.3125 15.699219 18.089844 15.6875 17.890625 C 15.679688 17.730469 15.640625 17.585938 15.523438 17.46875 Z M 9.738281 18.355469 C 9.550781 18.566406 9.398438 18.769531 9.273438 18.957031 C 9.394531 19.105469 9.507812 19.257812 9.617188 19.414062 C 9.664062 19.429688 9.707031 19.441406 9.75 19.453125 C 9.929688 19.507812 10.089844 19.535156 10.214844 19.527344 C 10.289062 19.519531 10.347656 19.503906 10.390625 19.464844 C 10.429688 19.429688 10.445312 19.375 10.445312 19.304688 C 10.445312 19.195312 10.464844 19.085938 10.503906 18.972656 C 10.230469 18.769531 9.972656 18.558594 9.738281 18.355469 Z M 31.304688 16.1875 C 31.332031 16.292969 31.359375 16.394531 31.382812 16.492188 C 30.777344 17.320312 30.332031 18.273438 30.054688 19.191406 C 30.03125 19.273438 30.007812 19.355469 29.984375 19.4375 C 29.894531 19.453125 29.804688 19.46875 29.714844 19.480469 C 29.746094 19.359375 29.777344 19.242188 29.816406 19.121094 C 30.117188 18.113281 30.617188 17.074219 31.304688 16.1875 Z M 28.707031 19.390625 C 28.625 19.363281 28.542969 19.335938 28.464844 19.304688 C 28.738281 17.652344 29.546875 16.089844 30.816406 14.925781 C 30.855469 15.003906 30.894531 15.082031 30.929688 15.164062 C 29.722656 16.292969 28.960938 17.796875 28.707031 19.390625 Z M 9.164062 19.140625 C 9.152344 19.164062 9.136719 19.191406 9.125 19.214844 C 9.175781 19.238281 9.222656 19.257812 9.273438 19.28125 C 9.238281 19.234375 9.199219 19.1875 9.164062 19.140625 Z M 8.679688 18.554688 C 8.488281 18.613281 8.324219 18.667969 8.191406 18.714844 C 8.441406 18.867188 8.699219 19.007812 8.945312 19.128906 C 8.972656 19.078125 9 19.027344 9.03125 18.972656 C 8.917969 18.832031 8.800781 18.691406 8.679688 18.554688 Z M 15.878906 17.332031 C 15.847656 17.34375 15.8125 17.359375 15.78125 17.375 C 15.761719 17.378906 15.746094 17.386719 15.726562 17.394531 C 15.914062 17.632812 15.90625 17.949219 15.867188 18.285156 C 15.839844 18.546875 15.789062 18.824219 15.84375 19.074219 C 16 18.988281 16.148438 18.917969 16.285156 18.867188 C 16.503906 18.785156 16.738281 18.757812 16.957031 18.722656 C 17.027344 18.710938 17.089844 18.703125 17.152344 18.6875 C 17.03125 18.535156 16.894531 18.375 16.75 18.214844 C 16.484375 17.925781 16.1875 17.628906 15.878906 17.332031 Z M 12.429688 17.816406 C 12.101562 17.949219 11.824219 18.113281 11.621094 18.285156 C 11.402344 18.460938 11.265625 18.640625 11.253906 18.785156 C 11.246094 18.882812 11.328125 18.945312 11.488281 18.976562 C 11.753906 19.023438 12.195312 18.972656 12.859375 18.777344 C 12.871094 18.683594 12.890625 18.585938 12.921875 18.480469 C 12.96875 18.316406 13.050781 18.222656 13.148438 18.171875 C 13.246094 18.117188 13.363281 18.109375 13.492188 18.140625 C 13.617188 18.167969 13.757812 18.230469 13.898438 18.308594 C 13.898438 18.289062 13.886719 18.273438 13.871094 18.253906 C 13.84375 18.222656 13.804688 18.195312 13.757812 18.167969 C 13.472656 17.996094 12.90625 17.867188 12.429688 17.816406 Z M 27.664062 18.957031 C 27.582031 18.914062 27.507812 18.875 27.429688 18.832031 C 27.511719 18.425781 27.621094 18.011719 27.769531 17.597656 C 28.242188 16.273438 29.070312 14.960938 30.285156 13.972656 C 30.332031 14.046875 30.375 14.117188 30.417969 14.1875 C 29.253906 15.144531 28.460938 16.40625 28.007812 17.679688 C 27.855469 18.109375 27.738281 18.539062 27.664062 18.957031 Z M 14.542969 17.621094 C 14.484375 17.617188 14.429688 17.609375 14.371094 17.597656 C 13.832031 17.503906 13.304688 17.550781 12.84375 17.679688 C 13.242188 17.75 13.636719 17.863281 13.863281 17.996094 C 14.015625 18.085938 14.09375 18.195312 14.101562 18.300781 C 14.101562 18.335938 14.09375 18.375 14.078125 18.414062 C 14.242188 18.515625 14.402344 18.625 14.546875 18.714844 C 14.660156 18.789062 14.765625 18.847656 14.84375 18.871094 C 14.863281 18.875 14.890625 18.878906 14.898438 18.878906 C 14.898438 18.875 14.90625 18.863281 14.90625 18.855469 C 14.910156 18.832031 14.910156 18.800781 14.910156 18.761719 C 14.894531 18.5625 14.78125 18.207031 14.542969 17.621094 Z M 9.503906 18.316406 C 9.289062 18.375 9.082031 18.433594 8.890625 18.492188 C 8.976562 18.589844 9.0625 18.691406 9.144531 18.792969 C 9.246094 18.640625 9.363281 18.484375 9.503906 18.316406 Z M 11.097656 17.925781 C 10.726562 18.003906 10.300781 18.105469 9.882812 18.214844 C 10.097656 18.40625 10.332031 18.597656 10.578125 18.78125 C 10.589844 18.765625 10.597656 18.746094 10.605469 18.726562 C 10.734375 18.472656 10.925781 18.203125 11.097656 17.925781 Z M 13.757812 18.457031 C 13.648438 18.398438 13.542969 18.355469 13.449219 18.332031 C 13.371094 18.316406 13.300781 18.316406 13.242188 18.347656 C 13.183594 18.375 13.144531 18.4375 13.113281 18.535156 C 13.097656 18.597656 13.082031 18.65625 13.074219 18.714844 C 13.195312 18.675781 13.324219 18.632812 13.464844 18.585938 C 13.585938 18.539062 13.683594 18.496094 13.757812 18.457031 Z M 17.054688 16.585938 C 16.765625 16.828125 16.425781 17.058594 16.070312 17.238281 C 16.363281 17.523438 16.644531 17.804688 16.898438 18.082031 C 17.066406 18.265625 17.222656 18.445312 17.355469 18.621094 C 17.425781 18.59375 17.488281 18.550781 17.542969 18.496094 C 17.691406 18.347656 17.761719 18.097656 17.734375 17.65625 C 17.710938 17.257812 17.363281 16.847656 17.054688 16.585938 Z M 6.707031 16.703125 C 6.546875 16.886719 6.445312 17.121094 6.558594 17.394531 C 6.617188 17.53125 6.824219 17.734375 7.109375 17.96875 C 7.320312 18.140625 7.582031 18.328125 7.859375 18.507812 C 7.898438 18.492188 7.933594 18.46875 7.96875 18.445312 C 8.082031 18.363281 8.171875 18.242188 8.230469 18.058594 C 8.160156 17.984375 8.089844 17.910156 8.015625 17.835938 C 7.78125 17.59375 7.28125 17.066406 6.753906 16.730469 C 6.738281 16.722656 6.722656 16.710938 6.707031 16.703125 Z M 8.382812 18.222656 C 8.335938 18.335938 8.277344 18.425781 8.207031 18.5 C 8.304688 18.464844 8.414062 18.429688 8.539062 18.390625 C 8.484375 18.335938 8.433594 18.277344 8.382812 18.222656 Z M 8.679688 16.992188 C 8.609375 17.355469 8.539062 17.699219 8.457031 18.007812 C 8.554688 18.109375 8.652344 18.21875 8.746094 18.328125 C 8.96875 18.261719 9.214844 18.191406 9.472656 18.121094 C 9.367188 18.023438 9.269531 17.929688 9.175781 17.839844 C 9.050781 17.714844 8.945312 17.542969 8.847656 17.351562 C 8.789062 17.234375 8.734375 17.113281 8.679688 16.992188 Z M 8.839844 16.074219 C 8.808594 16.269531 8.773438 16.460938 8.738281 16.652344 C 8.816406 16.804688 8.886719 16.96875 8.960938 17.125 C 9.066406 17.347656 9.175781 17.558594 9.316406 17.695312 C 9.4375 17.8125 9.566406 17.933594 9.703125 18.058594 L 9.746094 18.046875 C 9.824219 17.960938 9.90625 17.875 9.996094 17.789062 C 10.414062 17.375 10.878906 16.996094 11.238281 16.542969 C 11.09375 16.570312 10.945312 16.597656 10.804688 16.617188 C 10.214844 16.703125 9.683594 16.695312 9.335938 16.417969 C 9.167969 16.289062 9.003906 16.175781 8.839844 16.074219 Z M 11.488281 16.546875 C 11.109375 17.058594 10.597656 17.476562 10.140625 17.929688 L 10.117188 17.949219 C 10.511719 17.851562 10.90625 17.761719 11.238281 17.695312 C 11.453125 17.320312 11.609375 16.9375 11.488281 16.546875 Z M 8.53125 16.683594 C 8.5 16.625 8.46875 16.566406 8.4375 16.515625 C 8.320312 16.324219 8.191406 16.164062 8.011719 16.097656 C 7.835938 16.035156 7.617188 16.066406 7.332031 16.230469 C 7.222656 16.292969 7.027344 16.402344 6.851562 16.558594 L 6.863281 16.5625 C 7.40625 16.90625 7.917969 17.449219 8.160156 17.699219 C 8.207031 17.742188 8.25 17.789062 8.292969 17.835938 C 8.382812 17.484375 8.457031 17.089844 8.53125 16.683594 Z M 13.125 16.332031 C 12.691406 16.277344 12.179688 16.359375 11.671875 16.460938 C 11.804688 16.863281 11.691406 17.261719 11.492188 17.648438 C 11.628906 17.628906 11.753906 17.609375 11.855469 17.601562 C 12 17.589844 12.1875 17.59375 12.398438 17.617188 C 12.5625 17.554688 12.734375 17.496094 12.917969 17.453125 C 12.847656 17.414062 12.785156 17.316406 12.785156 17.117188 C 12.785156 16.925781 12.882812 16.667969 13.125 16.332031 Z M 13.34375 16.375 C 13.097656 16.699219 12.988281 16.9375 12.988281 17.117188 C 12.988281 17.175781 12.992188 17.222656 13.003906 17.253906 C 13.007812 17.265625 13.011719 17.277344 13.019531 17.285156 C 13.039062 17.292969 13.066406 17.285156 13.097656 17.273438 C 13.152344 17.257812 13.21875 17.226562 13.289062 17.1875 C 13.457031 17.097656 13.65625 16.976562 13.851562 16.925781 C 14 16.882812 14.148438 16.878906 14.28125 16.933594 C 14.421875 16.992188 14.554688 17.121094 14.65625 17.363281 L 14.683594 17.425781 C 14.894531 17.425781 15.117188 17.386719 15.339844 17.320312 C 14.972656 17.042969 14.304688 16.609375 13.34375 16.375 Z M 14.457031 17.410156 C 14.386719 17.25 14.300781 17.160156 14.203125 17.117188 C 14.085938 17.066406 13.953125 17.09375 13.820312 17.144531 C 13.667969 17.203125 13.515625 17.292969 13.386719 17.363281 C 13.375 17.367188 13.367188 17.371094 13.359375 17.375 C 13.691406 17.335938 14.046875 17.339844 14.40625 17.402344 C 14.421875 17.40625 14.441406 17.410156 14.457031 17.410156 Z M 14.179688 15.613281 C 13.933594 15.753906 13.664062 16.003906 13.484375 16.207031 C 14.53125 16.476562 15.230469 16.976562 15.566406 17.242188 C 15.613281 17.226562 15.65625 17.207031 15.703125 17.191406 L 15.722656 17.179688 C 15.175781 16.652344 14.613281 16.117188 14.179688 15.613281 Z M 16.886719 16.464844 C 16.710938 16.367188 16.535156 16.363281 16.351562 16.359375 C 16.09375 16.359375 15.824219 16.363281 15.527344 16.199219 C 15.429688 16.148438 15.320312 15.988281 15.175781 15.828125 C 15 15.628906 14.753906 15.425781 14.375 15.53125 C 14.8125 16.035156 15.375 16.566406 15.917969 17.089844 C 16.269531 16.921875 16.605469 16.699219 16.886719 16.464844 Z M 9.144531 14.589844 C 9.042969 14.988281 8.957031 15.425781 8.878906 15.863281 C 9.066406 15.976562 9.265625 16.109375 9.460938 16.261719 C 9.773438 16.511719 10.25 16.496094 10.777344 16.417969 C 10.972656 16.390625 11.179688 16.351562 11.386719 16.3125 C 11.203125 15.925781 11.152344 15.488281 11.1875 15.0625 C 10.519531 14.859375 9.777344 14.667969 9.144531 14.589844 Z M 17.046875 16.328125 C 17.179688 16.203125 17.300781 16.078125 17.398438 15.957031 C 17.523438 15.800781 17.617188 15.648438 17.664062 15.515625 C 17.703125 15.402344 17.710938 15.304688 17.667969 15.226562 C 17.601562 15.109375 17.382812 14.945312 17.089844 14.757812 C 16.367188 14.300781 15.175781 13.753906 14.359375 13.65625 C 13.980469 13.609375 13.683594 13.652344 13.597656 13.894531 C 14.070312 14.125 14.445312 14.183594 14.636719 14.273438 C 14.730469 14.316406 14.789062 14.367188 14.820312 14.425781 C 14.851562 14.492188 14.855469 14.570312 14.808594 14.679688 C 14.765625 14.785156 14.65625 14.910156 14.5 15.03125 C 14.398438 15.109375 14.277344 15.191406 14.148438 15.265625 L 14.15625 15.273438 C 14.171875 15.289062 14.183594 15.308594 14.195312 15.324219 L 14.234375 15.367188 C 14.261719 15.359375 14.289062 15.347656 14.316406 15.339844 C 14.796875 15.203125 15.105469 15.445312 15.328125 15.695312 C 15.40625 15.785156 15.476562 15.878906 15.535156 15.945312 C 15.570312 15.980469 15.597656 16.011719 15.625 16.027344 C 15.886719 16.167969 16.125 16.160156 16.355469 16.160156 C 16.589844 16.164062 16.816406 16.175781 17.046875 16.328125 Z M 11.945312 15.304688 C 11.960938 15.492188 11.941406 15.664062 11.894531 15.800781 C 11.835938 15.960938 11.761719 16.113281 11.675781 16.257812 C 12.238281 16.152344 12.800781 16.066406 13.265625 16.152344 C 13.449219 15.9375 13.757812 15.636719 14.050781 15.460938 C 14.023438 15.429688 13.996094 15.394531 13.96875 15.359375 C 13.886719 15.402344 13.800781 15.445312 13.714844 15.480469 C 13.523438 15.558594 13.335938 15.613281 13.183594 15.636719 C 13.066406 15.652344 12.96875 15.648438 12.894531 15.625 C 12.675781 15.550781 12.34375 15.433594 11.945312 15.304688 Z M 11.386719 15.125 C 11.363281 15.464844 11.398438 15.808594 11.523438 16.125 C 11.59375 16 11.652344 15.871094 11.703125 15.734375 C 11.753906 15.597656 11.761719 15.425781 11.738281 15.234375 C 11.625 15.199219 11.503906 15.160156 11.386719 15.125 Z M 8.941406 14.566406 C 8.855469 14.558594 8.773438 14.550781 8.695312 14.550781 C 8.421875 14.539062 8.179688 14.5625 7.996094 14.628906 C 7.835938 14.6875 7.71875 14.78125 7.667969 14.929688 C 7.640625 15.011719 7.664062 15.082031 7.71875 15.148438 C 7.765625 15.203125 7.835938 15.257812 7.917969 15.3125 C 8.113281 15.441406 8.390625 15.578125 8.695312 15.753906 C 8.769531 15.347656 8.847656 14.941406 8.941406 14.566406 Z M 13.371094 14.003906 C 13.117188 13.867188 12.839844 13.683594 12.550781 13.429688 C 12.382812 13.28125 12.1875 13.355469 12.003906 13.535156 C 11.855469 13.6875 11.71875 13.90625 11.609375 14.167969 C 11.746094 14.449219 11.847656 14.742188 11.902344 15.011719 C 11.910156 15.035156 11.914062 15.0625 11.917969 15.085938 C 12.355469 15.226562 12.722656 15.359375 12.957031 15.433594 C 13.007812 15.449219 13.074219 15.449219 13.15625 15.4375 C 13.292969 15.417969 13.464844 15.367188 13.636719 15.292969 C 13.707031 15.265625 13.777344 15.234375 13.847656 15.199219 C 13.535156 14.765625 13.347656 14.359375 13.371094 14.003906 Z M 13.570312 14.101562 C 13.582031 14.40625 13.757812 14.746094 14.027344 15.105469 C 14.15625 15.03125 14.277344 14.953125 14.375 14.875 C 14.496094 14.78125 14.589844 14.6875 14.625 14.601562 C 14.640625 14.566406 14.648438 14.539062 14.640625 14.515625 C 14.628906 14.492188 14.605469 14.480469 14.574219 14.464844 C 14.53125 14.441406 14.472656 14.421875 14.40625 14.398438 C 14.203125 14.335938 13.914062 14.261719 13.570312 14.101562 Z M 11.511719 14.441406 C 11.480469 14.539062 11.453125 14.644531 11.433594 14.753906 C 11.421875 14.808594 11.414062 14.867188 11.40625 14.921875 C 11.503906 14.953125 11.605469 14.984375 11.699219 15.015625 C 11.65625 14.828125 11.59375 14.632812 11.511719 14.441406 Z M 11.390625 14.179688 C 11.316406 14.039062 11.238281 13.90625 11.152344 13.78125 C 10.867188 13.375 10.523438 13.066406 10.179688 13.0625 C 10.007812 13.058594 9.835938 13.140625 9.679688 13.324219 C 9.503906 13.527344 9.347656 13.847656 9.214844 14.316406 C 9.207031 14.34375 9.199219 14.367188 9.195312 14.394531 C 9.824219 14.476562 10.550781 14.664062 11.210938 14.863281 C 11.21875 14.8125 11.226562 14.765625 11.238281 14.714844 C 11.273438 14.527344 11.324219 14.347656 11.390625 14.179688 " fill-opacity="1" fill-rule="evenodd"/></g></svg>