<svg xmlns="http://www.w3.org/2000/svg" xmlns:xlink="http://www.w3.org/1999/xlink" width="60" zoomAndPan="magnify" viewBox="0 0 45 44.999999" height="60" preserveAspectRatio="xMidYMid meet" version="1.0"><defs><clipPath id="id1"><path d="M 6.230469 7.855469 L 38.480469 7.855469 L 38.480469 37.105469 L 6.230469 37.105469 Z M 6.230469 7.855469 " clip-rule="nonzero"/></clipPath></defs><path fill="#ffffff" d="M 31.257812 1.351562 L 43.648438 13.742188 L 43.648438 31.265625 L 31.257812 43.648438 L 13.742188 43.648438 L 1.351562 31.257812 L 1.351562 13.742188 L 13.742188 1.351562 L 31.257812 1.351562 M 31.824219 0 L 13.175781 0 L 0 13.175781 L 0 31.816406 L 13.175781 45 L 31.816406 45 L 45 31.824219 L 45 13.175781 Z M 31.824219 0 " fill-opacity="1" fill-rule="nonzero"/><path fill="#ffffff" d="M 31.257812 1.351562 L 43.648438 13.742188 L 43.648438 31.265625 L 31.257812 43.648438 L 13.742188 43.648438 L 1.351562 31.257812 L 1.351562 13.742188 L 13.742188 1.351562 L 31.257812 1.351562 M 31.824219 0 L 13.175781 0 L 0 13.175781 L 0 31.816406 L 13.175781 45 L 31.816406 45 L 45 31.824219 L 45 13.175781 Z M 31.824219 0 " fill-opacity="1" fill-rule="nonzero"/><g clip-path="url(#id1)"><path fill="#ffffff" d="M 22.355469 37.097656 L 22.179688 36.996094 C 22.144531 36.976562 18.542969 34.871094 14.816406 31.445312 C 11.359375 28.265625 7.085938 23.269531 6.34375 17.496094 C 6.273438 17.054688 6.234375 16.597656 6.234375 16.148438 C 6.234375 11.574219 9.929688 7.851562 14.46875 7.851562 C 18.183594 7.851562 21.335938 10.34375 22.355469 13.757812 C 23.375 10.34375 26.523438 7.851562 30.242188 7.851562 C 34.78125 7.851562 38.476562 11.574219 38.476562 16.148438 C 38.476562 16.59375 38.4375 17.054688 38.363281 17.507812 C 37.625 23.269531 33.347656 28.265625 29.894531 31.445312 C 26.167969 34.871094 22.5625 36.976562 22.527344 36.996094 Z M 14.46875 8.550781 C 10.3125 8.550781 6.929688 11.960938 6.929688 16.148438 C 6.929688 16.558594 6.964844 16.976562 7.03125 17.394531 C 8.324219 27.429688 20.734375 35.296875 22.355469 36.285156 C 23.113281 35.824219 26.226562 33.867188 29.433594 30.917969 C 32.800781 27.820312 36.960938 22.964844 37.675781 17.40625 C 37.746094 16.976562 37.78125 16.558594 37.78125 16.148438 C 37.78125 11.957031 34.398438 8.550781 30.242188 8.550781 C 26.085938 8.550781 22.703125 11.957031 22.703125 16.148438 L 22.007812 16.148438 C 22.007812 11.960938 18.625 8.550781 14.46875 8.550781 Z M 14.46875 8.550781 " fill-opacity="1" fill-rule="nonzero"/></g><path fill="#ffffff" d="M 22.328125 27.046875 C 22.207031 27.046875 22.09375 26.984375 22.027344 26.875 L 19.570312 22.761719 L 18.460938 24.835938 C 18.402344 24.949219 18.285156 25.023438 18.15625 25.023438 L 12.460938 25.023438 C 12.269531 25.023438 12.113281 24.863281 12.113281 24.671875 C 12.113281 24.476562 12.269531 24.320312 12.460938 24.320312 L 17.949219 24.320312 L 19.25 21.886719 C 19.308594 21.777344 19.421875 21.707031 19.546875 21.703125 C 19.671875 21.699219 19.789062 21.765625 19.851562 21.875 L 22.226562 25.847656 L 24.636719 18.09375 C 24.679688 17.957031 24.800781 17.859375 24.945312 17.847656 C 25.085938 17.839844 25.222656 17.917969 25.285156 18.050781 L 28.175781 24.320312 L 32.25 24.320312 C 32.441406 24.320312 32.597656 24.476562 32.597656 24.671875 C 32.597656 24.863281 32.441406 25.023438 32.25 25.023438 L 27.953125 25.023438 C 27.820312 25.023438 27.695312 24.941406 27.640625 24.820312 L 25.03125 19.167969 L 22.660156 26.800781 C 22.617188 26.933594 22.503906 27.027344 22.367188 27.042969 C 22.355469 27.046875 22.339844 27.046875 22.328125 27.046875 Z M 22.328125 27.046875 " fill-opacity="1" fill-rule="nonzero"/></svg>