<svg xmlns="http://www.w3.org/2000/svg" xmlns:xlink="http://www.w3.org/1999/xlink" width="60" zoomAndPan="magnify" viewBox="0 0 45 44.999999" height="60" preserveAspectRatio="xMidYMid meet" version="1.0"><defs><clipPath id="id1"><path d="M 34 8 L 39.8125 8 L 39.8125 30 L 34 30 Z M 34 8 " clip-rule="nonzero"/></clipPath><clipPath id="id2"><path d="M 30 3.945312 L 37 3.945312 L 37 40.695312 L 30 40.695312 Z M 30 3.945312 " clip-rule="nonzero"/></clipPath><clipPath id="id3"><path d="M 5.3125 8 L 11 8 L 11 30 L 5.3125 30 Z M 5.3125 8 " clip-rule="nonzero"/></clipPath><clipPath id="id4"><path d="M 9 3.945312 L 15 3.945312 L 15 40.695312 L 9 40.695312 Z M 9 3.945312 " clip-rule="nonzero"/></clipPath><clipPath id="id5"><path d="M 16 21 L 29 21 L 29 40.695312 L 16 40.695312 Z M 16 21 " clip-rule="nonzero"/></clipPath></defs><path fill="#ffffff" d="M 31.257812 1.351562 L 43.648438 13.742188 L 43.648438 31.265625 L 31.257812 43.648438 L 13.742188 43.648438 L 1.351562 31.257812 L 1.351562 13.742188 L 13.742188 1.351562 L 31.257812 1.351562 M 31.824219 0 L 13.175781 0 L 0 13.175781 L 0 31.816406 L 13.175781 45 L 31.816406 45 L 45 31.824219 L 45 13.175781 Z M 31.824219 0 " fill-opacity="1" fill-rule="nonzero"/><path fill="#ffffff" d="M 31.257812 1.351562 L 43.648438 13.742188 L 43.648438 31.265625 L 31.257812 43.648438 L 13.742188 43.648438 L 1.351562 31.257812 L 1.351562 13.742188 L 13.742188 1.351562 L 31.257812 1.351562 M 31.824219 0 L 13.175781 0 L 0 13.175781 L 0 31.816406 L 13.175781 45 L 31.816406 45 L 45 31.824219 L 45 13.175781 Z M 31.824219 0 " fill-opacity="1" fill-rule="nonzero"/><g clip-path="url(#id1)"><path fill="#ffffff" d="M 37.355469 18.382812 C 36.5625 16.960938 36.039062 15.453125 35.777344 13.851562 C 35.519531 12.25 35.539062 10.652344 35.839844 9.058594 C 35.859375 8.898438 35.824219 8.75 35.726562 8.617188 C 35.628906 8.484375 35.5 8.40625 35.339844 8.375 L 35.226562 8.375 C 35.078125 8.375 34.945312 8.421875 34.828125 8.519531 C 34.714844 8.613281 34.644531 8.734375 34.617188 8.878906 C 34.300781 10.601562 34.28125 12.328125 34.5625 14.058594 C 34.84375 15.785156 35.410156 17.421875 36.257812 18.960938 C 37.8125 22.003906 38.480469 25.226562 38.265625 28.625 C 38.257812 28.796875 38.3125 28.945312 38.429688 29.070312 C 38.546875 29.195312 38.691406 29.257812 38.863281 29.265625 C 39.027344 29.265625 39.171875 29.207031 39.292969 29.09375 C 39.414062 28.980469 39.476562 28.839844 39.480469 28.675781 C 39.714844 25.054688 39.007812 21.625 37.355469 18.382812 Z M 37.355469 18.382812 " fill-opacity="1" fill-rule="nonzero"/></g><g clip-path="url(#id2)"><path fill="#ffffff" d="M 33.851562 4.882812 C 33.945312 4.738281 33.96875 4.585938 33.929688 4.421875 C 33.890625 4.253906 33.796875 4.128906 33.652344 4.039062 C 33.550781 3.976562 33.445312 3.941406 33.324219 3.945312 C 33.09375 3.945312 32.917969 4.039062 32.796875 4.230469 C 32.164062 5.359375 31.6875 6.546875 31.359375 7.792969 C 31.035156 9.039062 30.871094 10.308594 30.871094 11.59375 C 30.871094 12.882812 31.035156 14.152344 31.359375 15.398438 C 31.6875 16.644531 32.164062 17.832031 32.796875 18.960938 C 36.8125 26.414062 33.914062 36.210938 31.886719 39.789062 C 31.800781 39.9375 31.78125 40.09375 31.832031 40.257812 C 31.878906 40.421875 31.976562 40.542969 32.128906 40.625 C 32.222656 40.679688 32.320312 40.703125 32.429688 40.699219 C 32.671875 40.703125 32.851562 40.601562 32.96875 40.390625 C 35.507812 35.921875 38 25.992188 33.894531 18.382812 C 33.324219 17.347656 32.890625 16.257812 32.597656 15.117188 C 32.300781 13.976562 32.152344 12.816406 32.148438 11.636719 C 32.144531 10.460938 32.285156 9.300781 32.574219 8.15625 C 32.863281 7.011719 33.289062 5.921875 33.851562 4.882812 Z M 33.851562 4.882812 " fill-opacity="1" fill-rule="nonzero"/></g><g clip-path="url(#id3)"><path fill="#ffffff" d="M 10.488281 8.839844 C 10.457031 8.695312 10.386719 8.574219 10.273438 8.480469 C 10.15625 8.386719 10.023438 8.339844 9.875 8.339844 L 9.742188 8.339844 C 9.582031 8.367188 9.449219 8.449219 9.355469 8.582031 C 9.257812 8.714844 9.21875 8.863281 9.242188 9.023438 C 9.542969 10.617188 9.566406 12.214844 9.304688 13.816406 C 9.046875 15.417969 8.519531 16.929688 7.730469 18.347656 C 6.066406 21.582031 5.347656 25.007812 5.574219 28.625 C 5.574219 28.796875 5.636719 28.945312 5.757812 29.066406 C 5.882812 29.1875 6.03125 29.246094 6.203125 29.246094 C 6.378906 29.246094 6.527344 29.1875 6.648438 29.066406 C 6.769531 28.945312 6.832031 28.796875 6.832031 28.625 C 6.617188 25.222656 7.289062 22 8.847656 18.960938 C 9.695312 17.414062 10.261719 15.773438 10.542969 14.039062 C 10.824219 12.300781 10.804688 10.570312 10.488281 8.839844 Z M 10.488281 8.839844 " fill-opacity="1" fill-rule="nonzero"/></g><g clip-path="url(#id4)"><path fill="#ffffff" d="M 12.308594 4.230469 C 12.183594 4.039062 12.007812 3.945312 11.78125 3.945312 C 11.660156 3.941406 11.546875 3.972656 11.445312 4.039062 C 11.300781 4.128906 11.210938 4.257812 11.171875 4.421875 C 11.136719 4.585938 11.160156 4.738281 11.25 4.882812 C 11.816406 5.921875 12.246094 7.011719 12.539062 8.152344 C 12.832031 9.292969 12.976562 10.457031 12.976562 11.632812 C 12.976562 12.8125 12.832031 13.972656 12.539062 15.113281 C 12.246094 16.257812 11.816406 17.347656 11.25 18.382812 C 7.125 26 9.613281 35.921875 12.148438 40.390625 C 12.269531 40.597656 12.449219 40.699219 12.691406 40.699219 C 12.796875 40.703125 12.898438 40.675781 12.996094 40.625 C 13.144531 40.539062 13.238281 40.417969 13.28125 40.253906 C 13.324219 40.089844 13.304688 39.933594 13.21875 39.789062 C 11.203125 36.210938 8.3125 26.414062 12.328125 18.960938 C 12.957031 17.832031 13.4375 16.644531 13.761719 15.394531 C 14.085938 14.148438 14.246094 12.882812 14.242188 11.59375 C 14.242188 10.304688 14.078125 9.039062 13.75 7.792969 C 13.421875 6.542969 12.941406 5.359375 12.308594 4.230469 Z M 12.308594 4.230469 " fill-opacity="1" fill-rule="nonzero"/></g><path fill="#ffffff" d="M 22.546875 16.929688 C 22.714844 16.929688 22.875 16.898438 23.03125 16.835938 C 23.183594 16.777344 23.320312 16.6875 23.441406 16.570312 C 23.558594 16.453125 23.652344 16.320312 23.714844 16.167969 C 23.78125 16.015625 23.8125 15.859375 23.8125 15.695312 C 23.8125 15.527344 23.78125 15.371094 23.71875 15.21875 C 23.65625 15.066406 23.566406 14.929688 23.445312 14.8125 C 23.328125 14.695312 23.195312 14.605469 23.039062 14.542969 C 22.886719 14.480469 22.726562 14.449219 22.558594 14.449219 C 22.390625 14.449219 22.230469 14.480469 22.074219 14.542969 C 21.921875 14.605469 21.785156 14.695312 21.667969 14.8125 C 21.550781 14.925781 21.457031 15.0625 21.394531 15.214844 C 21.328125 15.367188 21.296875 15.523438 21.296875 15.6875 C 21.296875 15.851562 21.328125 16.011719 21.394531 16.164062 C 21.457031 16.3125 21.546875 16.449219 21.664062 16.5625 C 21.78125 16.679688 21.917969 16.769531 22.070312 16.832031 C 22.222656 16.898438 22.382812 16.929688 22.546875 16.929688 Z M 22.546875 16.929688 " fill-opacity="1" fill-rule="nonzero"/><g clip-path="url(#id5)"><path fill="#ffffff" d="M 25.496094 21.8125 C 25.378906 21.804688 25.261719 21.804688 25.148438 21.8125 C 24.140625 21.8125 23.277344 22.15625 22.546875 22.839844 C 21.824219 22.140625 20.953125 21.78125 19.9375 21.769531 C 19.828125 21.761719 19.71875 21.761719 19.609375 21.769531 C 18.996094 21.824219 18.449219 22.039062 17.964844 22.410156 C 17.480469 22.78125 17.136719 23.253906 16.933594 23.828125 C 16.703125 24.410156 16.640625 25.011719 16.753906 25.628906 C 16.867188 26.246094 17.136719 26.789062 17.558594 27.253906 L 21.929688 32.054688 L 21.929688 40.089844 C 21.945312 40.246094 22.015625 40.378906 22.132812 40.484375 C 22.253906 40.589844 22.390625 40.644531 22.550781 40.644531 C 22.710938 40.644531 22.851562 40.589844 22.96875 40.484375 C 23.089844 40.378906 23.15625 40.246094 23.175781 40.089844 L 23.175781 32.054688 L 27.542969 27.253906 C 27.96875 26.789062 28.238281 26.246094 28.347656 25.628906 C 28.460938 25.011719 28.402344 24.410156 28.167969 23.828125 C 27.960938 23.261719 27.613281 22.800781 27.128906 22.433594 C 26.644531 22.070312 26.101562 21.863281 25.496094 21.8125 Z M 22.546875 30.882812 L 18.484375 26.441406 C 18.207031 26.144531 18.03125 25.800781 17.960938 25.40625 C 17.886719 25.011719 17.925781 24.628906 18.082031 24.257812 C 18.207031 23.917969 18.417969 23.632812 18.710938 23.410156 C 19.007812 23.191406 19.339844 23.0625 19.707031 23.03125 L 19.941406 23.03125 C 20.359375 23.035156 20.75 23.132812 21.121094 23.328125 C 21.488281 23.519531 21.789062 23.785156 22.027344 24.121094 C 22.152344 24.292969 22.320312 24.375 22.535156 24.367188 C 22.75 24.375 22.921875 24.292969 23.046875 24.121094 C 23.285156 23.78125 23.585938 23.515625 23.953125 23.324219 C 24.324219 23.128906 24.714844 23.035156 25.132812 23.03125 L 25.363281 23.03125 C 25.730469 23.0625 26.066406 23.1875 26.359375 23.410156 C 26.65625 23.632812 26.867188 23.914062 26.996094 24.257812 C 27.152344 24.628906 27.195312 25.011719 27.125 25.40625 C 27.054688 25.800781 26.878906 26.144531 26.605469 26.441406 Z M 22.546875 30.882812 " fill-opacity="1" fill-rule="nonzero"/></g></svg>