<svg xmlns="http://www.w3.org/2000/svg" xmlns:xlink="http://www.w3.org/1999/xlink" width="60" zoomAndPan="magnify" viewBox="0 0 45 44.999999" height="60" preserveAspectRatio="xMidYMid meet" version="1.0"><defs><clipPath id="id1"><path d="M 6.042969 4.164062 L 39.042969 4.164062 L 39.042969 40.914062 L 6.042969 40.914062 Z M 6.042969 4.164062 " clip-rule="nonzero"/></clipPath></defs><path fill="#ffffff" d="M 31.257812 1.351562 L 43.648438 13.742188 L 43.648438 31.265625 L 31.257812 43.648438 L 13.742188 43.648438 L 1.351562 31.257812 L 1.351562 13.742188 L 13.742188 1.351562 L 31.257812 1.351562 M 31.824219 0 L 13.175781 0 L 0 13.175781 L 0 31.816406 L 13.175781 45 L 31.816406 45 L 45 31.824219 L 45 13.175781 Z M 31.824219 0 " fill-opacity="1" fill-rule="nonzero"/><path fill="#ffffff" d="M 31.257812 1.351562 L 43.648438 13.742188 L 43.648438 31.265625 L 31.257812 43.648438 L 13.742188 43.648438 L 1.351562 31.257812 L 1.351562 13.742188 L 13.742188 1.351562 L 31.257812 1.351562 M 31.824219 0 L 13.175781 0 L 0 13.175781 L 0 31.816406 L 13.175781 45 L 31.816406 45 L 45 31.824219 L 45 13.175781 Z M 31.824219 0 " fill-opacity="1" fill-rule="nonzero"/><g clip-path="url(#id1)"><path fill="#ffffff" d="M 32.425781 24.019531 C 31.753906 24.589844 30.886719 24.820312 30.007812 24.671875 C 28.882812 24.484375 27.914062 23.574219 27.652344 22.460938 C 27.441406 21.558594 27.644531 20.65625 28.234375 19.925781 C 28.25 19.90625 28.257812 19.882812 28.269531 19.859375 C 28.292969 19.824219 28.3125 19.789062 28.328125 19.75 C 28.339844 19.710938 28.34375 19.671875 28.351562 19.632812 C 28.355469 19.605469 28.367188 19.582031 28.367188 19.558594 C 28.367188 19.546875 28.359375 19.535156 28.359375 19.527344 C 28.355469 19.484375 28.347656 19.449219 28.335938 19.410156 C 28.324219 19.371094 28.320312 19.335938 28.304688 19.304688 C 28.289062 19.273438 28.265625 19.246094 28.246094 19.21875 C 28.21875 19.183594 28.195312 19.148438 28.164062 19.121094 C 28.15625 19.113281 28.152344 19.101562 28.144531 19.097656 C 28.125 19.082031 28.101562 19.074219 28.078125 19.0625 C 28.042969 19.039062 28.011719 19.019531 27.96875 19.003906 C 27.929688 18.992188 27.890625 18.984375 27.847656 18.980469 C 27.824219 18.976562 27.800781 18.964844 27.773438 18.964844 L 24.160156 18.964844 L 24.160156 15.625 C 24.664062 15.84375 25.199219 15.96875 25.75 15.96875 C 26.074219 15.96875 26.40625 15.929688 26.734375 15.851562 C 28.316406 15.476562 29.558594 14.152344 29.828125 12.554688 C 30.035156 11.335938 29.699219 10.105469 28.914062 9.171875 C 27.765625 7.816406 25.789062 7.398438 24.160156 8.070312 L 24.160156 5.367188 C 24.363281 5.363281 24.558594 5.34375 24.769531 5.34375 C 32.90625 5.34375 37.363281 12.019531 37.808594 18.964844 L 33.269531 18.964844 C 33.242188 18.964844 33.222656 18.976562 33.195312 18.980469 C 33.15625 18.984375 33.113281 18.992188 33.074219 19.003906 C 33.035156 19.019531 33.003906 19.039062 32.96875 19.0625 C 32.945312 19.074219 32.917969 19.078125 32.898438 19.097656 C 32.890625 19.105469 32.886719 19.113281 32.878906 19.121094 C 32.847656 19.148438 32.824219 19.179688 32.800781 19.214844 C 32.777344 19.246094 32.753906 19.273438 32.738281 19.304688 C 32.722656 19.335938 32.71875 19.371094 32.707031 19.40625 C 32.699219 19.445312 32.6875 19.484375 32.683594 19.527344 C 32.683594 19.539062 32.679688 19.546875 32.679688 19.558594 C 32.679688 19.582031 32.691406 19.605469 32.695312 19.632812 C 32.699219 19.671875 32.703125 19.710938 32.71875 19.75 C 32.730469 19.792969 32.753906 19.824219 32.773438 19.863281 C 32.789062 19.882812 32.792969 19.90625 32.808594 19.929688 C 33.242188 20.464844 33.472656 21.101562 33.472656 21.765625 C 33.472656 22.636719 33.09375 23.457031 32.425781 24.019531 Z M 16.726562 13.277344 C 15.507812 13.070312 14.277344 13.40625 13.34375 14.191406 C 12.414062 14.980469 11.878906 16.128906 11.878906 17.347656 C 11.878906 17.910156 12.011719 18.457031 12.234375 18.964844 L 9.589844 18.964844 L 9.949219 17.671875 C 9.960938 17.617188 9.972656 17.5625 9.96875 17.503906 C 9.96875 17.460938 9.945312 12.785156 13.414062 9.273438 C 15.667969 6.988281 18.878906 5.691406 22.976562 5.40625 L 22.976562 9.074219 C 22.976562 9.097656 22.988281 9.121094 22.992188 9.144531 C 22.996094 9.1875 23 9.226562 23.015625 9.265625 C 23.027344 9.304688 23.046875 9.335938 23.070312 9.371094 C 23.082031 9.394531 23.085938 9.417969 23.105469 9.4375 C 23.109375 9.449219 23.121094 9.453125 23.128906 9.460938 C 23.15625 9.492188 23.191406 9.515625 23.222656 9.539062 C 23.253906 9.5625 23.28125 9.585938 23.3125 9.601562 C 23.34375 9.617188 23.378906 9.625 23.417969 9.632812 C 23.457031 9.644531 23.492188 9.65625 23.535156 9.65625 C 23.546875 9.65625 23.554688 9.664062 23.566406 9.664062 C 23.59375 9.664062 23.617188 9.652344 23.644531 9.648438 C 23.683594 9.644531 23.722656 9.636719 23.757812 9.625 C 23.796875 9.613281 23.832031 9.589844 23.867188 9.570312 C 23.890625 9.558594 23.914062 9.550781 23.933594 9.535156 C 25.179688 8.550781 27.023438 8.769531 28.011719 9.933594 C 28.582031 10.609375 28.8125 11.46875 28.664062 12.355469 C 28.472656 13.492188 27.585938 14.4375 26.460938 14.703125 C 25.558594 14.917969 24.664062 14.71875 23.933594 14.140625 C 23.914062 14.125 23.890625 14.117188 23.867188 14.105469 C 23.832031 14.085938 23.800781 14.066406 23.761719 14.050781 C 23.71875 14.039062 23.679688 14.03125 23.640625 14.027344 C 23.613281 14.023438 23.59375 14.011719 23.566406 14.011719 C 23.554688 14.011719 23.546875 14.019531 23.535156 14.019531 C 23.492188 14.019531 23.453125 14.03125 23.410156 14.042969 C 23.378906 14.054688 23.34375 14.058594 23.3125 14.074219 C 23.28125 14.089844 23.25 14.113281 23.222656 14.136719 C 23.1875 14.160156 23.15625 14.183594 23.128906 14.214844 C 23.121094 14.222656 23.109375 14.226562 23.105469 14.238281 C 23.085938 14.257812 23.082031 14.28125 23.070312 14.304688 C 23.046875 14.339844 23.027344 14.371094 23.015625 14.410156 C 23 14.449219 22.996094 14.488281 22.992188 14.53125 C 22.988281 14.554688 22.976562 14.578125 22.976562 14.601562 L 22.976562 18.964844 L 19.792969 18.964844 C 20.148438 18.160156 20.246094 17.273438 20.03125 16.382812 C 19.660156 14.792969 18.328125 13.546875 16.726562 13.277344 Z M 39.035156 19.558594 C 39.035156 19.507812 39.019531 19.46875 39.007812 19.421875 C 38.730469 11.726562 33.859375 4.164062 24.769531 4.164062 C 24.417969 4.164062 24.085938 4.1875 23.746094 4.199219 C 23.6875 4.179688 23.628906 4.164062 23.566406 4.164062 C 23.484375 4.164062 23.402344 4.183594 23.332031 4.214844 C 18.734375 4.457031 15.113281 5.867188 12.574219 8.445312 C 8.988281 12.074219 8.796875 16.714844 8.789062 17.433594 L 6.191406 26.824219 C 6.054688 27.3125 6.128906 27.839844 6.390625 28.273438 C 6.652344 28.703125 7.085938 29.011719 7.582031 29.117188 L 9.578125 29.546875 L 10.851562 35.496094 C 11.089844 36.625 12.144531 37.378906 13.304688 37.242188 L 16.429688 36.808594 L 16.429688 40.324219 C 16.429688 40.648438 16.695312 40.914062 17.019531 40.914062 C 17.347656 40.914062 17.613281 40.648438 17.613281 40.324219 L 17.613281 36.128906 C 17.613281 35.957031 17.539062 35.796875 17.410156 35.683594 C 17.277344 35.570312 17.105469 35.519531 16.9375 35.542969 L 13.152344 36.070312 C 12.628906 36.132812 12.121094 35.777344 12.007812 35.246094 L 10.65625 28.925781 C 10.609375 28.699219 10.429688 28.519531 10.203125 28.472656 L 7.828125 27.964844 C 7.648438 27.925781 7.5 27.816406 7.402344 27.660156 C 7.304688 27.5 7.28125 27.316406 7.328125 27.140625 L 9.261719 20.148438 L 13.265625 20.148438 C 13.292969 20.148438 13.316406 20.136719 13.339844 20.132812 C 13.382812 20.125 13.421875 20.121094 13.460938 20.109375 C 13.5 20.09375 13.53125 20.074219 13.566406 20.050781 C 13.589844 20.039062 13.617188 20.035156 13.636719 20.015625 C 13.644531 20.011719 13.648438 20 13.65625 19.992188 C 13.6875 19.964844 13.710938 19.929688 13.734375 19.898438 C 13.757812 19.867188 13.777344 19.84375 13.792969 19.8125 C 13.808594 19.777344 13.816406 19.742188 13.828125 19.707031 C 13.835938 19.667969 13.847656 19.628906 13.851562 19.589844 C 13.851562 19.578125 13.855469 19.566406 13.855469 19.558594 C 13.855469 19.53125 13.84375 19.507812 13.839844 19.480469 C 13.835938 19.441406 13.832031 19.402344 13.816406 19.363281 C 13.804688 19.324219 13.78125 19.289062 13.761719 19.253906 C 13.75 19.230469 13.742188 19.207031 13.726562 19.1875 C 13.292969 18.648438 13.0625 18.011719 13.0625 17.347656 C 13.0625 16.476562 13.445312 15.65625 14.109375 15.09375 C 14.78125 14.523438 15.640625 14.289062 16.53125 14.441406 C 17.652344 14.628906 18.621094 15.539062 18.882812 16.652344 C 19.097656 17.554688 18.890625 18.457031 18.300781 19.1875 C 18.285156 19.207031 18.28125 19.230469 18.265625 19.253906 C 18.246094 19.289062 18.222656 19.324219 18.210938 19.363281 C 18.195312 19.402344 18.191406 19.441406 18.1875 19.480469 C 18.183594 19.507812 18.171875 19.53125 18.171875 19.558594 C 18.171875 19.566406 18.175781 19.578125 18.175781 19.589844 C 18.179688 19.628906 18.191406 19.667969 18.199219 19.707031 C 18.210938 19.742188 18.21875 19.777344 18.234375 19.8125 C 18.25 19.84375 18.269531 19.867188 18.292969 19.898438 C 18.316406 19.929688 18.339844 19.964844 18.371094 19.992188 C 18.378906 20 18.382812 20.011719 18.390625 20.015625 C 18.417969 20.039062 18.449219 20.050781 18.480469 20.066406 C 18.503906 20.078125 18.523438 20.09375 18.550781 20.105469 C 18.617188 20.132812 18.691406 20.148438 18.761719 20.148438 L 22.976562 20.148438 L 22.976562 25.890625 C 22.171875 25.542969 21.289062 25.449219 20.402344 25.664062 C 18.816406 26.039062 17.574219 27.367188 17.308594 28.964844 C 17.101562 30.183594 17.4375 31.414062 18.226562 32.34375 C 19.011719 33.273438 20.164062 33.808594 21.378906 33.808594 C 21.9375 33.808594 22.472656 33.679688 22.976562 33.464844 L 22.976562 40.324219 C 22.976562 40.648438 23.242188 40.914062 23.566406 40.914062 C 23.894531 40.914062 24.160156 40.648438 24.160156 40.324219 L 24.160156 32.441406 C 24.160156 32.414062 24.148438 32.394531 24.144531 32.367188 C 24.140625 32.328125 24.132812 32.289062 24.121094 32.25 C 24.105469 32.210938 24.085938 32.175781 24.0625 32.140625 C 24.050781 32.117188 24.046875 32.09375 24.03125 32.074219 C 24.023438 32.066406 24.011719 32.0625 24.007812 32.054688 C 23.976562 32.023438 23.945312 31.996094 23.910156 31.972656 C 23.878906 31.953125 23.855469 31.929688 23.824219 31.914062 C 23.789062 31.898438 23.753906 31.890625 23.714844 31.878906 C 23.675781 31.871094 23.640625 31.859375 23.601562 31.859375 C 23.589844 31.855469 23.578125 31.851562 23.566406 31.851562 C 23.539062 31.851562 23.519531 31.863281 23.492188 31.867188 C 23.453125 31.871094 23.414062 31.875 23.375 31.890625 C 23.335938 31.902344 23.300781 31.921875 23.269531 31.945312 C 23.246094 31.957031 23.222656 31.960938 23.199219 31.976562 C 21.957031 32.964844 20.113281 32.746094 19.125 31.582031 C 18.554688 30.90625 18.324219 30.046875 18.472656 29.160156 C 18.664062 28.023438 19.550781 27.082031 20.675781 26.8125 C 21.570312 26.59375 22.472656 26.796875 23.199219 27.375 C 23.21875 27.390625 23.246094 27.394531 23.265625 27.40625 C 23.300781 27.429688 23.335938 27.449219 23.375 27.460938 C 23.414062 27.476562 23.453125 27.480469 23.496094 27.488281 C 23.519531 27.488281 23.542969 27.5 23.566406 27.5 C 23.578125 27.5 23.589844 27.496094 23.597656 27.496094 C 23.640625 27.492188 23.679688 27.480469 23.722656 27.46875 C 23.757812 27.460938 23.789062 27.453125 23.820312 27.4375 C 23.855469 27.421875 23.882812 27.398438 23.910156 27.378906 C 23.945312 27.351562 23.976562 27.328125 24.007812 27.296875 C 24.011719 27.289062 24.023438 27.285156 24.03125 27.277344 C 24.046875 27.257812 24.050781 27.234375 24.0625 27.214844 C 24.085938 27.175781 24.105469 27.140625 24.121094 27.101562 C 24.132812 27.0625 24.140625 27.023438 24.144531 26.984375 C 24.148438 26.957031 24.160156 26.9375 24.160156 26.910156 L 24.160156 20.148438 L 26.742188 20.148438 C 26.386719 20.953125 26.292969 21.839844 26.503906 22.730469 C 26.875 24.320312 28.207031 25.570312 29.8125 25.839844 C 30.046875 25.878906 30.28125 25.898438 30.515625 25.894531 C 31.492188 25.894531 32.441406 25.554688 33.191406 24.921875 C 34.121094 24.132812 34.65625 22.984375 34.65625 21.765625 C 34.65625 21.203125 34.527344 20.65625 34.300781 20.148438 L 37.851562 20.148438 C 37.839844 30.316406 31.015625 33.714844 30.726562 33.855469 C 30.519531 33.953125 30.390625 34.160156 30.390625 34.386719 L 30.390625 40.324219 C 30.390625 40.648438 30.652344 40.914062 30.980469 40.914062 C 31.308594 40.914062 31.570312 40.648438 31.570312 40.324219 L 31.570312 34.742188 C 33.085938 33.886719 39.035156 29.898438 39.035156 20.121094 C 39.035156 19.960938 39.019531 19.804688 39.015625 19.648438 C 39.019531 19.617188 39.035156 19.589844 39.035156 19.558594 " fill-opacity="1" fill-rule="nonzero"/></g></svg>