<svg xmlns="http://www.w3.org/2000/svg" xmlns:xlink="http://www.w3.org/1999/xlink" width="60" zoomAndPan="magnify" viewBox="0 0 45 44.999999" height="60" preserveAspectRatio="xMidYMid meet" version="1.0"><defs><clipPath id="id1"><path d="M 4.539062 6 L 30.195312 6 L 30.195312 36 L 4.539062 36 Z M 4.539062 6 " clip-rule="nonzero"/></clipPath></defs><path fill="#ffffff" d="M 31.257812 1.351562 L 43.648438 13.742188 L 43.648438 31.265625 L 31.257812 43.648438 L 13.742188 43.648438 L 1.351562 31.257812 L 1.351562 13.742188 L 13.742188 1.351562 L 31.257812 1.351562 M 31.824219 0 L 13.175781 0 L 0 13.175781 L 0 31.816406 L 13.175781 45 L 31.816406 45 L 45 31.824219 L 45 13.175781 Z M 31.824219 0 " fill-opacity="1" fill-rule="nonzero"/><path fill="#ffffff" d="M 31.257812 1.351562 L 43.648438 13.742188 L 43.648438 31.265625 L 31.257812 43.648438 L 13.742188 43.648438 L 1.351562 31.257812 L 1.351562 13.742188 L 13.742188 1.351562 L 31.257812 1.351562 M 31.824219 0 L 13.175781 0 L 0 13.175781 L 0 31.816406 L 13.175781 45 L 31.816406 45 L 45 31.824219 L 45 13.175781 Z M 31.824219 0 " fill-opacity="1" fill-rule="nonzero"/><path fill="#ffffff" d="M 12.929688 21.933594 C 12.929688 21.746094 12.773438 21.589844 12.585938 21.589844 C 12.394531 21.589844 12.238281 21.746094 12.238281 21.933594 C 12.238281 22.585938 11.851562 23.117188 11.371094 23.117188 C 10.898438 23.117188 10.515625 22.585938 10.515625 21.933594 C 10.515625 21.332031 10.25 20.894531 9.996094 20.476562 C 9.707031 20 9.410156 19.507812 9.410156 18.671875 C 9.410156 17.867188 9.867188 17.175781 10.605469 16.859375 C 11.34375 16.546875 12.15625 16.691406 12.726562 17.242188 C 12.863281 17.375 13.082031 17.367188 13.214844 17.234375 C 13.347656 17.09375 13.34375 16.878906 13.207031 16.746094 C 12.433594 16.003906 11.332031 15.804688 10.335938 16.226562 C 9.339844 16.652344 8.71875 17.585938 8.71875 18.671875 C 8.71875 19.699219 9.101562 20.328125 9.40625 20.832031 C 9.640625 21.21875 9.824219 21.523438 9.824219 21.933594 C 9.824219 22.984375 10.503906 23.804688 11.371094 23.804688 C 12.242188 23.804688 12.929688 22.984375 12.929688 21.933594 " fill-opacity="1" fill-rule="nonzero"/><path fill="#ffffff" d="M 19.75 29.890625 C 15.476562 28.023438 12.851562 24.808594 12.824219 24.773438 C 12.707031 24.625 12.488281 24.601562 12.339844 24.722656 C 12.191406 24.839844 12.167969 25.058594 12.289062 25.207031 C 12.398438 25.34375 15.039062 28.582031 19.472656 30.519531 C 19.519531 30.542969 19.566406 30.550781 19.613281 30.550781 C 19.742188 30.550781 19.871094 30.472656 19.925781 30.34375 C 20.003906 30.167969 19.925781 29.96875 19.75 29.890625 " fill-opacity="1" fill-rule="nonzero"/><g clip-path="url(#id1)"><path fill="#ffffff" d="M 28.703125 19.773438 C 27.394531 17.996094 27.394531 17.996094 27.390625 16.542969 C 27.386719 16.269531 27.386719 15.953125 27.378906 15.566406 C 27.261719 11.59375 25.121094 8.453125 21.503906 6.945312 C 17.160156 5.128906 11.832031 5.980469 8.246094 9.058594 C 5.082031 11.777344 3.859375 15.699219 4.902344 19.839844 C 5.542969 21.757812 6.21875 23.203125 6.816406 24.476562 C 8.34375 27.730469 9.265625 29.695312 7.535156 35.292969 C 7.476562 35.472656 7.582031 35.667969 7.761719 35.722656 C 7.945312 35.777344 8.136719 35.675781 8.191406 35.496094 C 10.003906 29.644531 8.984375 27.472656 7.441406 24.183594 C 6.851562 22.925781 6.183594 21.5 5.5625 19.648438 C 4.59375 15.792969 5.734375 12.125 8.695312 9.582031 C 12.085938 6.667969 17.128906 5.863281 21.238281 7.582031 C 24.59375 8.980469 26.582031 11.898438 26.6875 15.585938 C 26.699219 15.964844 26.699219 16.277344 26.699219 16.546875 C 26.707031 18.222656 26.761719 18.296875 28.148438 20.183594 C 28.398438 20.519531 28.6875 20.914062 29.03125 21.390625 C 29.476562 22.011719 29.605469 22.554688 29.425781 23.007812 C 29.113281 23.777344 28.015625 24.136719 27.761719 24.183594 C 27.660156 24.203125 27.570312 24.265625 27.523438 24.359375 C 27.472656 24.449219 27.46875 24.558594 27.507812 24.652344 C 27.660156 25.023438 27.644531 25.433594 27.46875 25.699219 C 27.347656 25.875 27.175781 25.96875 26.953125 25.96875 C 26.824219 25.96875 26.710938 26.035156 26.648438 26.144531 C 26.589844 26.253906 26.59375 26.390625 26.660156 26.496094 C 27.234375 27.394531 27.140625 27.523438 26.957031 27.777344 C 26.75 28.054688 26.472656 28.4375 26.511719 29.3125 C 26.558594 30.410156 26.046875 31.082031 25.039062 31.257812 C 24.53125 31.34375 23.972656 31.320312 23.429688 31.300781 C 22.402344 31.257812 21.339844 31.214844 20.675781 31.953125 C 20.074219 32.625 19.925781 33.820312 20.210938 35.707031 C 20.238281 35.878906 20.386719 36 20.550781 36 C 20.570312 36 20.585938 36 20.605469 35.996094 C 20.792969 35.96875 20.921875 35.792969 20.894531 35.605469 C 20.644531 33.957031 20.742188 32.914062 21.191406 32.414062 C 21.636719 31.917969 22.453125 31.949219 23.402344 31.988281 C 23.980469 32.011719 24.578125 32.035156 25.15625 31.933594 C 26.496094 31.703125 27.261719 30.714844 27.199219 29.28125 C 27.171875 28.648438 27.34375 28.410156 27.511719 28.183594 C 27.851562 27.71875 27.933594 27.355469 27.492188 26.546875 C 27.710938 26.449219 27.898438 26.292969 28.039062 26.078125 C 28.285156 25.714844 28.359375 25.234375 28.257812 24.757812 C 28.832031 24.558594 29.730469 24.09375 30.0625 23.265625 C 30.339844 22.578125 30.179688 21.816406 29.59375 20.988281 C 29.246094 20.511719 28.953125 20.113281 28.703125 19.773438 " fill-opacity="1" fill-rule="nonzero"/></g><path fill="#ffffff" d="M 31.375 23.09375 C 31.242188 23.226562 31.238281 23.445312 31.375 23.582031 C 32.464844 24.683594 32.464844 26.484375 31.371094 27.597656 C 31.238281 27.734375 31.242188 27.953125 31.378906 28.085938 C 31.445312 28.152344 31.53125 28.183594 31.617188 28.183594 C 31.707031 28.183594 31.796875 28.148438 31.863281 28.078125 C 33.21875 26.699219 33.21875 24.464844 31.863281 23.097656 C 31.730469 22.960938 31.511719 22.960938 31.375 23.09375 " fill-opacity="1" fill-rule="nonzero"/><path fill="#ffffff" d="M 34.1875 20.246094 C 34.050781 20.378906 34.050781 20.597656 34.183594 20.730469 C 36.828125 23.414062 36.828125 27.765625 34.183594 30.433594 C 34.050781 30.566406 34.050781 30.785156 34.1875 30.917969 C 34.253906 30.984375 34.34375 31.019531 34.429688 31.019531 C 34.519531 31.019531 34.605469 30.984375 34.675781 30.914062 C 37.582031 27.980469 37.582031 23.195312 34.675781 20.246094 C 34.542969 20.113281 34.320312 20.109375 34.1875 20.246094 " fill-opacity="1" fill-rule="nonzero"/><path fill="#ffffff" d="M 37.5 17.414062 C 37.363281 17.277344 37.148438 17.277344 37.011719 17.410156 C 36.875 17.542969 36.875 17.761719 37.007812 17.894531 C 41.210938 22.132812 41.210938 29.027344 37.007812 33.265625 C 36.875 33.402344 36.875 33.621094 37.011719 33.753906 C 37.078125 33.820312 37.167969 33.851562 37.253906 33.851562 C 37.34375 33.851562 37.429688 33.820312 37.5 33.75 C 41.964844 29.246094 41.964844 21.917969 37.5 17.414062 " fill-opacity="1" fill-rule="nonzero"/></svg>