<svg xmlns="http://www.w3.org/2000/svg" xmlns:xlink="http://www.w3.org/1999/xlink" width="60" zoomAndPan="magnify" viewBox="0 0 45 44.999999" height="60" preserveAspectRatio="xMidYMid meet" version="1.0"><defs><clipPath id="id1"><path d="M 23 7.382812 L 41.105469 7.382812 L 41.105469 37.382812 L 23 37.382812 Z M 23 7.382812 " clip-rule="nonzero"/></clipPath><clipPath id="id2"><path d="M 3.605469 7.382812 L 22 7.382812 L 22 37.382812 L 3.605469 37.382812 Z M 3.605469 7.382812 " clip-rule="nonzero"/></clipPath></defs><path fill="#ffffff" d="M 31.257812 1.351562 L 43.648438 13.742188 L 43.648438 31.265625 L 31.257812 43.648438 L 13.742188 43.648438 L 1.351562 31.257812 L 1.351562 13.742188 L 13.742188 1.351562 L 31.257812 1.351562 M 31.824219 0 L 13.175781 0 L 0 13.175781 L 0 31.816406 L 13.175781 45 L 31.816406 45 L 45 31.824219 L 45 13.175781 Z M 31.824219 0 " fill-opacity="1" fill-rule="nonzero"/><path fill="#ffffff" d="M 31.257812 1.351562 L 43.648438 13.742188 L 43.648438 31.265625 L 31.257812 43.648438 L 13.742188 43.648438 L 1.351562 31.257812 L 1.351562 13.742188 L 13.742188 1.351562 L 31.257812 1.351562 M 31.824219 0 L 13.175781 0 L 0 13.175781 L 0 31.816406 L 13.175781 45 L 31.816406 45 L 45 31.824219 L 45 13.175781 Z M 31.824219 0 " fill-opacity="1" fill-rule="nonzero"/><g clip-path="url(#id1)"><path fill="#ffffff" d="M 37.105469 9.167969 C 36.113281 8.03125 34.671875 7.382812 33.140625 7.382812 C 33.132812 7.382812 33.121094 7.382812 33.109375 7.382812 C 31.578125 7.390625 30.144531 8.050781 29.167969 9.191406 L 28.945312 9.453125 C 27.371094 11.300781 27.382812 13.96875 28.96875 15.808594 C 29.675781 16.625 30.144531 17.597656 30.339844 18.632812 L 29.4375 18.632812 C 27.597656 18.632812 26.101562 17.136719 26.101562 15.300781 C 26.101562 14.839844 25.726562 14.464844 25.269531 14.464844 C 24.8125 14.464844 24.4375 14.839844 24.4375 15.300781 C 24.4375 17.484375 25.84375 19.335938 27.792969 20.015625 C 25.242188 21.273438 23.605469 23.875 23.605469 26.742188 L 23.605469 36.550781 C 23.605469 37.007812 23.980469 37.382812 24.4375 37.382812 C 24.894531 37.382812 25.269531 37.007812 25.269531 36.550781 L 25.269531 26.742188 C 25.269531 24.425781 26.640625 22.324219 28.765625 21.394531 L 30.371094 20.695312 C 30.214844 21.632812 29.839844 22.519531 29.257812 23.300781 C 27.851562 25.183594 27.910156 27.714844 29.394531 29.457031 L 29.621094 29.722656 C 30.613281 30.886719 32.066406 31.550781 33.625 31.550781 C 33.660156 31.550781 33.699219 31.550781 33.742188 31.550781 C 35.300781 31.515625 36.734375 30.816406 37.667969 29.625 C 39.914062 26.753906 41.101562 23.332031 41.101562 19.734375 C 41.101562 15.875 39.679688 12.121094 37.105469 9.167969 Z M 36.351562 28.59375 C 35.726562 29.390625 34.761719 29.863281 33.703125 29.882812 C 32.609375 29.917969 31.578125 29.453125 30.886719 28.644531 L 30.660156 28.378906 C 29.667969 27.214844 29.640625 25.574219 30.589844 24.300781 C 31.585938 22.960938 32.117188 21.382812 32.117188 19.734375 C 32.117188 17.902344 31.445312 16.121094 30.230469 14.71875 C 29.1875 13.511719 29.179688 11.75 30.210938 10.535156 L 30.433594 10.273438 C 31.089844 9.503906 32.070312 9.054688 33.117188 9.050781 C 33.125 9.050781 33.128906 9.050781 33.136719 9.050781 C 34.1875 9.050781 35.171875 9.492188 35.847656 10.261719 C 38.160156 12.910156 39.4375 16.273438 39.4375 19.734375 C 39.4375 22.957031 38.367188 26.019531 36.351562 28.59375 Z M 36.351562 28.59375 " fill-opacity="1" fill-rule="nonzero"/></g><g clip-path="url(#id2)"><path fill="#ffffff" d="M 16.914062 20.015625 C 18.863281 19.335938 20.269531 17.484375 20.269531 15.300781 C 20.269531 14.839844 19.894531 14.464844 19.4375 14.464844 C 18.980469 14.464844 18.605469 14.839844 18.605469 15.300781 C 18.605469 17.136719 17.109375 18.632812 15.269531 18.632812 L 14.367188 18.632812 C 14.5625 17.597656 15.035156 16.625 15.738281 15.808594 C 17.324219 13.96875 17.335938 11.300781 15.761719 9.453125 L 15.542969 9.191406 C 14.566406 8.050781 13.128906 7.390625 11.601562 7.382812 C 10.050781 7.371094 8.601562 8.023438 7.605469 9.167969 C 5.027344 12.121094 3.605469 15.875 3.605469 19.734375 C 3.605469 23.332031 4.792969 26.753906 7.042969 29.621094 C 7.976562 30.8125 9.410156 31.515625 10.972656 31.546875 C 11.007812 31.546875 11.046875 31.546875 11.085938 31.546875 C 12.644531 31.546875 14.101562 30.886719 15.089844 29.71875 L 15.316406 29.453125 C 16.804688 27.710938 16.859375 25.179688 15.453125 23.296875 C 14.871094 22.511719 14.492188 21.625 14.339844 20.691406 L 15.945312 21.390625 C 18.066406 22.328125 19.4375 24.425781 19.4375 26.742188 L 19.4375 36.550781 C 19.4375 37.007812 19.8125 37.382812 20.269531 37.382812 C 20.730469 37.382812 21.105469 37.007812 21.105469 36.550781 L 21.105469 26.742188 C 21.105469 23.875 19.464844 21.273438 16.914062 20.015625 Z M 14.046875 28.378906 L 13.820312 28.644531 C 13.128906 29.453125 12.105469 29.910156 11.003906 29.882812 C 9.945312 29.863281 8.980469 29.390625 8.355469 28.59375 C 6.339844 26.019531 5.273438 22.957031 5.273438 19.734375 C 5.273438 16.273438 6.546875 12.910156 8.859375 10.261719 C 9.535156 9.492188 10.515625 9.050781 11.570312 9.050781 C 11.578125 9.050781 11.582031 9.050781 11.59375 9.050781 C 12.636719 9.054688 13.617188 9.503906 14.273438 10.273438 L 14.496094 10.53125 C 15.535156 11.746094 15.523438 13.507812 14.476562 14.714844 C 13.257812 16.121094 12.59375 17.898438 12.59375 19.730469 C 12.59375 21.378906 13.117188 22.957031 14.117188 24.296875 C 15.066406 25.574219 15.039062 27.214844 14.046875 28.378906 Z M 14.046875 28.378906 " fill-opacity="1" fill-rule="nonzero"/></g></svg>