<svg xmlns="http://www.w3.org/2000/svg" xmlns:xlink="http://www.w3.org/1999/xlink" width="60" zoomAndPan="magnify" viewBox="0 0 45 44.999999" height="60" preserveAspectRatio="xMidYMid meet" version="1.0"><defs><clipPath id="id1"><path d="M 7 6.25 L 38 6.25 L 38 38.5 L 7 38.5 Z M 7 6.25 " clip-rule="nonzero"/></clipPath></defs><path fill="#ffffff" d="M 31.257812 1.351562 L 43.648438 13.742188 L 43.648438 31.265625 L 31.257812 43.648438 L 13.742188 43.648438 L 1.351562 31.257812 L 1.351562 13.742188 L 13.742188 1.351562 L 31.257812 1.351562 M 31.824219 0 L 13.175781 0 L 0 13.175781 L 0 31.816406 L 13.175781 45 L 31.816406 45 L 45 31.824219 L 45 13.175781 Z M 31.824219 0 " fill-opacity="1" fill-rule="nonzero"/><path fill="#ffffff" d="M 31.257812 1.351562 L 43.648438 13.742188 L 43.648438 31.265625 L 31.257812 43.648438 L 13.742188 43.648438 L 1.351562 31.257812 L 1.351562 13.742188 L 13.742188 1.351562 L 31.257812 1.351562 M 31.824219 0 L 13.175781 0 L 0 13.175781 L 0 31.816406 L 13.175781 45 L 31.816406 45 L 45 31.824219 L 45 13.175781 Z M 31.824219 0 " fill-opacity="1" fill-rule="nonzero"/><g clip-path="url(#id1)"><path fill="#ffffff" d="M 9.128906 20.691406 C 9.238281 20.65625 9.335938 20.621094 9.457031 20.585938 C 9.300781 20.050781 9.152344 19.519531 9.003906 18.992188 C 8.398438 16.898438 7.796875 14.800781 7.191406 12.695312 C 6.617188 10.691406 7.367188 8.46875 8.96875 7.382812 C 9.714844 6.871094 10.542969 6.675781 11.4375 6.726562 C 11.636719 6.742188 11.808594 6.726562 12.015625 6.59375 C 12.277344 6.421875 12.640625 6.359375 12.964844 6.328125 C 13.335938 6.292969 13.5 6.570312 13.492188 7.097656 C 13.484375 7.644531 13.335938 7.878906 12.953125 7.851562 C 12.574219 7.820312 12.191406 7.773438 11.894531 7.480469 C 11.863281 7.453125 11.800781 7.445312 11.75 7.4375 C 9.796875 7.253906 8.269531 8.375 7.824219 10.316406 C 7.625 11.160156 7.710938 11.984375 7.953125 12.808594 C 8.667969 15.277344 9.371094 17.75 10.089844 20.214844 C 10.105469 20.273438 10.132812 20.328125 10.152344 20.40625 C 10.261719 20.394531 10.359375 20.378906 10.488281 20.355469 C 10.578125 20.726562 10.671875 21.097656 10.769531 21.464844 C 11.027344 22.433594 11.296875 23.398438 11.828125 24.257812 C 12.453125 25.28125 13.378906 25.816406 14.5625 25.863281 C 15.027344 25.886719 15.496094 25.863281 15.949219 25.792969 C 16.859375 25.644531 17.539062 25.140625 18.039062 24.371094 C 18.5625 23.5625 18.839844 22.660156 19.089844 21.742188 C 19.214844 21.289062 19.328125 20.828125 19.449219 20.355469 C 19.558594 20.371094 19.65625 20.386719 19.792969 20.40625 C 19.898438 20.039062 20.003906 19.675781 20.109375 19.304688 C 20.773438 17.023438 21.445312 14.742188 22.078125 12.453125 C 22.476562 11.019531 22.183594 9.699219 21.226562 8.554688 C 20.574219 7.777344 19.71875 7.386719 18.699219 7.429688 C 18.429688 7.445312 18.164062 7.394531 17.894531 7.609375 C 17.683594 7.777344 17.339844 7.8125 17.050781 7.855469 C 16.703125 7.90625 16.46875 7.671875 16.453125 7.316406 C 16.445312 7.175781 16.453125 7.03125 16.453125 6.898438 C 16.460938 6.507812 16.722656 6.25 17.101562 6.335938 C 17.425781 6.414062 17.804688 6.414062 18.050781 6.707031 C 18.085938 6.75 18.199219 6.726562 18.273438 6.734375 C 18.761719 6.769531 19.265625 6.726562 19.734375 6.839844 C 21.359375 7.261719 22.285156 8.402344 22.746094 9.960938 C 23.015625 10.871094 23 11.792969 22.738281 12.710938 C 22.007812 15.246094 21.28125 17.785156 20.558594 20.320312 C 20.539062 20.398438 20.507812 20.472656 20.480469 20.5625 C 20.585938 20.605469 20.6875 20.648438 20.808594 20.699219 C 20.417969 22.203125 20.097656 23.738281 19.246094 25.082031 C 18.46875 26.304688 17.363281 27.015625 15.941406 27.242188 C 15.863281 27.257812 15.75 27.363281 15.730469 27.441406 C 15.574219 28.054688 15.457031 28.671875 15.496094 29.3125 C 15.542969 30.191406 15.488281 31.09375 15.621094 31.960938 C 16.035156 34.542969 18.277344 36.632812 20.871094 36.945312 C 24.265625 37.355469 27.257812 35.117188 27.808594 31.75 C 27.859375 31.464844 27.882812 31.171875 27.882812 30.882812 C 27.886719 28.679688 27.851562 26.476562 27.886719 24.273438 C 27.9375 21.195312 29.386719 18.972656 32.144531 17.605469 C 32.285156 17.535156 32.347656 17.457031 32.355469 17.292969 C 32.421875 16.058594 33.378906 14.984375 34.550781 14.773438 C 35.703125 14.558594 36.644531 14.890625 37.34375 15.808594 C 38.03125 16.710938 38.117188 17.722656 37.613281 18.738281 C 37.09375 19.773438 36.210938 20.300781 35.054688 20.273438 C 33.996094 20.25 33.207031 19.738281 32.675781 18.824219 C 32.632812 18.75 32.589844 18.671875 32.539062 18.582031 C 31.523438 19.050781 30.707031 19.730469 30.070312 20.632812 C 29.308594 21.707031 28.933594 22.902344 28.925781 24.214844 C 28.917969 26.382812 28.925781 28.550781 28.925781 30.726562 C 28.925781 34.386719 26.417969 37.355469 22.808594 37.980469 C 19.804688 38.5 16.636719 36.886719 15.261719 34.179688 C 14.699219 33.0625 14.414062 31.90625 14.429688 30.660156 C 14.4375 30.207031 14.40625 29.746094 14.4375 29.289062 C 14.472656 28.65625 14.351562 28.054688 14.195312 27.449219 C 14.171875 27.371094 14.082031 27.265625 14.011719 27.257812 C 12.292969 26.996094 11.105469 26.027344 10.332031 24.5 C 9.796875 23.441406 9.507812 22.304688 9.230469 21.160156 C 9.203125 21.011719 9.167969 20.855469 9.128906 20.691406 Z M 33.085938 17.230469 C 33.449219 17.1875 33.710938 17.101562 33.898438 16.734375 C 34.230469 16.070312 35.078125 15.851562 35.742188 16.171875 C 36.417969 16.484375 36.753906 17.257812 36.511719 17.960938 C 36.3125 18.523438 35.90625 18.863281 35.316406 18.941406 C 34.757812 19.019531 34.296875 18.824219 33.960938 18.367188 C 33.832031 18.191406 33.71875 18.148438 33.527344 18.226562 C 33.4375 18.269531 33.335938 18.28125 33.238281 18.316406 C 33.5625 19.21875 34.644531 19.761719 35.601562 19.519531 C 36.660156 19.257812 37.34375 18.261719 37.191406 17.203125 C 37.042969 16.164062 36.113281 15.367188 35.082031 15.402344 C 34.046875 15.441406 33.144531 16.25 33.085938 17.230469 Z M 33.085938 17.230469 " fill-opacity="1" fill-rule="nonzero"/></g></svg>