<svg xmlns="http://www.w3.org/2000/svg" xmlns:xlink="http://www.w3.org/1999/xlink" width="60" zoomAndPan="magnify" viewBox="0 0 45 44.999999" height="60" preserveAspectRatio="xMidYMid meet" version="1.0"><defs><clipPath id="id1"><path d="M 11.085938 17 L 29 17 L 29 33 L 11.085938 33 Z M 11.085938 17 " clip-rule="nonzero"/></clipPath><clipPath id="id2"><path d="M 11.085938 15 L 33.585938 15 L 33.585938 42.707031 L 11.085938 42.707031 Z M 11.085938 15 " clip-rule="nonzero"/></clipPath><clipPath id="id3"><path d="M 17 2.207031 L 27 2.207031 L 27 15 L 17 15 Z M 17 2.207031 " clip-rule="nonzero"/></clipPath></defs><path fill="#ffffff" d="M 31.257812 1.351562 L 43.648438 13.742188 L 43.648438 31.265625 L 31.257812 43.648438 L 13.742188 43.648438 L 1.351562 31.257812 L 1.351562 13.742188 L 13.742188 1.351562 L 31.257812 1.351562 M 31.824219 0 L 13.175781 0 L 0 13.175781 L 0 31.816406 L 13.175781 45 L 31.816406 45 L 45 31.824219 L 45 13.175781 Z M 31.824219 0 " fill-opacity="1" fill-rule="nonzero"/><path fill="#ffffff" d="M 31.257812 1.351562 L 43.648438 13.742188 L 43.648438 31.265625 L 31.257812 43.648438 L 13.742188 43.648438 L 1.351562 31.257812 L 1.351562 13.742188 L 13.742188 1.351562 L 31.257812 1.351562 M 31.824219 0 L 13.175781 0 L 0 13.175781 L 0 31.816406 L 13.175781 45 L 31.816406 45 L 45 31.824219 L 45 13.175781 Z M 31.824219 0 " fill-opacity="1" fill-rule="nonzero"/><g clip-path="url(#id1)"><path fill="#ffffff" d="M 24.65625 31.183594 C 24.804688 31.613281 24.511719 32.070312 24.058594 32.101562 C 22.550781 32.210938 19.308594 32.417969 16.574219 32.472656 C 16.148438 32.484375 15.070312 32.484375 14.679688 32.484375 C 14 32.484375 13.386719 32.472656 12.878906 32.433594 L 12.824219 32.433594 C 12.070312 32.40625 11.4375 31.910156 11.203125 31.226562 C 11.144531 31.042969 11.105469 30.839844 11.109375 30.632812 C 11.117188 29.914062 11.0625 28.277344 11.136719 27.726562 C 11.15625 27.609375 11.175781 27.5 11.191406 27.414062 C 12.359375 27.339844 14.320312 27.285156 15.625 27.230469 C 15.917969 27.214844 16.214844 27.203125 16.507812 27.191406 C 17.554688 27.148438 18.585938 27.097656 19.535156 27.035156 C 19.78125 27.011719 20.023438 26.992188 20.265625 26.988281 C 22.425781 24.234375 25.820312 19.644531 27.300781 17.464844 C 27.625 17.550781 27.933594 17.632812 28.203125 17.722656 C 28.214844 17.730469 28.246094 17.742188 28.265625 17.75 L 28.300781 17.765625 C 28.503906 17.851562 28.703125 17.933594 28.898438 18.015625 C 27.675781 19.847656 24.039062 24.488281 21.902344 27.191406 C 23.101562 27.691406 24.148438 29.707031 24.65625 31.183594 " fill-opacity="1" fill-rule="nonzero"/></g><g clip-path="url(#id2)"><path fill="#ffffff" d="M 33.488281 31.085938 C 33.476562 30.421875 33.464844 29.734375 33.464844 29.0625 C 33.464844 28.882812 33.464844 28.703125 33.460938 28.519531 C 33.457031 25.519531 33.449219 22.414062 32.648438 19.433594 C 32.34375 18.28125 31.621094 17.390625 30.5625 16.859375 C 30.046875 16.601562 29.507812 16.378906 28.992188 16.167969 C 28.953125 16.148438 28.871094 16.113281 28.800781 16.089844 C 28.335938 15.941406 27.785156 15.792969 27.203125 15.65625 C 26.871094 15.582031 26.53125 15.515625 26.191406 15.453125 C 25.527344 15.339844 24.863281 15.574219 24.417969 16.085938 L 22.054688 18.785156 C 21.550781 18.226562 20.519531 17.078125 19.734375 16.1875 C 19.292969 15.679688 18.609375 15.441406 17.949219 15.558594 C 17.785156 15.589844 17.628906 15.617188 17.476562 15.648438 C 14.367188 16.28125 12.535156 17.554688 12.03125 19.433594 C 11.296875 22.179688 11.234375 24.148438 11.222656 26.835938 L 12.386719 26.839844 C 12.398438 24.167969 12.457031 22.355469 13.15625 19.742188 C 13.535156 18.332031 15.066406 17.347656 17.707031 16.804688 C 17.847656 16.777344 18 16.75 18.15625 16.722656 C 18.417969 16.675781 18.6875 16.769531 18.863281 16.96875 C 19.835938 18.078125 21.191406 19.574219 21.453125 19.863281 C 21.605469 20.035156 21.828125 20.132812 22.058594 20.132812 C 22.058594 20.132812 22.0625 20.132812 22.0625 20.132812 C 22.296875 20.132812 22.519531 20.03125 22.675781 19.855469 L 25.292969 16.871094 C 25.46875 16.667969 25.730469 16.574219 25.992188 16.621094 C 26.316406 16.675781 26.636719 16.738281 26.945312 16.808594 C 27.496094 16.9375 28.015625 17.074219 28.445312 17.214844 C 28.460938 17.21875 28.488281 17.230469 28.511719 17.242188 L 28.546875 17.257812 C 29.070312 17.472656 29.566406 17.675781 30.046875 17.914062 C 30.808594 18.296875 31.304688 18.914062 31.527344 19.742188 C 32.28125 22.574219 32.289062 25.597656 32.296875 28.523438 C 32.296875 28.703125 32.296875 28.886719 32.296875 29.066406 C 32.300781 29.746094 32.3125 30.4375 32.324219 31.105469 C 32.34375 32.460938 32.367188 33.859375 32.316406 35.226562 C 31.765625 35.289062 31.015625 35.335938 30.589844 35.308594 C 30.441406 35.300781 30.347656 35.289062 30.289062 35.28125 C 30.277344 35.238281 30.269531 35.1875 30.265625 35.152344 L 30.117188 32.957031 L 30.113281 32.949219 C 30 31.542969 29.882812 30.132812 29.769531 28.726562 L 29.511719 25.589844 L 28.351562 25.6875 L 28.609375 28.824219 C 28.722656 30.230469 28.839844 31.636719 28.953125 33.042969 L 29.105469 35.261719 L 29.109375 35.308594 C 29.140625 35.507812 29.175781 35.742188 29.292969 35.953125 C 29.386719 36.953125 29.476562 38.347656 29.480469 39.3125 C 29.480469 39.796875 29.371094 40.164062 29.15625 40.40625 C 28.6875 40.914062 27.910156 41.109375 27.285156 41.21875 C 26.40625 41.371094 25.457031 41.390625 24.542969 41.414062 L 24.320312 41.414062 C 24.207031 41.417969 23.820312 41.421875 23.445312 41.425781 C 22.980469 41.429688 22.5 41.429688 22.359375 41.4375 L 22.289062 41.4375 C 22.046875 41.429688 21.804688 41.421875 21.570312 41.414062 L 21.347656 41.414062 C 20.429688 41.390625 19.484375 41.371094 18.601562 41.21875 C 17.976562 41.109375 17.203125 40.914062 16.738281 40.40625 C 16.515625 40.164062 16.40625 39.796875 16.410156 39.3125 C 16.414062 38.28125 16.519531 37.238281 16.621094 36.226562 C 16.667969 35.75 16.722656 35.261719 16.773438 34.792969 C 16.824219 34.3125 16.878906 33.816406 16.929688 33.328125 L 15.765625 33.207031 C 15.71875 33.695312 15.667969 34.1875 15.617188 34.664062 C 15.5625 35.136719 15.511719 35.625 15.460938 36.105469 C 15.355469 37.144531 15.25 38.21875 15.242188 39.304688 C 15.242188 40.097656 15.453125 40.738281 15.878906 41.203125 C 16.582031 41.976562 17.597656 42.238281 18.402344 42.378906 C 19.371094 42.546875 20.363281 42.570312 21.324219 42.589844 L 21.542969 42.597656 C 21.605469 42.597656 21.664062 42.597656 21.726562 42.601562 L 21.726562 42.640625 L 22.332031 42.617188 L 22.335938 42.617188 C 22.339844 42.617188 22.34375 42.617188 22.347656 42.617188 L 22.957031 42.636719 L 22.957031 42.609375 C 23.113281 42.609375 23.289062 42.605469 23.453125 42.605469 C 23.851562 42.601562 24.226562 42.597656 24.347656 42.597656 L 24.566406 42.589844 C 25.527344 42.570312 26.519531 42.546875 27.484375 42.378906 C 28.289062 42.238281 29.304688 41.976562 30.011719 41.203125 C 30.433594 40.738281 30.648438 40.097656 30.644531 39.304688 C 30.640625 38.503906 30.582031 37.417969 30.507812 36.484375 C 30.511719 36.484375 30.515625 36.484375 30.519531 36.484375 C 30.625 36.492188 30.742188 36.496094 30.867188 36.496094 C 31.410156 36.496094 32.117188 36.441406 32.605469 36.382812 C 32.792969 36.355469 33.109375 36.3125 33.308594 36.03125 C 33.457031 35.824219 33.464844 35.597656 33.476562 35.339844 L 33.476562 35.316406 C 33.53125 33.902344 33.507812 32.46875 33.488281 31.085938 " fill-opacity="1" fill-rule="nonzero"/></g><path fill="#ffffff" d="M 26.609375 29.367188 C 26.625 29.996094 26.394531 30.59375 25.96875 31.054688 C 25.757812 31.285156 25.503906 31.460938 25.230469 31.582031 C 25.199219 31.597656 25.207031 31.320312 25.160156 31.167969 C 25.089844 30.925781 25.007812 30.675781 24.917969 30.417969 C 24.992188 30.371094 25.058594 30.308594 25.125 30.242188 C 25.335938 30.011719 25.457031 29.714844 25.445312 29.402344 C 25.433594 29.085938 25.304688 28.789062 25.078125 28.578125 C 24.875 28.382812 24.617188 28.269531 24.339844 28.253906 C 24.3125 28.25 24.28125 28.25 24.25 28.253906 L 23.863281 28.261719 C 23.527344 27.757812 23.152344 27.34375 22.75 27.109375 L 24.21875 27.070312 C 24.84375 27.054688 25.433594 27.285156 25.882812 27.722656 C 26.335938 28.152344 26.597656 28.738281 26.609375 29.367188 " fill-opacity="1" fill-rule="nonzero"/><g clip-path="url(#id3)"><path fill="#ffffff" d="M 20.285156 12.507812 C 20.710938 12.914062 21.261719 13.125 21.832031 13.097656 L 21.875 13.097656 C 22.449219 13.109375 23.019531 12.886719 23.476562 12.460938 C 24.039062 11.933594 24.445312 11.410156 24.71875 10.855469 C 25.375 9.503906 25.710938 8.199219 25.757812 6.867188 C 25.757812 6.796875 25.761719 6.730469 25.765625 6.660156 C 25.769531 6.53125 25.777344 6.410156 25.769531 6.300781 C 25.679688 5.054688 25.089844 4.265625 23.917969 3.824219 C 23.382812 3.621094 22.78125 3.519531 22.128906 3.519531 C 21.472656 3.535156 20.863281 3.648438 20.3125 3.863281 C 19.113281 4.335938 18.457031 5.171875 18.304688 6.421875 C 18.292969 6.53125 18.292969 6.65625 18.292969 6.785156 C 18.292969 6.851562 18.292969 6.917969 18.292969 6.988281 C 18.269531 8.316406 18.546875 9.613281 19.132812 10.945312 C 19.375 11.488281 19.75 12 20.285156 12.507812 Z M 21.730469 14.28125 C 20.898438 14.28125 20.105469 13.957031 19.488281 13.367188 C 18.835938 12.753906 18.375 12.117188 18.070312 11.429688 C 17.421875 9.953125 17.101562 8.453125 17.125 6.964844 L 17.125 6.960938 C 17.128906 6.898438 17.128906 6.84375 17.128906 6.785156 C 17.128906 6.632812 17.128906 6.460938 17.152344 6.28125 C 17.355469 4.578125 18.28125 3.394531 19.894531 2.761719 C 20.570312 2.496094 21.316406 2.355469 22.109375 2.339844 L 22.125 2.339844 C 22.917969 2.339844 23.65625 2.46875 24.324219 2.71875 C 25.90625 3.316406 26.808594 4.523438 26.929688 6.214844 C 26.945312 6.398438 26.9375 6.566406 26.929688 6.722656 C 26.925781 6.777344 26.925781 6.835938 26.921875 6.898438 L 26.921875 6.902344 C 26.871094 8.386719 26.484375 9.890625 25.765625 11.375 C 25.425781 12.066406 24.9375 12.707031 24.265625 13.328125 C 23.589844 13.957031 22.738281 14.292969 21.863281 14.277344 C 21.820312 14.277344 21.777344 14.28125 21.730469 14.28125 " fill-opacity="1" fill-rule="nonzero"/></g></svg>