<svg xmlns="http://www.w3.org/2000/svg" xmlns:xlink="http://www.w3.org/1999/xlink" width="60" zoomAndPan="magnify" viewBox="0 0 45 44.999999" height="60" preserveAspectRatio="xMidYMid meet" version="1.0"><defs><clipPath id="id1"><path d="M 7.4375 6.726562 L 37.4375 6.726562 L 37.4375 38.226562 L 7.4375 38.226562 Z M 7.4375 6.726562 " clip-rule="nonzero"/></clipPath></defs><path fill="#ffffff" d="M 31.257812 1.351562 L 43.648438 13.742188 L 43.648438 31.265625 L 31.257812 43.648438 L 13.742188 43.648438 L 1.351562 31.257812 L 1.351562 13.742188 L 13.742188 1.351562 L 31.257812 1.351562 M 31.824219 0 L 13.175781 0 L 0 13.175781 L 0 31.816406 L 13.175781 45 L 31.816406 45 L 45 31.824219 L 45 13.175781 Z M 31.824219 0 " fill-opacity="1" fill-rule="nonzero"/><path fill="#ffffff" d="M 31.257812 1.351562 L 43.648438 13.742188 L 43.648438 31.265625 L 31.257812 43.648438 L 13.742188 43.648438 L 1.351562 31.257812 L 1.351562 13.742188 L 13.742188 1.351562 L 31.257812 1.351562 M 31.824219 0 L 13.175781 0 L 0 13.175781 L 0 31.816406 L 13.175781 45 L 31.816406 45 L 45 31.824219 L 45 13.175781 Z M 31.824219 0 " fill-opacity="1" fill-rule="nonzero"/><g clip-path="url(#id1)"><path fill="#ffffff" d="M 32.867188 25.210938 C 32.355469 25.207031 31.855469 25.277344 31.367188 25.417969 C 31.433594 24.664062 31.84375 23.160156 33.410156 23.160156 C 33.820312 23.160156 34.09375 22.886719 34.09375 22.476562 C 34.09375 22.066406 33.820312 21.792969 33.410156 21.792969 C 31.839844 21.792969 30.890625 22.683594 30.480469 23.777344 C 30.34375 23.570312 30.207031 23.367188 30.003906 23.230469 L 30.003906 10.171875 C 30.003906 9.011719 29.117188 8.121094 27.957031 8.121094 L 23.1875 8.121094 C 23.1875 7.941406 23.152344 7.765625 23.082031 7.597656 C 23.011719 7.429688 22.914062 7.285156 22.785156 7.15625 C 22.660156 7.027344 22.511719 6.929688 22.34375 6.859375 C 22.179688 6.789062 22.003906 6.753906 21.824219 6.753906 L 15.6875 6.753906 C 15.507812 6.753906 15.332031 6.789062 15.164062 6.859375 C 15 6.929688 14.851562 7.027344 14.722656 7.15625 C 14.59375 7.28125 14.496094 7.429688 14.425781 7.597656 C 14.355469 7.765625 14.324219 7.941406 14.320312 8.121094 L 9.480469 8.121094 C 8.320312 8.121094 7.433594 9.011719 7.433594 10.171875 L 7.433594 34.097656 C 7.433594 35.261719 8.320312 36.148438 9.480469 36.148438 L 25.4375 36.148438 C 26.253906 37.378906 27.34375 38.199219 28.707031 38.199219 C 29.527344 38.199219 30.003906 38.0625 30.617188 37.789062 C 31.230469 38.0625 31.707031 38.199219 32.527344 38.199219 C 35.664062 38.199219 37.433594 33.6875 37.433594 30.613281 C 37.433594 27.125 35.800781 25.210938 32.867188 25.210938 Z M 27.28125 25.347656 C 26.734375 24.664062 26.597656 23.773438 26.53125 23.160156 C 27.210938 23.226562 28.230469 23.433594 28.984375 24.117188 C 29.324219 24.460938 29.527344 24.9375 29.734375 25.347656 C 29.304688 25.265625 28.875 25.21875 28.4375 25.210938 C 28.046875 25.214844 27.660156 25.261719 27.28125 25.347656 Z M 15.621094 8.121094 L 21.753906 8.121094 L 21.753906 9.488281 L 15.621094 9.488281 Z M 9.484375 34.78125 C 9.074219 34.78125 8.800781 34.507812 8.800781 34.097656 L 8.800781 10.171875 C 8.800781 9.761719 9.074219 9.488281 9.484375 9.488281 L 14.257812 9.488281 C 14.257812 9.667969 14.292969 9.84375 14.359375 10.011719 C 14.429688 10.179688 14.527344 10.324219 14.65625 10.453125 C 14.785156 10.582031 14.933594 10.679688 15.097656 10.75 C 15.265625 10.820312 15.4375 10.855469 15.621094 10.855469 L 21.753906 10.855469 C 21.9375 10.855469 22.109375 10.820312 22.277344 10.75 C 22.441406 10.679688 22.589844 10.582031 22.71875 10.453125 C 22.84375 10.324219 22.945312 10.179688 23.011719 10.011719 C 23.082031 9.84375 23.117188 9.667969 23.117188 9.488281 L 27.890625 9.488281 C 28.300781 9.488281 28.574219 9.761719 28.574219 10.171875 L 28.574219 22.273438 C 27.210938 21.65625 25.84375 21.726562 25.777344 21.726562 C 25.609375 21.722656 25.460938 21.785156 25.34375 21.90625 C 25.222656 22.023438 25.164062 22.171875 25.164062 22.339844 C 25.164062 22.40625 25.097656 24.253906 25.980469 25.757812 C 24.550781 26.578125 23.800781 28.21875 23.800781 30.542969 C 23.800781 31.84375 24.140625 33.347656 24.6875 34.714844 L 9.484375 34.714844 Z M 32.527344 36.832031 C 31.84375 36.832031 31.503906 36.695312 30.890625 36.421875 C 30.824219 36.355469 30.6875 36.355469 30.617188 36.355469 C 30.546875 36.355469 30.414062 36.355469 30.34375 36.421875 C 29.730469 36.695312 29.390625 36.832031 28.707031 36.832031 C 26.730469 36.832031 25.164062 33.414062 25.164062 30.613281 C 25.164062 26.578125 27.617188 26.578125 28.371094 26.578125 C 29.058594 26.578125 29.714844 26.714844 30.347656 26.988281 C 30.550781 27.054688 30.753906 27.054688 30.890625 26.988281 C 31.523438 26.714844 32.179688 26.578125 32.867188 26.578125 C 33.6875 26.578125 36.074219 26.578125 36.074219 30.613281 C 36.070312 33.414062 34.503906 36.832031 32.527344 36.832031 Z M 12.890625 12.90625 C 11.734375 12.90625 10.847656 13.796875 10.847656 14.957031 C 10.847656 16.121094 11.734375 17.007812 12.890625 17.007812 C 14.050781 17.007812 14.9375 16.121094 14.9375 14.957031 C 14.9375 13.796875 14.050781 12.90625 12.894531 12.90625 Z M 12.890625 15.640625 C 12.484375 15.640625 12.210938 15.367188 12.210938 14.957031 C 12.210938 14.546875 12.484375 14.273438 12.894531 14.273438 C 13.300781 14.273438 13.574219 14.546875 13.574219 14.957031 C 13.574219 15.367188 13.300781 15.640625 12.894531 15.640625 Z M 16.984375 14.957031 C 16.984375 14.546875 17.253906 14.273438 17.664062 14.273438 L 25.84375 14.273438 C 26.253906 14.273438 26.527344 14.546875 26.527344 14.957031 C 26.527344 15.367188 26.253906 15.640625 25.84375 15.640625 L 17.664062 15.640625 C 17.253906 15.640625 16.984375 15.367188 16.984375 14.957031 Z M 12.890625 18.375 C 11.734375 18.375 10.847656 19.265625 10.847656 20.425781 C 10.847656 21.589844 11.734375 22.476562 12.894531 22.476562 C 14.050781 22.476562 14.9375 21.589844 14.9375 20.425781 C 14.9375 19.265625 14.050781 18.375 12.894531 18.375 Z M 12.890625 21.109375 C 12.484375 21.109375 12.210938 20.835938 12.210938 20.425781 C 12.210938 20.015625 12.484375 19.742188 12.890625 19.742188 C 13.300781 19.742188 13.574219 20.015625 13.574219 20.425781 C 13.574219 20.835938 13.300781 21.109375 12.894531 21.109375 Z M 16.984375 20.425781 C 16.984375 20.015625 17.253906 19.742188 17.664062 19.742188 L 25.84375 19.742188 C 26.253906 19.742188 26.527344 20.015625 26.527344 20.425781 C 26.527344 20.835938 26.253906 21.109375 25.84375 21.109375 L 17.664062 21.109375 C 17.253906 21.109375 16.984375 20.835938 16.984375 20.425781 Z M 12.890625 23.84375 C 11.734375 23.84375 10.847656 24.734375 10.847656 25.894531 C 10.847656 27.058594 11.734375 27.945312 12.890625 27.945312 C 14.050781 27.945312 14.9375 27.058594 14.9375 25.894531 C 14.9375 24.734375 14.050781 23.84375 12.894531 23.84375 Z M 12.890625 26.578125 C 12.484375 26.578125 12.210938 26.304688 12.210938 25.894531 C 12.210938 25.484375 12.484375 25.210938 12.890625 25.210938 C 13.300781 25.210938 13.574219 25.484375 13.574219 25.894531 C 13.574219 26.304688 13.300781 26.578125 12.894531 26.578125 Z M 23.117188 25.894531 C 23.117188 26.304688 22.84375 26.578125 22.4375 26.578125 L 17.664062 26.578125 C 17.253906 26.578125 16.984375 26.304688 16.984375 25.894531 C 16.984375 25.484375 17.253906 25.210938 17.664062 25.210938 L 22.4375 25.210938 C 22.847656 25.210938 23.117188 25.484375 23.117188 25.894531 Z M 23.117188 25.894531 " fill-opacity="1" fill-rule="nonzero"/></g></svg>