<svg xmlns="http://www.w3.org/2000/svg" xmlns:xlink="http://www.w3.org/1999/xlink" width="60" zoomAndPan="magnify" viewBox="0 0 45 44.999999" height="60" preserveAspectRatio="xMidYMid meet" version="1.0"><defs><clipPath id="id1"><path d="M 8.097656 2.25 L 36.597656 2.25 L 36.597656 42.75 L 8.097656 42.75 Z M 8.097656 2.25 " clip-rule="nonzero"/></clipPath></defs><path fill="#ffffff" d="M 31.257812 1.351562 L 43.648438 13.742188 L 43.648438 31.265625 L 31.257812 43.648438 L 13.742188 43.648438 L 1.351562 31.257812 L 1.351562 13.742188 L 13.742188 1.351562 L 31.257812 1.351562 M 31.824219 0 L 13.175781 0 L 0 13.175781 L 0 31.816406 L 13.175781 45 L 31.816406 45 L 45 31.824219 L 45 13.175781 Z M 31.824219 0 " fill-opacity="1" fill-rule="nonzero"/><path fill="#ffffff" d="M 31.257812 1.351562 L 43.648438 13.742188 L 43.648438 31.265625 L 31.257812 43.648438 L 13.742188 43.648438 L 1.351562 31.257812 L 1.351562 13.742188 L 13.742188 1.351562 L 31.257812 1.351562 M 31.824219 0 L 13.175781 0 L 0 13.175781 L 0 31.816406 L 13.175781 45 L 31.816406 45 L 45 31.824219 L 45 13.175781 Z M 31.824219 0 " fill-opacity="1" fill-rule="nonzero"/><path fill="#ffffff" d="M 32.597656 17.574219 C 33.199219 18.128906 33.261719 19.328125 32.742188 20.074219 C 32.328125 20.671875 31.738281 21.023438 31.03125 21.148438 C 30.242188 21.285156 29.402344 20.722656 29.082031 19.875 C 28.792969 19.105469 29.050781 18.261719 29.722656 17.824219 C 30.085938 17.589844 30.476562 17.488281 30.886719 17.703125 C 31.257812 17.898438 31.507812 18.199219 31.535156 18.644531 C 31.542969 18.769531 31.578125 18.945312 31.421875 18.992188 C 31.269531 19.039062 31.246094 18.863281 31.191406 18.765625 C 30.996094 18.425781 30.738281 18.203125 30.320312 18.28125 C 29.957031 18.351562 29.703125 18.6875 29.660156 19.136719 C 29.566406 20.082031 30.492188 20.785156 31.421875 20.480469 C 32.445312 20.140625 32.960938 19.121094 32.691406 17.953125 C 32.660156 17.828125 32.667969 17.695312 32.597656 17.574219 " fill-opacity="1" fill-rule="nonzero"/><path fill="#ffffff" d="M 26.914062 25.730469 C 26.914062 25.699219 26.910156 25.628906 26.925781 25.566406 C 26.949219 25.480469 26.964844 25.363281 27.074219 25.359375 C 27.164062 25.359375 27.183594 25.464844 27.214844 25.53125 C 27.523438 26.148438 27.9375 26.644531 28.632812 26.824219 C 28.8125 26.871094 28.792969 26.96875 28.679688 27.074219 C 28.433594 27.300781 28.152344 27.292969 27.867188 27.179688 C 27.363281 26.976562 26.921875 26.316406 26.914062 25.730469 " fill-opacity="1" fill-rule="nonzero"/><path fill="#ffffff" d="M 25.003906 23.648438 C 24.433594 23.644531 23.703125 23.054688 23.582031 22.492188 C 23.539062 22.296875 23.535156 22.09375 23.640625 21.910156 C 23.703125 21.800781 23.777344 21.675781 23.894531 21.679688 C 24.050781 21.679688 24.011719 21.851562 24.039062 21.957031 C 24.195312 22.578125 24.609375 22.988281 25.121094 23.324219 C 25.199219 23.378906 25.335938 23.390625 25.320312 23.53125 C 25.3125 23.59375 25.148438 23.652344 25.003906 23.648438 " fill-opacity="1" fill-rule="nonzero"/><path fill="#ffffff" d="M 24.925781 26.644531 C 24.441406 26.898438 24.050781 26.824219 23.761719 26.472656 C 23.496094 26.15625 23.515625 25.839844 23.839844 25.449219 C 24.03125 25.988281 24.359375 26.390625 24.925781 26.644531 " fill-opacity="1" fill-rule="nonzero"/><g clip-path="url(#id1)"><path fill="#ffffff" d="M 14.125 22.691406 C 14.253906 22.710938 14.339844 22.714844 14.425781 22.734375 C 15.128906 22.871094 15.253906 23.023438 15.253906 23.757812 C 15.253906 24.011719 15.246094 24.269531 15.261719 24.523438 C 15.28125 24.902344 15.449219 25.160156 15.863281 25.171875 C 16.117188 25.179688 16.371094 25.199219 16.621094 25.183594 C 17.507812 25.125 18.339844 24.753906 19.226562 24.679688 C 19.496094 24.660156 19.371094 24.492188 19.332031 24.363281 C 19.082031 23.472656 19.089844 22.585938 19.484375 21.738281 C 19.609375 21.476562 19.582031 21.300781 19.4375 21.054688 C 19.074219 20.441406 18.925781 19.785156 19.320312 19.117188 C 19.648438 18.5625 20.3125 18.324219 20.78125 18.660156 C 21.109375 18.890625 21.164062 18.730469 21.289062 18.484375 C 22.121094 16.847656 23.28125 15.554688 25.023438 14.882812 C 25.90625 14.542969 26.824219 14.441406 27.757812 14.511719 C 28.101562 14.535156 28.265625 14.496094 28.1875 14.085938 C 28.101562 13.648438 28.089844 13.199219 28.042969 12.722656 C 28.390625 12.839844 28.683594 12.96875 29.003906 12.980469 C 29.898438 13.023438 30.605469 12.648438 31.109375 11.921875 C 31.984375 10.660156 32.265625 9.234375 32.15625 7.726562 C 32.066406 6.484375 31.65625 5.363281 30.742188 4.5 C 29.570312 3.386719 28.171875 3.65625 27.4375 5.101562 C 27.234375 5.5 27.136719 5.9375 27.007812 6.414062 C 26.355469 5.292969 25.421875 4.601562 24.285156 4.167969 C 22.613281 3.535156 20.890625 3.519531 19.152344 3.800781 C 16.050781 4.292969 13.632812 5.753906 12.359375 8.785156 C 11.617188 10.554688 11.484375 12.304688 12.621094 13.988281 C 12.902344 14.410156 13.132812 14.867188 13.1875 15.386719 C 13.210938 15.59375 13.335938 15.613281 13.492188 15.617188 C 14.078125 15.621094 14.652344 15.558594 15.179688 15.25 C 15.242188 15.214844 15.304688 15.097656 15.410156 15.207031 C 14.992188 15.960938 14.285156 16.234375 13.5 16.34375 C 13.207031 16.382812 13.078125 16.523438 12.976562 16.789062 C 12.808594 17.238281 12.597656 17.671875 12.386719 18.101562 C 11.839844 19.222656 11.902344 19.054688 12.855469 19.578125 C 13.414062 19.882812 13.503906 20.09375 13.238281 20.675781 C 13.136719 20.898438 13.203125 20.980469 13.378906 21.078125 C 13.808594 21.320312 14.265625 21.410156 14.761719 21.339844 C 14.71875 21.890625 14.421875 22.265625 14.125 22.691406 Z M 21.785156 32.6875 C 22.941406 32.691406 24.03125 32.503906 25.015625 31.875 C 25.550781 31.527344 26.035156 31.117188 26.492188 30.523438 C 25.902344 30.527344 25.394531 30.507812 24.898438 30.398438 C 24.351562 30.28125 23.820312 30.113281 23.328125 29.851562 C 23.128906 29.742188 22.960938 29.757812 22.769531 29.820312 C 22.328125 29.964844 21.890625 30.097656 21.339844 30.265625 C 21.714844 29.828125 22.132812 29.644531 22.492188 29.359375 C 21.238281 28.4375 20.46875 27.203125 20.0625 25.703125 C 20.261719 25.699219 20.277344 25.867188 20.34375 25.964844 C 21.054688 27.074219 21.851562 28.109375 22.921875 28.886719 C 24.230469 29.835938 25.640625 30.257812 27.222656 29.648438 C 27.714844 29.460938 28.144531 29.175781 28.472656 28.753906 C 28.613281 28.570312 28.8125 28.511719 29 28.414062 C 31.171875 27.28125 32.746094 25.613281 33.347656 23.171875 C 34.359375 19.050781 31.027344 15.113281 26.835938 15.488281 C 24.632812 15.6875 22.976562 16.855469 21.789062 18.71875 C 21.667969 18.910156 21.578125 19.121094 21.492188 19.332031 C 21.417969 19.527344 21.363281 19.734375 21.296875 19.949219 C 21.261719 19.910156 21.242188 19.890625 21.222656 19.871094 C 20.851562 19.414062 20.519531 19.273438 20.183594 19.441406 C 19.832031 19.609375 19.671875 20.089844 19.800781 20.605469 C 19.882812 20.925781 20.058594 21.191406 20.277344 21.429688 C 20.363281 21.523438 20.441406 21.589844 20.304688 21.722656 C 19.527344 22.464844 19.46875 23.410156 19.597656 24.398438 C 19.675781 24.96875 19.683594 24.960938 19.128906 25.101562 C 16.933594 25.648438 14.929688 26.574219 13.285156 28.183594 C 12.238281 29.207031 11.574219 30.425781 11.597656 31.945312 C 11.628906 34.21875 13.171875 36.027344 15.386719 36.386719 C 15.640625 36.429688 15.859375 36.398438 16.089844 36.230469 C 16.617188 35.839844 17.1875 35.53125 17.964844 35.679688 C 17.25 36.101562 16.640625 36.554688 16.089844 37.078125 C 15.460938 37.679688 15 38.355469 15.011719 39.273438 C 15.015625 39.585938 15.085938 39.882812 15.390625 40.011719 C 15.695312 40.136719 15.925781 39.945312 16.128906 39.742188 C 16.222656 39.648438 16.339844 39.546875 16.371094 39.425781 C 16.503906 38.90625 16.9375 38.796875 17.347656 38.625 C 18.539062 38.125 19.671875 37.527344 20.546875 36.523438 C 21.753906 35.136719 21.011719 33.386719 19.695312 32.777344 C 18.722656 32.328125 17.714844 32.382812 16.691406 32.566406 C 16.253906 32.644531 15.839844 32.847656 15.277344 32.871094 C 16.382812 32.015625 17.542969 31.703125 18.867188 31.757812 C 18.722656 31.394531 18.632812 31.042969 18.65625 30.671875 C 18.683594 30.308594 18.746094 29.960938 18.972656 29.558594 C 19.011719 29.957031 19.019531 30.273438 19.078125 30.574219 C 19.21875 31.269531 19.527344 31.824219 20.21875 32.152344 C 22.207031 33.109375 22.628906 35.320312 21.167969 36.996094 C 20.136719 38.179688 18.796875 38.863281 17.359375 39.378906 C 17.113281 39.464844 16.976562 39.585938 16.878906 39.839844 C 16.636719 40.488281 16.054688 40.828125 15.445312 40.730469 C 14.835938 40.632812 14.355469 40.074219 14.308594 39.402344 C 14.253906 38.605469 14.523438 37.90625 14.972656 37.265625 C 15.039062 37.167969 15.113281 37.074219 15.183594 36.976562 C 15.1875 36.972656 15.179688 36.953125 15.167969 36.910156 C 14.75 36.878906 14.324219 36.8125 13.914062 36.660156 C 11.199219 35.667969 9.921875 32.285156 11.246094 29.59375 C 11.980469 28.109375 13.183594 27.105469 14.5625 26.273438 C 14.742188 26.167969 14.929688 26.070312 15.152344 25.945312 C 14.28125 25.425781 14.433594 24.605469 14.507812 23.832031 C 14.535156 23.546875 14.550781 23.394531 14.203125 23.464844 C 14.105469 23.484375 13.992188 23.457031 13.886719 23.441406 C 13.261719 23.347656 13.042969 22.804688 13.425781 22.289062 C 13.535156 22.144531 13.667969 22.019531 13.824219 21.847656 C 13.375 21.839844 12.992188 21.761719 12.640625 21.578125 C 12.21875 21.359375 12.164062 21.140625 12.410156 20.738281 C 12.460938 20.660156 12.515625 20.582031 12.578125 20.515625 C 12.804688 20.257812 12.773438 20.15625 12.414062 20.128906 C 12.042969 20.097656 11.6875 19.96875 11.375 19.753906 C 10.945312 19.449219 10.863281 19.113281 11.113281 18.648438 C 11.402344 18.109375 11.703125 17.574219 11.992188 17.03125 C 12.0625 16.894531 12.160156 16.761719 12.164062 16.550781 C 11.761719 16.519531 11.351562 16.507812 10.988281 16.222656 C 11.207031 16.097656 11.441406 16.152344 11.644531 16.089844 C 12.597656 15.796875 12.578125 15.597656 12.148438 14.867188 C 11.785156 14.246094 11.394531 13.644531 11.179688 12.945312 C 10.628906 11.171875 10.902344 9.472656 11.648438 7.832031 C 12.761719 5.394531 14.753906 3.972656 17.203125 3.1875 C 19.445312 2.472656 21.742188 2.242188 24.066406 2.761719 C 25.113281 2.996094 26.023438 3.492188 26.773438 4.296875 C 27.171875 3.59375 27.691406 3.046875 28.472656 2.847656 C 29.664062 2.546875 30.667969 2.964844 31.519531 3.789062 C 32.5 4.738281 32.964844 5.964844 33.132812 7.289062 C 33.347656 8.960938 33.097656 10.578125 32.277344 12.066406 C 31.648438 13.207031 30.738281 13.929688 29.386719 13.945312 C 29.21875 13.949219 29.125 14 29.164062 14.171875 C 29.207031 14.382812 28.953125 14.683594 29.359375 14.796875 C 30.199219 15.03125 30.960938 15.425781 31.652344 15.960938 C 34.425781 18.105469 35.265625 21.652344 33.753906 24.835938 C 33.679688 24.992188 33.574219 25.109375 33.828125 25.242188 C 35.929688 26.347656 36.542969 27.929688 36.0625 30.476562 C 35.667969 32.558594 34.496094 34.21875 33.011719 35.636719 C 29.359375 39.128906 25.035156 41.34375 20.085938 42.238281 C 17.339844 42.734375 14.644531 42.484375 12.097656 41.222656 C 10.347656 40.355469 8.996094 39.109375 8.53125 37.113281 C 8.148438 35.472656 8.464844 33.898438 9.097656 32.371094 C 9.332031 31.808594 9.597656 31.265625 10 30.699219 C 10 31.015625 9.871094 31.191406 9.792969 31.382812 C 9.332031 32.515625 8.960938 33.671875 8.902344 34.90625 C 8.785156 37.367188 10.027344 39.035156 12.015625 40.242188 C 13.6875 41.261719 15.546875 41.558594 17.449219 41.433594 C 23.222656 41.050781 28.140625 38.667969 32.304688 34.671875 C 33.660156 33.371094 34.707031 31.820312 35.195312 29.945312 C 35.671875 28.121094 35.09375 26.691406 33.554688 25.851562 C 33.371094 25.75 33.269531 25.71875 33.121094 25.9375 C 32.136719 27.414062 30.839844 28.527344 29.261719 29.320312 C 28.960938 29.46875 28.746094 29.820312 28.441406 29.933594 C 27.714844 30.195312 27.285156 30.710938 26.84375 31.324219 C 25.824219 32.730469 23.824219 33.335938 22.207031 32.851562 C 22.0625 32.808594 21.925781 32.742188 21.785156 32.6875 " fill-opacity="1" fill-rule="nonzero"/></g><path fill="#ffffff" d="M 22.300781 15.4375 C 21.890625 14.507812 21.402344 13.734375 20.675781 13.140625 C 20.011719 12.597656 19.25 12.34375 18.398438 12.332031 C 17.410156 12.320312 16.402344 12.460938 15.433594 12.167969 C 14.144531 11.773438 13.042969 11.140625 12.605469 9.726562 C 12.554688 9.5625 12.515625 9.390625 12.488281 9.21875 C 12.472656 9.101562 12.488281 8.980469 12.488281 8.804688 C 12.65625 9.109375 12.753906 9.40625 12.945312 9.648438 C 13.871094 10.816406 15.113281 11.316406 16.554688 11.371094 C 17.441406 11.410156 18.335938 11.351562 19.210938 11.53125 C 20.71875 11.839844 22.113281 13.328125 22.339844 14.863281 C 22.363281 15.027344 22.371094 15.195312 22.300781 15.4375 " fill-opacity="1" fill-rule="nonzero"/></svg>