<svg xmlns="http://www.w3.org/2000/svg" xmlns:xlink="http://www.w3.org/1999/xlink" width="60" zoomAndPan="magnify" viewBox="0 0 45 44.999999" height="60" preserveAspectRatio="xMidYMid meet" version="1.0"><defs><clipPath id="id1"><path d="M 4 4.011719 L 41 4.011719 L 41 40.761719 L 4 40.761719 Z M 4 4.011719 " clip-rule="nonzero"/></clipPath><clipPath id="id2"><path d="M 2.972656 4.011719 L 41.222656 4.011719 L 41.222656 40.761719 L 2.972656 40.761719 Z M 2.972656 4.011719 " clip-rule="nonzero"/></clipPath></defs><path fill="#ffffff" d="M 31.257812 1.351562 L 43.648438 13.742188 L 43.648438 31.265625 L 31.257812 43.648438 L 13.742188 43.648438 L 1.351562 31.257812 L 1.351562 13.742188 L 13.742188 1.351562 L 31.257812 1.351562 M 31.824219 0 L 13.175781 0 L 0 13.175781 L 0 31.816406 L 13.175781 45 L 31.816406 45 L 45 31.824219 L 45 13.175781 Z M 31.824219 0 " fill-opacity="1" fill-rule="nonzero"/><path fill="#ffffff" d="M 31.257812 1.351562 L 43.648438 13.742188 L 43.648438 31.265625 L 31.257812 43.648438 L 13.742188 43.648438 L 1.351562 31.257812 L 1.351562 13.742188 L 13.742188 1.351562 L 31.257812 1.351562 M 31.824219 0 L 13.175781 0 L 0 13.175781 L 0 31.816406 L 13.175781 45 L 31.816406 45 L 45 31.824219 L 45 13.175781 Z M 31.824219 0 " fill-opacity="1" fill-rule="nonzero"/><g clip-path="url(#id1)"><path fill="#ffffff" d="M 18.828125 37.886719 L 26.507812 37.886719 L 26.507812 27.628906 C 26.507812 26.957031 27.050781 26.414062 27.722656 26.414062 L 37.980469 26.414062 L 37.980469 18.738281 L 27.722656 18.738281 C 27.050781 18.738281 26.507812 18.191406 26.507812 17.519531 L 26.507812 7.261719 L 18.828125 7.261719 L 18.828125 17.519531 C 18.828125 18.191406 18.285156 18.738281 17.613281 18.738281 L 7.355469 18.738281 L 7.355469 26.414062 L 17.613281 26.414062 C 18.285156 26.414062 18.828125 26.957031 18.828125 27.628906 Z M 27.722656 40.316406 L 17.613281 40.316406 C 16.941406 40.316406 16.398438 39.773438 16.398438 39.101562 L 16.398438 28.84375 L 6.140625 28.84375 C 5.46875 28.84375 4.925781 28.300781 4.925781 27.628906 L 4.925781 17.519531 C 4.925781 16.851562 5.46875 16.304688 6.140625 16.304688 L 16.398438 16.304688 L 16.398438 6.046875 C 16.398438 5.375 16.941406 4.832031 17.613281 4.832031 L 27.722656 4.832031 C 28.394531 4.832031 28.9375 5.375 28.9375 6.046875 L 28.9375 16.304688 L 39.195312 16.304688 C 39.867188 16.304688 40.410156 16.851562 40.410156 17.519531 L 40.410156 27.628906 C 40.410156 28.300781 39.867188 28.84375 39.195312 28.84375 L 28.9375 28.84375 L 28.9375 39.101562 C 28.9375 39.773438 28.394531 40.316406 27.722656 40.316406 " fill-opacity="1" fill-rule="nonzero"/></g><g clip-path="url(#id2)"><path fill="#ffffff" d="M 22.667969 -5.371094 C 7.257812 -5.371094 -5.277344 7.164062 -5.277344 22.574219 C -5.277344 37.984375 7.257812 50.519531 22.667969 50.519531 C 38.078125 50.519531 50.613281 37.984375 50.613281 22.574219 C 50.613281 7.164062 38.078125 -5.371094 22.667969 -5.371094 Z M 22.667969 52.953125 C 5.917969 52.953125 -7.707031 39.324219 -7.707031 22.574219 C -7.707031 5.824219 5.917969 -7.800781 22.667969 -7.800781 C 39.417969 -7.800781 53.046875 5.824219 53.046875 22.574219 C 53.046875 39.324219 39.417969 52.953125 22.667969 52.953125 " fill-opacity="1" fill-rule="nonzero"/></g></svg>