<svg xmlns="http://www.w3.org/2000/svg" xmlns:xlink="http://www.w3.org/1999/xlink" width="60" zoomAndPan="magnify" viewBox="0 0 45 44.999999" height="60" preserveAspectRatio="xMidYMid meet" version="1.0"><defs><clipPath id="id1"><path d="M 7.316406 19.140625 L 13.257812 19.140625 L 13.257812 35.875 L 7.316406 35.875 Z M 7.316406 19.140625 " clip-rule="nonzero"/></clipPath><clipPath id="id2"><path d="M 5.734375 9 L 22 9 L 22 15 L 5.734375 15 Z M 5.734375 9 " clip-rule="nonzero"/></clipPath><clipPath id="id3"><path d="M 22.035156 8.878906 L 39.460938 8.878906 L 39.460938 34.085938 L 22.035156 34.085938 Z M 22.035156 8.878906 " clip-rule="nonzero"/></clipPath></defs><path fill="#ffffff" d="M 31.257812 1.351562 L 43.648438 13.742188 L 43.648438 31.265625 L 31.257812 43.648438 L 13.742188 43.648438 L 1.351562 31.257812 L 1.351562 13.742188 L 13.742188 1.351562 L 31.257812 1.351562 M 31.824219 0 L 13.175781 0 L 0 13.175781 L 0 31.816406 L 13.175781 45 L 31.816406 45 L 45 31.824219 L 45 13.175781 Z M 31.824219 0 " fill-opacity="1" fill-rule="nonzero"/><path fill="#ffffff" d="M 31.257812 1.351562 L 43.648438 13.742188 L 43.648438 31.265625 L 31.257812 43.648438 L 13.742188 43.648438 L 1.351562 31.257812 L 1.351562 13.742188 L 13.742188 1.351562 L 31.257812 1.351562 M 31.824219 0 L 13.175781 0 L 0 13.175781 L 0 31.816406 L 13.175781 45 L 31.816406 45 L 45 31.824219 L 45 13.175781 Z M 31.824219 0 " fill-opacity="1" fill-rule="nonzero"/><g clip-path="url(#id1)"><path fill="#ffffff" d="M 7.882812 19.148438 L 12.660156 19.148438 C 12.953125 19.148438 13.1875 19.378906 13.1875 19.664062 L 13.1875 35.355469 C 13.1875 35.640625 12.953125 35.875 12.660156 35.875 L 7.882812 35.875 C 7.589844 35.875 7.355469 35.640625 7.355469 35.355469 L 7.355469 19.664062 C 7.355469 19.378906 7.589844 19.148438 7.882812 19.148438 Z M 12.132812 20.183594 L 8.40625 20.183594 L 8.40625 34.835938 L 12.132812 34.835938 L 12.132812 20.183594 " fill-opacity="1" fill-rule="nonzero"/></g><path fill="#ffffff" d="M 8.9375 19.148438 L 11.601562 19.148438 L 11.601562 18.09375 L 8.9375 18.09375 Z M 12.128906 20.183594 L 8.414062 20.183594 C 8.121094 20.183594 7.886719 19.953125 7.886719 19.664062 L 7.886719 17.574219 C 7.886719 17.289062 8.121094 17.054688 8.414062 17.054688 L 12.128906 17.054688 C 12.421875 17.054688 12.65625 17.289062 12.65625 17.574219 L 12.65625 19.664062 C 12.65625 19.953125 12.421875 20.183594 12.128906 20.183594 " fill-opacity="1" fill-rule="nonzero"/><path fill="#ffffff" d="M 8.945312 13.917969 L 11.597656 13.917969 C 11.890625 13.917969 12.125 14.148438 12.125 14.433594 L 12.125 17.574219 C 12.125 17.859375 11.890625 18.09375 11.597656 18.09375 L 8.945312 18.09375 C 8.652344 18.09375 8.417969 17.859375 8.417969 17.574219 L 8.417969 14.433594 C 8.417969 14.148438 8.652344 13.917969 8.945312 13.917969 Z M 11.070312 14.953125 L 9.46875 14.953125 L 9.46875 17.054688 L 11.070312 17.054688 L 11.070312 14.953125 " fill-opacity="1" fill-rule="nonzero"/><g clip-path="url(#id2)"><path fill="#ffffff" d="M 6.816406 13.917969 L 16.546875 13.917969 L 20.371094 12.5625 C 20.5 12.503906 20.585938 12.441406 20.632812 12.378906 C 20.652344 12.355469 20.664062 12.335938 20.664062 12.324219 C 20.664062 12.316406 20.652344 12.300781 20.632812 12.277344 C 20.582031 12.21875 20.496094 12.160156 20.378906 12.109375 C 19.574219 11.761719 17.925781 11.21875 16.894531 10.875 C 16.777344 10.839844 16.667969 10.804688 16.570312 10.769531 L 6.816406 10.769531 Z M 16.628906 14.953125 L 6.289062 14.953125 C 5.996094 14.953125 5.761719 14.722656 5.761719 14.433594 L 5.761719 10.25 C 5.761719 9.964844 5.996094 9.734375 6.289062 9.734375 L 16.640625 9.734375 C 16.699219 9.730469 16.761719 9.742188 16.820312 9.761719 C 16.941406 9.800781 17.078125 9.847656 17.226562 9.894531 C 18.277344 10.242188 19.957031 10.796875 20.796875 11.160156 C 21.078125 11.28125 21.292969 11.4375 21.441406 11.617188 C 21.617188 11.828125 21.707031 12.0625 21.710938 12.3125 C 21.714844 12.558594 21.632812 12.796875 21.460938 13.015625 C 21.316406 13.199219 21.105469 13.363281 20.835938 13.492188 C 20.816406 13.503906 20.792969 13.511719 20.769531 13.523438 L 20.589844 13.035156 L 20.769531 13.519531 L 16.855469 14.90625 C 16.785156 14.9375 16.710938 14.953125 16.628906 14.953125 " fill-opacity="1" fill-rule="nonzero"/></g><g clip-path="url(#id3)"><path fill="#ffffff" d="M 22.085938 18.289062 C 22.085938 18.574219 22.320312 18.808594 22.613281 18.808594 C 22.902344 18.808594 23.136719 18.574219 23.136719 18.289062 C 23.136719 15.964844 24 13.863281 25.390625 12.347656 C 26.769531 10.84375 28.671875 9.914062 30.773438 9.914062 C 32.871094 9.914062 34.777344 10.84375 36.15625 12.347656 C 37.546875 13.863281 38.40625 15.964844 38.40625 18.289062 C 38.40625 19.210938 38.273438 20.097656 38.023438 20.925781 C 37.765625 21.78125 37.386719 22.574219 36.90625 23.28125 C 36.691406 23.59375 36.367188 23.980469 36 24.414062 C 34.703125 25.941406 32.902344 28.070312 32.703125 30.960938 C 32.652344 31.726562 32.199219 32.308594 31.546875 32.65625 C 31.097656 32.894531 30.554688 33.023438 29.980469 33.027344 C 29.390625 33.03125 28.765625 32.90625 28.171875 32.628906 C 26.875 32.03125 25.707031 30.71875 25.273438 28.515625 C 25.21875 28.234375 24.941406 28.050781 24.65625 28.101562 C 24.371094 28.15625 24.183594 28.429688 24.238281 28.710938 C 24.746094 31.289062 26.15625 32.839844 27.726562 33.566406 C 28.46875 33.910156 29.246094 34.066406 29.984375 34.0625 C 30.734375 34.054688 31.449219 33.882812 32.046875 33.566406 C 33.007812 33.058594 33.675781 32.183594 33.753906 31.03125 C 33.925781 28.476562 35.601562 26.5 36.804688 25.078125 C 37.1875 24.625 37.527344 24.226562 37.777344 23.855469 C 38.316406 23.0625 38.742188 22.171875 39.03125 21.214844 C 39.308594 20.292969 39.460938 19.308594 39.460938 18.289062 C 39.460938 15.703125 38.496094 13.355469 36.933594 11.65625 C 35.359375 9.9375 33.179688 8.878906 30.773438 8.878906 C 28.367188 8.878906 26.1875 9.9375 24.613281 11.65625 C 23.050781 13.355469 22.085938 15.703125 22.085938 18.289062 " fill-opacity="1" fill-rule="nonzero"/></g><path fill="#ffffff" d="M 25.996094 21.273438 C 25.996094 21.5625 26.234375 21.792969 26.523438 21.792969 C 26.8125 21.792969 27.050781 21.5625 27.050781 21.273438 C 27.050781 20.445312 27.355469 19.699219 27.84375 19.164062 C 28.324219 18.644531 28.984375 18.320312 29.710938 18.320312 C 30.4375 18.320312 31.097656 18.644531 31.574219 19.164062 C 32.066406 19.699219 32.371094 20.445312 32.371094 21.273438 C 32.371094 21.605469 32.324219 21.921875 32.234375 22.214844 C 32.144531 22.519531 32.007812 22.800781 31.839844 23.050781 C 31.761719 23.164062 31.640625 23.304688 31.507812 23.464844 L 31.503906 23.464844 C 31.496094 23.472656 31.492188 23.480469 31.484375 23.488281 C 30.953125 24.117188 30.226562 24.984375 30.144531 26.203125 C 30.132812 26.382812 30.023438 26.523438 29.863281 26.605469 C 29.730469 26.675781 29.570312 26.714844 29.398438 26.714844 C 29.214844 26.714844 29.019531 26.675781 28.832031 26.589844 C 28.40625 26.394531 28.023438 25.957031 27.878906 25.207031 C 27.824219 24.925781 27.546875 24.742188 27.261719 24.796875 C 26.976562 24.851562 26.789062 25.121094 26.84375 25.402344 C 27.066406 26.523438 27.6875 27.203125 28.386719 27.523438 C 28.71875 27.679688 29.070312 27.75 29.402344 27.75 C 29.75 27.746094 30.082031 27.667969 30.359375 27.519531 C 30.828125 27.269531 31.15625 26.839844 31.195312 26.269531 C 31.253906 25.386719 31.851562 24.671875 32.292969 24.152344 C 32.300781 24.144531 32.308594 24.136719 32.3125 24.128906 L 31.910156 23.796875 L 32.3125 24.125 C 32.46875 23.941406 32.609375 23.777344 32.710938 23.625 C 32.941406 23.289062 33.121094 22.910156 33.242188 22.507812 C 33.359375 22.117188 33.425781 21.703125 33.425781 21.273438 C 33.425781 20.183594 33.015625 19.195312 32.351562 18.472656 C 31.679688 17.738281 30.746094 17.285156 29.710938 17.285156 C 28.675781 17.285156 27.742188 17.738281 27.066406 18.472656 C 26.40625 19.195312 25.996094 20.183594 25.996094 21.273438 " fill-opacity="1" fill-rule="nonzero"/></svg>