<svg xmlns="http://www.w3.org/2000/svg" xmlns:xlink="http://www.w3.org/1999/xlink" width="60" zoomAndPan="magnify" viewBox="0 0 45 44.999999" height="60" preserveAspectRatio="xMidYMid meet" version="1.0"><defs><clipPath id="id1"><path d="M 7.027344 6.214844 L 37.777344 6.214844 L 37.777344 39.214844 L 7.027344 39.214844 Z M 7.027344 6.214844 " clip-rule="nonzero"/></clipPath></defs><path fill="#ffffff" d="M 31.257812 1.351562 L 43.648438 13.742188 L 43.648438 31.265625 L 31.257812 43.648438 L 13.742188 43.648438 L 1.351562 31.257812 L 1.351562 13.742188 L 13.742188 1.351562 L 31.257812 1.351562 M 31.824219 0 L 13.175781 0 L 0 13.175781 L 0 31.816406 L 13.175781 45 L 31.816406 45 L 45 31.824219 L 45 13.175781 Z M 31.824219 0 " fill-opacity="1" fill-rule="nonzero"/><path fill="#ffffff" d="M 31.257812 1.351562 L 43.648438 13.742188 L 43.648438 31.265625 L 31.257812 43.648438 L 13.742188 43.648438 L 1.351562 31.257812 L 1.351562 13.742188 L 13.742188 1.351562 L 31.257812 1.351562 M 31.824219 0 L 13.175781 0 L 0 13.175781 L 0 31.816406 L 13.175781 45 L 31.816406 45 L 45 31.824219 L 45 13.175781 Z M 31.824219 0 " fill-opacity="1" fill-rule="nonzero"/><g clip-path="url(#id1)"><path fill="#ffffff" d="M 34.355469 6.625 C 34.023438 6.574219 30.835938 6.21875 26.738281 9.730469 C 25.351562 10.9375 23.328125 11.324219 21.636719 10.679688 C 22.566406 10.320312 24.066406 9.65625 25.382812 8.671875 C 25.863281 8.308594 26.382812 8.023438 26.945312 7.804688 C 27.046875 7.765625 27.117188 7.699219 27.160156 7.601562 C 27.203125 7.503906 27.207031 7.40625 27.167969 7.308594 C 27.128906 7.210938 27.058594 7.140625 26.960938 7.097656 C 26.863281 7.054688 26.761719 7.050781 26.664062 7.089844 C 26.035156 7.332031 25.449219 7.65625 24.910156 8.058594 C 23 9.492188 20.578125 10.238281 20.53125 10.253906 C 19.464844 10.5 13.308594 12.808594 15.722656 16.546875 C 14.09375 16.464844 12.640625 16.925781 11.363281 17.929688 C 10.808594 18.289062 10.457031 18.789062 10.316406 19.433594 C 10.234375 19.808594 10.273438 20.167969 10.441406 20.515625 C 10.609375 20.863281 10.867188 21.121094 11.214844 21.292969 C 9.078125 24.207031 7.929688 27.707031 7.808594 31.703125 C 7.039062 34.167969 8.035156 39.0625 12.859375 39.21875 C 13.644531 39.222656 14.378906 39.042969 15.074219 38.6875 C 17.703125 37.265625 16.242188 33.125 13.269531 33.933594 C 13.28125 33.011719 12.183594 32.398438 11.390625 32.898438 C 10.152344 33.59375 9.324219 32.949219 8.589844 31.671875 C 8.71875 27.730469 9.882812 24.300781 12.046875 21.472656 C 12.429688 21.457031 12.765625 21.328125 13.132812 21.164062 C 14.996094 20.347656 16.605469 20.996094 18.398438 22.0625 C 21.492188 24.023438 23.941406 25.804688 28.617188 27.476562 C 29.476562 27.777344 30.347656 27.824219 31.230469 27.609375 C 30.773438 29.613281 30.949219 31.707031 31.839844 33.566406 C 33.246094 36.542969 33.0625 38.578125 33.058594 38.605469 C 33.046875 38.710938 33.074219 38.804688 33.144531 38.890625 C 33.210938 38.972656 33.296875 39.019531 33.402344 39.027344 C 33.511719 39.039062 33.605469 39.011719 33.691406 38.945312 C 33.773438 38.878906 33.820312 38.792969 33.832031 38.6875 C 33.839844 38.597656 34.050781 36.4375 32.542969 33.242188 C 31.644531 31.386719 31.578125 29.289062 32.089844 27.3125 C 33.152344 26.828125 33.910156 26.054688 34.363281 24.992188 C 35.664062 21.972656 37.28125 15.179688 37.625 9.878906 C 37.765625 7.996094 36.261719 6.671875 34.355469 6.625 Z M 9.886719 33.875 C 10.5 34.042969 11.160156 33.929688 11.792969 33.554688 C 12.246094 33.285156 12.726562 33.875 12.367188 34.257812 L 12.09375 34.546875 C 11.796875 34.863281 12.1875 35.355469 12.570312 35.144531 L 13.203125 34.792969 C 13.503906 34.625 13.828125 34.5625 14.171875 34.605469 C 14.515625 34.644531 14.8125 34.78125 15.066406 35.015625 C 16.003906 35.828125 15.820312 37.449219 14.703125 38.011719 C 13.015625 38.894531 10.804688 38.394531 9.558594 36.949219 C 8.363281 35.585938 8.300781 33.851562 8.40625 32.804688 C 8.851562 33.367188 9.347656 33.726562 9.886719 33.875 Z M 16.039062 14.292969 C 16.597656 12.417969 19.839844 11.277344 20.59375 11.039062 C 22.65625 12.230469 25.441406 11.898438 27.246094 10.308594 C 28.988281 8.820312 30.550781 8.074219 31.757812 7.707031 C 31.304688 8.242188 30.984375 8.964844 30.824219 9.855469 C 30.824219 9.859375 29.445312 19.367188 29.445312 19.375 C 29.414062 19.558594 29.347656 19.730469 29.242188 19.890625 C 29.132812 20.046875 29 20.171875 28.835938 20.269531 C 28.671875 20.367188 28.496094 20.429688 28.304688 20.449219 C 28.117188 20.46875 27.929688 20.449219 27.75 20.390625 C 25.542969 19.589844 23.472656 18.847656 21.644531 18.21875 C 22.582031 18.015625 23.660156 17.535156 24.730469 16.515625 C 24.804688 16.441406 24.84375 16.351562 24.847656 16.246094 C 24.847656 16.140625 24.8125 16.050781 24.738281 15.972656 C 24.664062 15.898438 24.574219 15.859375 24.464844 15.855469 C 24.359375 15.855469 24.265625 15.890625 24.1875 15.964844 C 20.949219 18.796875 19.054688 17.171875 16.804688 16.710938 C 16.074219 15.855469 15.816406 15.042969 16.039062 14.292969 Z M 36.851562 9.832031 C 36.515625 14.976562 34.894531 21.792969 33.648438 24.691406 C 33.460938 25.128906 33.195312 25.519531 32.855469 25.859375 C 32.515625 26.199219 32.121094 26.464844 31.679688 26.65625 C 31.234375 26.847656 30.773438 26.953125 30.289062 26.96875 C 29.804688 26.984375 29.335938 26.914062 28.878906 26.75 C 24.289062 25.109375 21.875 23.351562 18.816406 21.414062 C 17.410156 20.550781 16.191406 20.066406 14.789062 20.023438 C 14.09375 20.027344 13.433594 20.175781 12.808594 20.46875 C 12.621094 20.554688 12.425781 20.625 12.226562 20.675781 C 11.582031 20.863281 10.90625 20.246094 11.074219 19.597656 C 11.265625 18.835938 11.742188 18.621094 11.828125 18.546875 C 14.058594 16.804688 16.386719 17.394531 16.484375 17.421875 C 19.105469 18.078125 23.753906 19.761719 27.492188 21.117188 C 27.785156 21.214844 28.082031 21.246094 28.386719 21.210938 C 28.691406 21.179688 28.976562 21.085938 29.238281 20.925781 C 29.5 20.769531 29.71875 20.566406 29.886719 20.3125 C 30.058594 20.0625 30.167969 19.785156 30.214844 19.488281 L 31.589844 9.984375 C 31.804688 8.792969 32.433594 7.390625 34.191406 7.390625 C 35.707031 7.375 36.964844 8.316406 36.851562 9.832031 Z M 36.851562 9.832031 " fill-opacity="1" fill-rule="nonzero"/></g><path fill="#ffffff" d="M 18.125 27.28125 C 18.195312 26.765625 18.023438 26.273438 17.617188 25.816406 C 16.679688 24.707031 15.210938 25.296875 14.414062 25.96875 C 13.617188 25.296875 12.148438 24.707031 11.210938 25.816406 C 10.804688 26.273438 10.632812 26.765625 10.703125 27.28125 C 10.835938 28.230469 11.765625 28.882812 11.878906 28.957031 C 13.304688 29.992188 14.117188 30.875 14.125 30.882812 C 14.203125 30.96875 14.296875 31.011719 14.414062 31.011719 C 14.53125 31.011719 14.625 30.96875 14.703125 30.882812 C 14.710938 30.875 15.523438 29.992188 16.953125 28.957031 C 17.0625 28.882812 17.992188 28.230469 18.125 27.28125 Z M 17.351562 27.175781 C 17.246094 27.84375 16.539062 28.300781 16.496094 28.332031 C 15.757812 28.863281 15.066406 29.445312 14.414062 30.074219 C 13.761719 29.445312 13.066406 28.863281 12.332031 28.332031 C 12.328125 28.328125 12.320312 28.324219 12.316406 28.324219 C 12.308594 28.316406 11.558594 27.816406 11.472656 27.175781 C 11.4375 26.886719 11.539062 26.605469 11.792969 26.320312 C 12.460938 25.472656 13.738281 26.347656 14.140625 26.75 C 14.214844 26.824219 14.304688 26.863281 14.414062 26.863281 C 14.519531 26.863281 14.613281 26.824219 14.6875 26.75 C 15.085938 26.347656 16.367188 25.46875 17.035156 26.320312 C 17.289062 26.605469 17.390625 26.886719 17.351562 27.175781 Z M 17.351562 27.175781 " fill-opacity="1" fill-rule="nonzero"/></svg>