<svg xmlns="http://www.w3.org/2000/svg" xmlns:xlink="http://www.w3.org/1999/xlink" width="60" zoomAndPan="magnify" viewBox="0 0 45 44.999999" height="60" preserveAspectRatio="xMidYMid meet" version="1.0"><defs><clipPath id="id1"><path d="M 7.480469 2.640625 L 37.480469 2.640625 L 37.480469 42.390625 L 7.480469 42.390625 Z M 7.480469 2.640625 " clip-rule="nonzero"/></clipPath></defs><path fill="#ffffff" d="M 31.257812 1.351562 L 43.648438 13.742188 L 43.648438 31.265625 L 31.257812 43.648438 L 13.742188 43.648438 L 1.351562 31.257812 L 1.351562 13.742188 L 13.742188 1.351562 L 31.257812 1.351562 M 31.824219 0 L 13.175781 0 L 0 13.175781 L 0 31.816406 L 13.175781 45 L 31.816406 45 L 45 31.824219 L 45 13.175781 Z M 31.824219 0 " fill-opacity="1" fill-rule="nonzero"/><path fill="#ffffff" d="M 31.257812 1.351562 L 43.648438 13.742188 L 43.648438 31.265625 L 31.257812 43.648438 L 13.742188 43.648438 L 1.351562 31.257812 L 1.351562 13.742188 L 13.742188 1.351562 L 31.257812 1.351562 M 31.824219 0 L 13.175781 0 L 0 13.175781 L 0 31.816406 L 13.175781 45 L 31.816406 45 L 45 31.824219 L 45 13.175781 Z M 31.824219 0 " fill-opacity="1" fill-rule="nonzero"/><g clip-path="url(#id1)"><path fill="#ffffff" d="M 25.648438 12.734375 C 25.59375 13.148438 25.523438 13.636719 25.417969 14.113281 C 25.101562 15.554688 24.78125 17.238281 25.003906 18.914062 C 25.101562 19.675781 25.246094 20.4375 25.386719 21.171875 C 25.605469 22.320312 25.832031 23.507812 25.882812 24.691406 C 25.902344 25.175781 25.910156 25.554688 25.773438 25.988281 C 25.695312 26.238281 25.609375 26.492188 25.523438 26.738281 C 25.46875 26.890625 25.417969 27.039062 25.367188 27.1875 C 25.230469 27.605469 25.132812 28.019531 25.074219 28.417969 C 25.039062 28.65625 25.011719 28.910156 24.992188 29.175781 C 24.976562 29.347656 24.960938 29.519531 24.941406 29.691406 C 24.878906 30.324219 24.8125 30.980469 24.875 31.660156 C 24.898438 31.929688 24.929688 32.195312 24.960938 32.457031 C 25.03125 33.054688 25.105469 33.667969 25.074219 34.269531 C 25.050781 34.726562 24.910156 35.164062 24.765625 35.628906 C 24.664062 35.945312 24.558594 36.273438 24.496094 36.605469 C 24.476562 36.703125 24.457031 36.804688 24.433594 36.910156 C 24.375 37.191406 24.316406 37.480469 24.292969 37.765625 C 24.203125 38.894531 24.359375 39.851562 24.765625 40.695312 C 24.804688 40.773438 24.867188 40.871094 24.9375 40.980469 C 25.050781 41.15625 25.351562 41.621094 25.261719 41.730469 C 25.210938 41.785156 24.957031 41.863281 24.863281 41.894531 C 24.828125 41.90625 24.792969 41.917969 24.765625 41.925781 C 24.671875 41.960938 24.605469 41.972656 24.558594 41.972656 C 24.527344 41.972656 24.472656 41.972656 24.367188 41.847656 C 24.070312 41.492188 23.84375 40.910156 23.738281 40.59375 C 23.644531 40.3125 23.65625 40.03125 23.671875 39.734375 C 23.675781 39.640625 23.679688 39.546875 23.683594 39.449219 C 23.6875 39.164062 23.660156 38.878906 23.632812 38.605469 C 23.613281 38.351562 23.585938 38.09375 23.585938 37.84375 C 23.585938 37.390625 23.546875 36.949219 23.503906 36.523438 C 23.484375 36.324219 23.464844 36.125 23.449219 35.917969 C 23.386719 35.078125 23.34375 34.199219 23.308594 33.347656 C 23.289062 32.953125 23.273438 32.566406 23.253906 32.179688 C 23.238281 31.917969 23.265625 31.660156 23.289062 31.382812 C 23.308594 31.203125 23.324219 31.015625 23.332031 30.828125 C 23.359375 29.972656 23.257812 29.105469 23.160156 28.265625 C 23.074219 27.535156 22.984375 26.777344 22.984375 26.03125 C 22.984375 25.902344 22.984375 25.707031 22.945312 25.539062 C 22.851562 25.164062 22.601562 25.121094 22.496094 25.121094 C 22.296875 25.121094 22.046875 25.234375 22.003906 25.761719 C 21.988281 25.90625 21.988281 26.050781 21.984375 26.1875 C 21.984375 26.265625 21.984375 26.339844 21.980469 26.417969 C 21.960938 26.980469 21.894531 27.550781 21.832031 28.105469 L 21.828125 28.152344 C 21.765625 28.726562 21.699219 29.324219 21.679688 29.925781 C 21.667969 30.285156 21.683594 30.652344 21.699219 31.003906 C 21.714844 31.390625 21.730469 31.792969 21.710938 32.179688 C 21.691406 32.550781 21.675781 32.925781 21.660156 33.300781 C 21.621094 34.167969 21.582031 35.066406 21.515625 35.917969 C 21.5 36.117188 21.480469 36.3125 21.460938 36.503906 C 21.417969 36.9375 21.375 37.382812 21.375 37.84375 C 21.375 38.09375 21.351562 38.347656 21.328125 38.597656 C 21.304688 38.875 21.277344 39.164062 21.28125 39.449219 C 21.285156 39.550781 21.289062 39.648438 21.292969 39.746094 C 21.308594 40.039062 21.320312 40.316406 21.226562 40.59375 C 21.121094 40.90625 20.898438 41.488281 20.597656 41.847656 C 20.492188 41.972656 20.4375 41.972656 20.402344 41.972656 C 20.355469 41.972656 20.292969 41.960938 20.195312 41.925781 C 20.167969 41.917969 20.136719 41.90625 20.097656 41.894531 C 20.003906 41.863281 19.753906 41.785156 19.703125 41.730469 C 19.613281 41.621094 19.914062 41.15625 20.023438 40.980469 C 20.097656 40.871094 20.160156 40.773438 20.199219 40.695312 C 20.609375 39.84375 20.757812 38.914062 20.671875 37.765625 C 20.652344 37.488281 20.589844 37.207031 20.535156 36.933594 C 20.511719 36.820312 20.488281 36.710938 20.46875 36.605469 C 20.40625 36.273438 20.300781 35.945312 20.199219 35.628906 C 20.054688 35.164062 19.914062 34.726562 19.890625 34.269531 C 19.859375 33.664062 19.933594 33.042969 20.003906 32.441406 C 20.035156 32.1875 20.066406 31.921875 20.089844 31.660156 C 20.152344 30.980469 20.085938 30.324219 20.023438 29.691406 C 20.003906 29.519531 19.988281 29.347656 19.972656 29.175781 C 19.957031 28.96875 19.929688 28.691406 19.890625 28.417969 C 19.832031 28.003906 19.730469 27.589844 19.59375 27.1875 C 19.539062 27.023438 19.484375 26.859375 19.425781 26.695312 C 19.347656 26.464844 19.261719 26.222656 19.1875 25.988281 C 19.054688 25.558594 19.058594 25.179688 19.082031 24.691406 C 19.132812 23.507812 19.359375 22.316406 19.578125 21.164062 C 19.71875 20.429688 19.863281 19.671875 19.960938 18.914062 C 20.238281 16.808594 19.816406 14.707031 19.402344 12.667969 C 19.390625 12.601562 19.339844 12.550781 19.28125 12.523438 C 19.21875 12.496094 19.144531 12.503906 19.085938 12.539062 C 18.84375 12.683594 18.605469 12.828125 18.386719 12.960938 C 18.027344 13.171875 17.648438 13.367188 17.285156 13.558594 C 16.859375 13.773438 16.425781 14 16.007812 14.257812 C 15.695312 14.453125 15.386719 14.664062 15.089844 14.871094 C 14.734375 15.113281 14.371094 15.367188 13.992188 15.585938 C 13.457031 15.898438 13.003906 16.105469 12.558594 16.230469 C 12.402344 16.277344 12.238281 16.308594 12.070312 16.34375 C 11.757812 16.40625 11.4375 16.46875 11.136719 16.621094 C 10.960938 16.707031 10.804688 16.863281 10.667969 17.003906 C 10.597656 17.074219 10.527344 17.144531 10.464844 17.195312 C 10.152344 17.449219 9.53125 17.894531 8.925781 17.976562 C 8.875 17.984375 8.804688 17.992188 8.730469 17.992188 C 8.3125 17.992188 7.960938 17.855469 7.925781 17.765625 C 7.921875 17.757812 7.929688 17.710938 8.023438 17.621094 C 8.1875 17.476562 8.410156 17.375 8.648438 17.269531 C 8.929688 17.144531 9.222656 17.015625 9.429688 16.789062 C 9.480469 16.738281 9.496094 16.667969 9.480469 16.597656 C 9.464844 16.53125 9.414062 16.476562 9.347656 16.453125 C 9.265625 16.425781 9.15625 16.4375 9.019531 16.460938 C 9.003906 16.460938 8.984375 16.464844 8.964844 16.46875 C 9.308594 16.355469 9.777344 16.246094 9.976562 16.246094 L 9.980469 16.246094 C 10.085938 16.261719 10.171875 16.277344 10.25 16.292969 C 10.382812 16.316406 10.5 16.335938 10.617188 16.335938 C 10.84375 16.335938 11.042969 16.261719 11.335938 16.074219 C 12.03125 15.617188 12.742188 15.160156 13.429688 14.714844 C 14.113281 14.277344 14.820312 13.820312 15.515625 13.367188 C 16 13.050781 16.472656 12.699219 16.929688 12.363281 C 17.570312 11.890625 18.230469 11.402344 18.921875 11.003906 C 18.929688 11 18.933594 10.996094 18.9375 10.992188 C 19.214844 10.796875 19.5625 10.675781 19.894531 10.558594 C 20.117188 10.480469 20.34375 10.402344 20.550781 10.300781 C 20.875 10.152344 21.328125 9.90625 21.578125 9.492188 C 21.734375 9.242188 21.761719 8.980469 21.757812 8.730469 C 22 8.84375 22.257812 8.90625 22.523438 8.90625 C 22.765625 8.90625 23 8.851562 23.210938 8.753906 C 23.222656 9.082031 23.289062 9.417969 23.539062 9.691406 C 23.757812 9.929688 24.035156 10.125 24.410156 10.300781 C 24.621094 10.402344 24.847656 10.480469 25.066406 10.558594 C 25.402344 10.675781 25.75 10.796875 26.027344 10.992188 C 26.03125 10.996094 26.035156 11 26.039062 11.003906 C 26.730469 11.402344 27.394531 11.890625 28.03125 12.363281 C 28.492188 12.699219 28.964844 13.050781 29.449219 13.367188 C 30.140625 13.820312 30.851562 14.277344 31.535156 14.71875 C 32.222656 15.160156 32.933594 15.617188 33.628906 16.074219 C 33.917969 16.261719 34.121094 16.335938 34.34375 16.335938 C 34.464844 16.335938 34.578125 16.316406 34.714844 16.292969 C 34.792969 16.277344 34.878906 16.261719 34.980469 16.246094 L 34.988281 16.246094 C 35.1875 16.246094 35.65625 16.355469 35.996094 16.46875 C 35.976562 16.464844 35.960938 16.460938 35.945312 16.460938 C 35.804688 16.4375 35.699219 16.425781 35.617188 16.453125 C 35.550781 16.476562 35.5 16.53125 35.484375 16.601562 C 35.464844 16.667969 35.484375 16.738281 35.53125 16.789062 C 35.742188 17.015625 36.03125 17.144531 36.3125 17.269531 C 36.550781 17.375 36.773438 17.476562 36.9375 17.621094 C 37.03125 17.710938 37.039062 17.757812 37.039062 17.765625 C 37.003906 17.855469 36.648438 17.992188 36.234375 17.992188 C 36.15625 17.992188 36.089844 17.984375 36.027344 17.972656 C 35.429688 17.894531 34.8125 17.449219 34.496094 17.195312 C 34.433594 17.144531 34.367188 17.074219 34.292969 17.003906 C 34.15625 16.863281 34.003906 16.707031 33.828125 16.617188 C 33.527344 16.46875 33.203125 16.40625 32.894531 16.34375 C 32.722656 16.308594 32.5625 16.277344 32.40625 16.230469 C 31.960938 16.105469 31.503906 15.898438 30.96875 15.585938 C 30.59375 15.367188 30.226562 15.113281 29.875 14.871094 C 29.578125 14.664062 29.269531 14.453125 28.953125 14.257812 C 28.539062 14 28.101562 13.773438 27.679688 13.558594 C 27.3125 13.367188 26.933594 13.171875 26.578125 12.960938 C 26.382812 12.84375 26.171875 12.714844 25.957031 12.585938 C 25.898438 12.550781 25.824219 12.546875 25.761719 12.578125 C 25.699219 12.605469 25.65625 12.667969 25.648438 12.734375 Z M 21.128906 7.609375 C 20.976562 7.359375 20.871094 7.101562 20.800781 6.808594 C 20.78125 6.71875 20.695312 6.652344 20.601562 6.652344 C 20.503906 6.652344 20.421875 6.71875 20.402344 6.8125 C 20.398438 6.824219 20.394531 6.835938 20.394531 6.847656 C 20.332031 6.765625 20.25 6.589844 20.203125 6.339844 C 20.15625 6.085938 20.175781 5.894531 20.203125 5.796875 C 20.210938 5.804688 20.21875 5.816406 20.226562 5.828125 C 20.28125 5.910156 20.386719 5.945312 20.476562 5.90625 C 20.566406 5.871094 20.621094 5.773438 20.601562 5.675781 L 20.59375 5.632812 C 20.589844 5.609375 20.582031 5.589844 20.578125 5.566406 C 20.582031 4.359375 20.691406 3.480469 21.972656 3.132812 C 22.15625 3.082031 22.335938 3.058594 22.507812 3.058594 C 23.285156 3.058594 23.894531 3.597656 24.179688 4.542969 C 24.277344 4.871094 24.316406 5.253906 24.289062 5.679688 C 24.28125 5.773438 24.335938 5.859375 24.425781 5.890625 C 24.511719 5.917969 24.609375 5.886719 24.660156 5.8125 C 24.664062 5.808594 24.667969 5.800781 24.671875 5.796875 C 24.699219 5.894531 24.71875 6.085938 24.671875 6.339844 C 24.628906 6.589844 24.542969 6.761719 24.484375 6.847656 C 24.480469 6.835938 24.480469 6.828125 24.476562 6.820312 C 24.453125 6.726562 24.375 6.664062 24.28125 6.660156 C 24.1875 6.65625 24.105469 6.71875 24.078125 6.808594 C 23.988281 7.109375 23.878906 7.394531 23.75 7.652344 C 23.484375 8.1875 23.035156 8.492188 22.523438 8.492188 C 21.984375 8.492188 21.464844 8.164062 21.128906 7.609375 Z M 26.011719 13.101562 C 26.132812 13.175781 26.253906 13.246094 26.367188 13.3125 C 26.734375 13.53125 27.121094 13.730469 27.492188 13.921875 C 27.90625 14.136719 28.335938 14.359375 28.738281 14.609375 C 29.042969 14.796875 29.347656 15.007812 29.640625 15.207031 C 30 15.457031 30.375 15.714844 30.761719 15.941406 C 31.328125 16.273438 31.8125 16.492188 32.292969 16.628906 C 32.464844 16.679688 32.640625 16.714844 32.8125 16.746094 C 33.109375 16.804688 33.390625 16.863281 33.644531 16.988281 C 33.757812 17.046875 33.882812 17.171875 34.003906 17.292969 C 34.078125 17.367188 34.15625 17.449219 34.238281 17.515625 C 34.585938 17.796875 35.277344 18.289062 35.960938 18.378906 C 36.039062 18.394531 36.128906 18.402344 36.234375 18.402344 C 36.605469 18.402344 37.269531 18.300781 37.421875 17.917969 C 37.472656 17.78125 37.480469 17.566406 37.214844 17.316406 C 37 17.125 36.738281 17.007812 36.480469 16.894531 C 36.460938 16.886719 36.445312 16.878906 36.425781 16.871094 C 36.558594 16.832031 36.65625 16.753906 36.722656 16.640625 C 36.726562 16.636719 36.730469 16.628906 36.730469 16.621094 C 36.765625 16.542969 36.753906 16.460938 36.707031 16.386719 C 36.523438 16.109375 35.28125 15.835938 34.988281 15.835938 C 34.976562 15.835938 34.964844 15.835938 34.957031 15.835938 C 34.949219 15.835938 34.945312 15.835938 34.9375 15.835938 C 34.824219 15.851562 34.726562 15.871094 34.640625 15.886719 C 34.519531 15.90625 34.425781 15.925781 34.34375 15.925781 C 34.226562 15.925781 34.101562 15.890625 33.851562 15.726562 C 33.15625 15.273438 32.445312 14.816406 31.757812 14.371094 C 31.074219 13.929688 30.367188 13.476562 29.675781 13.023438 C 29.199219 12.710938 28.730469 12.367188 28.277344 12.03125 C 27.628906 11.554688 26.960938 11.0625 26.253906 10.648438 C 25.933594 10.425781 25.5625 10.296875 25.203125 10.171875 C 24.984375 10.09375 24.777344 10.019531 24.585938 9.929688 C 24.257812 9.773438 24.023438 9.609375 23.839844 9.414062 C 23.625 9.175781 23.613281 8.847656 23.621094 8.492188 C 23.816406 8.320312 23.984375 8.101562 24.117188 7.835938 C 24.203125 7.664062 24.28125 7.480469 24.351562 7.285156 C 24.367188 7.292969 24.386719 7.296875 24.398438 7.300781 C 24.417969 7.300781 24.4375 7.304688 24.457031 7.304688 C 24.796875 7.304688 25.003906 6.824219 25.078125 6.410156 C 25.117188 6.179688 25.121094 5.953125 25.089844 5.773438 C 25.023438 5.441406 24.851562 5.359375 24.753906 5.34375 C 24.738281 5.339844 24.722656 5.339844 24.707031 5.339844 C 24.699219 5.003906 24.65625 4.699219 24.570312 4.421875 C 24.230469 3.292969 23.476562 2.644531 22.507812 2.644531 C 22.300781 2.644531 22.085938 2.675781 21.863281 2.738281 C 20.40625 3.128906 20.195312 4.171875 20.171875 5.335938 C 20.15625 5.339844 20.140625 5.339844 20.121094 5.34375 C 20.023438 5.359375 19.851562 5.441406 19.789062 5.773438 C 19.753906 5.953125 19.757812 6.179688 19.800781 6.410156 C 19.875 6.824219 20.078125 7.304688 20.417969 7.304688 C 20.4375 7.304688 20.457031 7.300781 20.476562 7.300781 C 20.488281 7.296875 20.503906 7.292969 20.519531 7.289062 C 20.585938 7.472656 20.671875 7.652344 20.777344 7.824219 C 20.933594 8.078125 21.121094 8.292969 21.332031 8.464844 C 21.332031 8.46875 21.332031 8.472656 21.332031 8.480469 C 21.355469 8.78125 21.371094 9.042969 21.230469 9.277344 C 21.035156 9.59375 20.652344 9.800781 20.375 9.929688 C 20.1875 10.019531 19.980469 10.09375 19.757812 10.171875 C 19.402344 10.296875 19.03125 10.425781 18.710938 10.648438 C 18 11.0625 17.332031 11.554688 16.6875 12.03125 C 16.234375 12.367188 15.765625 12.710938 15.289062 13.023438 C 14.597656 13.476562 13.890625 13.929688 13.207031 14.371094 C 12.519531 14.8125 11.808594 15.269531 11.109375 15.726562 C 10.859375 15.890625 10.738281 15.925781 10.617188 15.925781 C 10.535156 15.925781 10.441406 15.90625 10.324219 15.886719 C 10.238281 15.871094 10.140625 15.851562 10.027344 15.835938 C 10.019531 15.835938 10.015625 15.835938 10.007812 15.835938 C 9.996094 15.835938 9.984375 15.835938 9.976562 15.835938 C 9.679688 15.835938 8.441406 16.109375 8.253906 16.386719 C 8.207031 16.460938 8.199219 16.542969 8.230469 16.621094 C 8.234375 16.628906 8.238281 16.636719 8.242188 16.640625 C 8.304688 16.753906 8.40625 16.832031 8.535156 16.871094 C 8.519531 16.878906 8.5 16.886719 8.480469 16.894531 C 8.226562 17.007812 7.960938 17.125 7.746094 17.320312 C 7.480469 17.566406 7.488281 17.78125 7.542969 17.917969 C 7.695312 18.300781 8.359375 18.402344 8.730469 18.402344 C 8.832031 18.402344 8.925781 18.394531 8.992188 18.382812 C 9.6875 18.289062 10.375 17.796875 10.726562 17.515625 C 10.804688 17.449219 10.882812 17.371094 10.960938 17.292969 C 11.082031 17.171875 11.203125 17.046875 11.320312 16.988281 C 11.570312 16.863281 11.851562 16.804688 12.148438 16.746094 C 12.320312 16.714844 12.5 16.679688 12.671875 16.628906 C 13.148438 16.492188 13.636719 16.273438 14.199219 15.941406 C 14.589844 15.714844 14.960938 15.457031 15.324219 15.207031 C 15.617188 15.007812 15.917969 14.796875 16.226562 14.609375 C 16.625 14.359375 17.054688 14.136719 17.472656 13.921875 C 17.84375 13.730469 18.226562 13.53125 18.59375 13.3125 C 18.742188 13.226562 18.894531 13.132812 19.058594 13.035156 C 19.441406 14.949219 19.8125 16.917969 19.554688 18.863281 C 19.457031 19.605469 19.3125 20.359375 19.175781 21.089844 C 18.953125 22.253906 18.722656 23.457031 18.671875 24.671875 C 18.648438 25.1875 18.644531 25.621094 18.796875 26.109375 C 18.871094 26.351562 18.957031 26.597656 19.039062 26.832031 C 19.09375 26.992188 19.152344 27.15625 19.203125 27.320312 C 19.332031 27.695312 19.429688 28.09375 19.484375 28.476562 C 19.523438 28.742188 19.546875 29.007812 19.5625 29.210938 C 19.578125 29.386719 19.597656 29.558594 19.613281 29.730469 C 19.675781 30.375 19.738281 30.984375 19.679688 31.625 C 19.660156 31.878906 19.628906 32.140625 19.597656 32.394531 C 19.523438 33.011719 19.449219 33.652344 19.480469 34.292969 C 19.507812 34.800781 19.660156 35.285156 19.808594 35.753906 C 19.910156 36.070312 20.003906 36.375 20.0625 36.679688 C 20.085938 36.789062 20.109375 36.902344 20.132812 37.015625 C 20.1875 37.277344 20.242188 37.546875 20.261719 37.796875 C 20.34375 38.871094 20.207031 39.734375 19.828125 40.515625 C 19.800781 40.574219 19.742188 40.664062 19.679688 40.757812 C 19.4375 41.136719 19.105469 41.652344 19.386719 41.992188 C 19.5 42.128906 19.722656 42.207031 19.976562 42.285156 C 20.007812 42.296875 20.039062 42.308594 20.0625 42.316406 C 20.207031 42.363281 20.308594 42.386719 20.402344 42.386719 C 20.597656 42.386719 20.753906 42.300781 20.910156 42.113281 C 21.253906 41.699219 21.5 41.066406 21.617188 40.726562 C 21.734375 40.375 21.71875 40.042969 21.703125 39.726562 C 21.699219 39.632812 21.695312 39.539062 21.691406 39.445312 C 21.6875 39.179688 21.714844 38.914062 21.738281 38.636719 C 21.761719 38.378906 21.785156 38.109375 21.785156 37.84375 C 21.785156 37.402344 21.828125 36.988281 21.871094 36.546875 C 21.890625 36.347656 21.910156 36.152344 21.925781 35.949219 C 21.992188 35.089844 22.03125 34.191406 22.070312 33.320312 C 22.085938 32.945312 22.101562 32.570312 22.121094 32.199219 C 22.140625 31.792969 22.125 31.382812 22.109375 30.984375 C 22.09375 30.640625 22.078125 30.285156 22.089844 29.9375 C 22.109375 29.351562 22.171875 28.765625 22.238281 28.199219 L 22.242188 28.148438 C 22.304688 27.589844 22.371094 27.007812 22.390625 26.433594 C 22.394531 26.351562 22.394531 26.273438 22.398438 26.195312 C 22.398438 26.054688 22.402344 25.925781 22.410156 25.796875 C 22.425781 25.617188 22.46875 25.535156 22.5 25.53125 C 22.527344 25.554688 22.574219 25.644531 22.574219 26.042969 C 22.574219 26.800781 22.664062 27.570312 22.75 28.3125 C 22.847656 29.136719 22.949219 29.988281 22.921875 30.816406 C 22.914062 30.992188 22.898438 31.171875 22.882812 31.34375 C 22.855469 31.621094 22.828125 31.910156 22.84375 32.203125 C 22.863281 32.585938 22.878906 32.972656 22.898438 33.363281 C 22.933594 34.21875 22.976562 35.105469 23.039062 35.949219 C 23.054688 36.15625 23.074219 36.359375 23.09375 36.5625 C 23.136719 37 23.175781 37.410156 23.175781 37.84375 C 23.175781 38.113281 23.203125 38.382812 23.226562 38.640625 C 23.25 38.917969 23.273438 39.183594 23.273438 39.445312 C 23.269531 39.535156 23.265625 39.625 23.261719 39.714844 C 23.246094 40.035156 23.230469 40.371094 23.347656 40.726562 C 23.492188 41.144531 23.726562 41.726562 24.054688 42.113281 C 24.152344 42.230469 24.3125 42.386719 24.558594 42.386719 C 24.65625 42.386719 24.757812 42.363281 24.898438 42.316406 C 24.921875 42.308594 24.953125 42.296875 24.984375 42.289062 C 25.242188 42.207031 25.464844 42.128906 25.578125 41.992188 C 25.859375 41.652344 25.527344 41.136719 25.285156 40.757812 C 25.222656 40.664062 25.164062 40.574219 25.136719 40.515625 C 24.757812 39.730469 24.617188 38.867188 24.703125 37.796875 C 24.722656 37.539062 24.78125 37.261719 24.835938 36.992188 C 24.859375 36.886719 24.882812 36.785156 24.898438 36.679688 C 24.960938 36.375 25.054688 36.074219 25.15625 35.753906 C 25.304688 35.285156 25.457031 34.800781 25.484375 34.292969 C 25.515625 33.65625 25.441406 33.023438 25.367188 32.410156 C 25.335938 32.152344 25.304688 31.886719 25.285156 31.625 C 25.226562 30.984375 25.289062 30.375 25.351562 29.734375 C 25.367188 29.558594 25.386719 29.386719 25.402344 29.210938 C 25.421875 28.953125 25.449219 28.707031 25.480469 28.476562 C 25.535156 28.101562 25.628906 27.710938 25.757812 27.316406 C 25.808594 27.171875 25.859375 27.023438 25.910156 26.875 C 25.996094 26.625 26.085938 26.367188 26.167969 26.109375 C 26.320312 25.613281 26.316406 25.183594 26.292969 24.671875 C 26.238281 23.460938 26.011719 22.257812 25.789062 21.097656 C 25.652344 20.363281 25.507812 19.609375 25.410156 18.863281 C 25.199219 17.25 25.511719 15.609375 25.820312 14.203125 C 25.902344 13.828125 25.960938 13.445312 26.011719 13.101562 " fill-opacity="1" fill-rule="nonzero"/></g></svg>